<?xml version="1.0" encoding="UTF-8" standalone="no"?>
<svg width="61px" height="47px" viewBox="0 0 61 47" version="1.1" xmlns="http://www.w3.org/2000/svg" xmlns:xlink="http://www.w3.org/1999/xlink">
    <!-- Generator: Sketch 3.8.3 (29802) - http://www.bohemiancoding.com/sketch -->
    <title>Page 1</title>
    <desc>Created with Sketch.</desc>
    <defs></defs>
    <g id="Page-1" stroke="none" stroke-width="1" fill="none" fill-rule="evenodd">
        <g id="Home" transform="translate(-713.000000, -2195.000000)" stroke-width="1.2" stroke="#7B7879">
            <g id="Group-8" transform="translate(714.000000, 2196.000000)">
                <g id="Page-1">
                    <path d="M0.463782222,37.6056558 C0.452060046,38.1922179 0.920190818,38.6777926 1.50440895,38.6844365 L57.942527,39.3482578 C58.5267452,39.3549017 59.011892,39.0247944 59.0207782,38.6140111 C59.028908,38.2032278 58.5577522,37.8533786 57.9735341,37.8362943 L1.5567806,36.1441859 C0.972751543,36.1263423 0.484390564,36.5919853 0.472668388,37.1785474 L0.463782222,37.6056558 Z" id="Fill-1"></path>
                    <g id="Group-7" transform="translate(0.000000, 25.246849)">
                        <path d="M45.3644431,15.3759004 C45.9484721,15.3827341 46.8798179,15.541998 47.4337853,15.7297359 L55.0000718,18.2939046 C55.5540391,18.4814526 55.9026793,18.9544988 55.7756261,19.3445911 C55.6485728,19.7344935 55.0879881,19.9087538 54.5311847,19.7316462 L41.7056116,15.6437447 C41.1488083,15.4664473 41.1709291,15.3271151 41.7551473,15.333759 L45.3644431,15.3759004 Z" id="Fill-3"></path>
                        <path d="M30.627399,10.034958 C31.1813664,10.222506 31.1562204,10.3618382 30.5720023,10.3441844 L25.566255,10.1936525 C24.9820369,10.1765681 24.047666,10.016355 23.4908626,9.83905762 L0.73490481,2.58713761 C0.177345179,2.40927071 -0.129322071,1.80790216 0.0523716574,1.25019358 L0.184718806,0.843966086 C0.366979737,0.286257503 0.968213926,-0.01632503 1.52218128,0.171412815 L30.627399,10.034958 Z" id="Fill-5"></path>
                    </g>
                    <g id="Group-16" transform="translate(8.508031, 0.000000)">
                        <path d="M19.1969539,7.34702281 C19.851316,7.71851215 19.8683321,8.35385954 19.2345783,8.75951756 L14.806999,11.5921001 C14.172678,11.9977581 13.1350764,11.9977581 12.5013226,11.5921001 L8.07374327,8.75951756 C7.44017856,8.35385954 7.45700556,7.71851215 8.11136767,7.34702281 L12.4636982,4.87985519 C13.1180603,4.50836585 14.1896941,4.50836585 14.8448125,4.87985519 L19.1969539,7.34702281 Z" id="Fill-8"></path>
                        <path d="M34.9767045,10.0245176 C35.5408814,9.70485069 36.3393129,9.52109919 37.1672388,9.52109919 C37.9951648,9.52109919 38.7943525,9.70485069 39.3585295,10.0245176 L48.4706307,15.1906303 C48.9323331,15.4524002 49.2009979,15.7919988 49.209884,16.1219163 C49.2187702,16.452593 48.9676887,16.8064286 48.5209226,17.0924962 L39.2513283,23.0224685 C38.7145661,23.3664331 37.9552716,23.5629029 37.1672388,23.5629029 C36.3799624,23.5629029 35.6199116,23.3664331 35.0831494,23.0224685 L25.8135551,17.0924962 C25.3667889,16.8064286 25.1157075,16.452593 25.1245936,16.1219163 C25.1334798,15.7919988 25.4029008,15.4524002 25.8646033,15.1906303 L34.9767045,10.0245176 Z M50.3605479,15.6110947 C50.1907655,15.0252919 49.7417305,14.4966267 49.0741337,14.1177341 L39.9618434,8.9523807 C39.2078428,8.52527236 38.2159954,8.28931873 37.1672388,8.28931873 C36.1192385,8.28931873 35.1266349,8.52527236 34.3733905,8.9523807 L25.2730115,14.1109004 C24.2626356,14.5025113 23.5411545,15.4894163 23.5411545,16.6372937 L23.5411545,26.5460174 C23.5411545,28.22256 25.2404919,29.2421151 25.4841997,29.3979622 L34.753605,35.3285039 C36.0808578,36.1774055 38.2536199,36.1774055 39.581629,35.3285039 L48.8502779,29.3979622 C49.2365425,29.1509986 49.5061526,28.8632225 49.6627003,28.56064 C50.2143989,28.0638655 50.5637954,27.3438558 50.5637954,26.5460174 L50.5637954,16.6372937 C50.5637954,16.2747261 50.4913826,15.9277243 50.3605479,15.6110947 L50.3605479,15.6110947 Z" id="Fill-10"></path>
                        <path d="M42.7099374,15.6363415 C43.3650558,16.0078309 43.3813156,16.6431783 42.7477509,17.0488363 L38.3201716,19.8814188 C37.6864178,20.2870768 36.6488161,20.2870768 36.0143061,19.8814188 L31.587483,17.0488363 C30.9531621,16.6431783 30.9701781,16.0078309 31.6245402,15.6363415 L35.9766817,13.1691739 C36.6318001,12.7976846 37.7026776,12.7976846 38.357796,13.1691739 L42.7099374,15.6363415 Z" id="Fill-12"></path>
                        <path d="M13.6542553,15.2735842 C12.8662226,15.2735842 12.1069281,15.076355 11.5699768,14.7331498 L2.30057158,8.80260804 C1.85380542,8.51710984 1.60272397,8.16327431 1.61142107,7.83259754 C1.62030723,7.50192077 1.88916101,7.16232218 2.3508635,6.90131152 L11.463721,1.73519883 C12.0271417,1.41496248 12.8263294,1.23178046 13.6542553,1.23178046 C14.4821813,1.23178046 15.2804237,1.41496248 15.8447897,1.73519883 L24.9576472,6.90131152 C25.4184043,7.16232218 25.6880144,7.50192077 25.6969005,7.83259754 C25.7057867,8.16327431 25.4547052,8.51635054 25.0079391,8.80260804 L15.7383448,14.7323905 C15.2013935,15.076355 14.4415318,15.2735842 13.6542553,15.2735842 L13.6542553,15.2735842 Z M21.3084581,15.8772306 C21.3084581,14.3734296 22.2339428,12.9964323 23.6194284,12.4233478 L26.7810127,10.6310114 C26.7810127,10.6310114 27.0498665,10.5457796 27.0498665,10.1758088 L27.0498665,8.34797494 C27.0498665,7.98464811 26.9776428,7.63840561 26.8475644,7.32177596 C26.677782,6.73521384 26.228747,6.20730792 25.5602048,5.82841537 L16.4481036,0.662302671 C15.6948593,0.235194328 14.7022557,0 13.6542553,0 C12.606255,0 11.6136514,0.235194328 10.860218,0.662302671 L1.76002801,5.82158163 C0.749652064,6.21319253 0.0279819686,7.19933824 0.0279819686,8.34797494 L0.0279819686,18.2566987 C0.0279819686,19.8947066 1.72750842,20.9520371 1.97121625,21.1086435 L11.2406215,27.0384259 C12.5678743,27.8880867 14.7406364,27.8880867 16.0684564,27.0384259 L21.1112609,23.8121444 C21.1112609,23.8121444 21.3084581,23.7039436 21.3084581,23.3493487 L21.3084581,15.8772306 Z" id="Fill-14"></path>
                    </g>
                </g>
            </g>
        </g>
    </g>
</svg>