<svg width="79" height="35" viewBox="0 0 79 35" xmlns="http://www.w3.org/2000/svg"><title>Page 1</title><path d="M46.38 4.837c.082 1.428.093 3.458.09 4.702l.183-.081c2.163-.933 5.04-.749 5.218-.737a.704.704 0 0 1 .482.232.73.73 0 0 1 .158.287c.144-.964.41-2.2.898-3.615a33.317 33.317 0 0 1 1.578-3.827c-1.635.307-4.296.885-5.863 1.631-1.64.783-2.416 1.215-2.743 1.408zm-5.91 4.459l2.615 2.497c.44-.383 1.138-.945 1.963-1.471.007-1.087.017-4.776-.153-6.258-.042-.378-.081-.718-.118-1.02a110.666 110.666 0 0 0-4.308 6.252zM60.6 25.184h5.139c.347-.833 1.28-2.495 3.703-5.767a27.435 27.435 0 0 1 6.323-6.157c-2.082-.026-5.127.03-7.394.465-3.785.728-5.169 1.166-5.182 1.17a.709.709 0 0 1-.907-.84c.033-.133.813-3.29 1.49-4.638.148-.297.282-.556.4-.778-1.373.07-3.675.284-5.67.917-3.065.973-5.003 2.396-5.022 2.41a.739.739 0 0 1-.216.11c.093.428.164.833.192 1.152.015.187.026.354.034.502 1.127-.251 3.062-.631 4.546-.655 2.055-.033 3.25.058 3.38.069.015.002.032.003.05.007.081.01.16.036.23.074a.75.75 0 0 1 .229.19.748.748 0 0 1 .11.205c.022.06.034.12.037.183.023.257.26 3.391-.35 6.836-.274 1.538-.712 3.179-1.122 4.545zm6.708 0h3.38c.205-1.042.852-3.785 2.404-6.452a50.733 50.733 0 0 1 2.078-3.247 26.234 26.234 0 0 0-4.584 4.769c-1.953 2.64-2.86 4.133-3.278 4.93zm-7.406 2.176h12.444v-.764h-12.19a44.68 44.68 0 0 1-.254.764zm-43.13-2.82l.112 2.907c1.245-1.286 3.3-3.333 5.291-4.96a23.754 23.754 0 0 1 6.118-3.594 22.7 22.7 0 0 1 .808-2.258c-1.201-.552-4.268-1.74-8.356-1.74-3.386 0-4.848.33-5.426.533.322 1.231 1.08 4.28 1.244 6.428l.207 2.653.001.031zm12.825-5.002c.028.657.192 3.655.908 5.561a25.577 25.577 0 0 0 1.582 3.409c.253-2.04 1.147-8.011 3.462-13.242 1.923-4.344 5.447-9.455 7.519-12.295-2.176 1.115-5.418 3.158-7.987 6.383-2.25 2.826-3.655 5.496-4.48 7.4l-1.004 2.784zM7.096 28.587l8.413.031-.142-3.617c-.686-.342-2.368-1.097-4.605-1.556-2.179-.449-5.12-.318-6.537-.214.147.46.393 1.137.794 2.046.652 1.48 1.654 2.789 2.077 3.31zm10.622.04l12.843.046a27.25 27.25 0 0 1-1.387-3.079c-.61-1.63-.853-3.864-.946-5.142-1.129.492-3.173 1.508-5.151 3.128-2.02 1.65-4.163 3.803-5.359 5.046zm15.78.056l6.737.025c.343-1.266 1.482-5.215 3.356-9.173 1.652-3.492 4.934-7.453 6.637-9.398-.91.054-2.063.21-3.011.618-1.908.823-3.63 2.492-3.648 2.51a.712.712 0 0 1-.989.005l-2.877-2.746c-1.084 1.775-2.103 3.615-2.854 5.31-2.214 5.003-3.102 10.885-3.351 12.85zm8.21.032l4.964.017c.53-1.187 2.155-4.533 4.962-7.862 2.227-2.64 5.42-5.014 7.444-6.39-.312-.001-.651 0-1.02.008-2.012.032-5.102.819-5.133.828a.71.71 0 0 1-.767-.292.702.702 0 0 1-.084-.616c.009-.074.026-.346-.034-1.06-.05-.589-.306-1.632-.543-2.5-1.588 1.8-4.995 5.858-6.621 9.289-1.656 3.496-2.74 7.065-3.167 8.578zm6.528.024l4.313.015v-.686c0-.39.32-.706.711-.706h5.139c.405-1.157 1.446-4.274 1.922-6.968.37-2.08.41-4.078.387-5.292-1.796 1.173-5.558 3.798-7.985 6.677-2.31 2.737-3.8 5.533-4.487 6.96zM1.678 33.246h73.378l-1.086-4.37h-.913a.711.711 0 0 1-.368-.101H53.971v.688a.709.709 0 0 1-.711.706h-.002l-6.106-.023h-.03L6.76 30h-.938l-.464 1.568a.71.71 0 0 1-.682.507H2.051l-.373 1.17zm74.284 1.413H.711a.707.707 0 0 1-.678-.92l.82-2.584a.709.709 0 0 1 .678-.493h2.614l.465-1.57a.71.71 0 0 1 .681-.505h.02c-.505-.707-1.124-1.677-1.592-2.744-.923-2.098-1.096-3.086-1.103-3.128a.71.71 0 0 1 .135-.543.714.714 0 0 1 .49-.274c.186-.021 4.635-.49 7.81.163 1.81.371 3.27.918 4.207 1.327l-.11-1.423c-.197-2.555-1.332-6.661-1.344-6.703a.708.708 0 0 1 .12-.62c.337-.432 1.669-1.16 6.82-1.16 4.356 0 7.582 1.235 8.931 1.858a34.778 34.778 0 0 1 4.293-6.862C38.437 2.867 44.619.698 45.02.563c.035-.013.072-.021.11-.03h.001a.702.702 0 0 1 .822.55v.002c.004.014.006.03.009.043.005.035.11.771.274 2.168.482-.26 1.205-.631 2.271-1.14 2.562-1.222 7.48-1.97 7.689-2a.71.71 0 0 1 .707 1.074c-.01.016-1.07 1.72-2.153 4.856a18.532 18.532 0 0 0-.915 3.979 21.937 21.937 0 0 1 4.233-1.856c3.285-1.042 7.172-1.021 7.334-1.02a.712.712 0 0 1 .617.368.703.703 0 0 1-.021.714c-.004.004-.338.542-.959 1.778-.367.73-.792 2.155-1.073 3.174.843-.207 2.17-.507 4.133-.884 3.882-.746 9.672-.444 10.077-.421a.675.675 0 0 1 .245.053v.002a.703.703 0 0 1 .406.859v.002a.566.566 0 0 1-.023.063v.002a.64.64 0 0 1-.107.174c-.166.212-2.6 3.316-4.38 6.369-1.312 2.26-1.94 4.633-2.18 5.743h.917c.392 0 .71.316.71.706v1.573h.76c.328 0 .612.22.69.538l1.436 5.782a.703.703 0 0 1-.689.875z" fill="#221F20" fill-rule="evenodd" opacity=".603"/></svg>