<svg width="61" height="47" viewBox="0 0 61 47" xmlns="http://www.w3.org/2000/svg"><title>Page 1</title><g stroke-width="1.2" stroke="#7B7879" fill="none" fill-rule="evenodd"><path d="M1.464 38.606a1.057 1.057 0 0 0 1.04 1.078l56.439.664c.584.007 1.069-.323 1.078-.734.008-.41-.463-.76-1.047-.778L2.557 37.144a1.055 1.055 0 0 0-1.084 1.035l-.01.427zM46.364 41.623a8.046 8.046 0 0 1 2.07.354L56 44.54c.554.187.903.66.776 1.05s-.688.565-1.245.387l-12.825-4.087c-.557-.178-.535-.317.05-.31l3.608.042zM31.627 36.282c.554.187.53.327-.055.309l-5.006-.15a9.121 9.121 0 0 1-2.075-.355L1.735 28.834a1.06 1.06 0 0 1-.683-1.337l.133-.406c.182-.558.783-.86 1.337-.673l29.105 9.864z"/><g><path d="M28.705 8.347c.654.372.671 1.007.038 1.413l-4.428 2.832c-.634.406-1.672.406-2.306 0L17.582 9.76c-.634-.406-.617-1.041.037-1.413l4.353-2.467c.654-.372 1.726-.372 2.38 0l4.353 2.467zM44.485 11.025c.564-.32 1.362-.504 2.19-.504.828 0 1.627.184 2.192.504l9.112 5.166c.461.261.73.601.739.93.009.332-.242.685-.689.971l-9.27 5.93c-.536.344-1.296.54-2.084.54-.787 0-1.547-.196-2.084-.54l-9.27-5.93c-.446-.286-.697-.64-.688-.97.009-.33.278-.67.74-.931l9.112-5.166zm15.384 5.586c-.17-.586-.62-1.114-1.287-1.493L49.47 9.952c-.754-.427-1.746-.663-2.795-.663-1.048 0-2.04.236-2.794.663l-9.1 5.159a2.716 2.716 0 0 0-1.732 2.526v9.909c0 1.677 1.7 2.696 1.943 2.852l9.27 5.93c1.327.85 3.5.85 4.828 0l9.268-5.93c.387-.247.656-.535.813-.837a2.708 2.708 0 0 0 .9-2.015v-9.909c0-.362-.072-.71-.202-1.026z"/><path d="M52.218 16.636c.655.372.671 1.007.038 1.413l-4.428 2.832c-.634.406-1.671.406-2.306 0l-4.426-2.832c-.635-.406-.618-1.041.037-1.413l4.352-2.467c.655-.371 1.726-.371 2.38 0l4.353 2.467zM23.162 16.274c-.788 0-1.547-.198-2.084-.54l-9.27-5.931c-.446-.286-.697-.64-.689-.97.01-.331.278-.67.74-.932l9.113-5.166c.563-.32 1.362-.503 2.19-.503.828 0 1.626.183 2.19.503l9.114 5.166c.46.261.73.6.739.932.009.33-.242.683-.689.97l-9.27 5.93c-.537.343-1.296.54-2.084.54zm7.654.603c0-1.504.926-2.88 2.311-3.454l3.162-1.792s.269-.085.269-.455V9.348c0-.363-.072-.71-.202-1.026-.17-.587-.62-1.115-1.288-1.494l-9.112-5.166C25.203 1.235 24.21 1 23.162 1s-2.04.235-2.794.662l-9.1 5.16a2.716 2.716 0 0 0-1.732 2.526v9.909c0 1.638 1.7 2.695 1.943 2.852l9.27 5.93c1.327.85 3.5.85 4.827 0l5.043-3.227s.197-.108.197-.463v-7.472z"/></g></g></svg>