<svg width="27" height="35" viewBox="0 0 27 35" xmlns="http://www.w3.org/2000/svg"><title>Layer_1</title><g fill="#616572" fill-rule="evenodd"><path d="M12.95 6.485c-1.63 1.138-3.476 2.427-4.466 4.56-1.719 3.72 3.517 7.78 3.741 7.95a.29.29 0 0 0 .362-.007.285.285 0 0 0 .071-.352c-.019-.036-1.898-3.659-1.829-6.258.025-.905 1.302-1.932 2.653-3.02 1.238-.996 2.642-2.124 3.463-3.445 1.802-2.906-.201-5.764-.222-5.792a.29.29 0 0 0-.352-.097.286.286 0 0 0-.166.323c.004.019.394 1.909-.69 3.856-.447.804-1.428 1.49-2.565 2.282z"/><path d="M19.816 7.767a.285.285 0 0 0 .08-.368.29.29 0 0 0-.356-.13c-.277.105-6.78 2.592-6.78 5.598 0 2.071.892 3.166 1.543 3.965.256.314.476.584.549.815.204.666-.28 1.87-.484 2.278a.285.285 0 0 0 .259.414.29.29 0 0 0 .165-.051c.112-.077 2.732-1.916 2.262-4.131-.175-.842-.592-1.458-.96-2-.57-.842-.981-1.45-.357-2.571.732-1.31 4.046-3.794 4.08-3.82z"/><path d="M2.89 20.387c-.112.331-.059.66.152.95.705.972 3.202 1.507 7.03 1.507h.001c.52 0 1.067-.01 1.628-.03 6.122-.218 8.393-2.11 8.487-2.191a.285.285 0 0 0 .066-.352.29.29 0 0 0-.331-.142c-2.156.584-6.183.792-8.975.792-3.125 0-4.717-.224-5.106-.389.2-.272 1.433-.758 2.96-1.057a.287.287 0 0 0-.055-.568c-.896 0-5.388.071-5.857 1.48zM23.376 18.438c-1.263 0-2.46.628-2.51.655a.286.286 0 0 0 .136.54c.027 0 2.693.021 2.935 1.533.214 1.304-2.523 3.418-3.596 4.122a.286.286 0 0 0 .16.527c.02 0 .04-.003.06-.007.254-.054 6.227-1.36 5.596-4.811-.386-2.115-1.725-2.56-2.78-2.56zM19.28 24.866a.286.286 0 0 0-.118-.288l-1.433-.995a.292.292 0 0 0-.24-.042c-.015.004-1.512.394-3.687.634-.863.096-1.83.147-2.795.147-2.174 0-3.596-.254-3.803-.44-.027-.052-.018-.076-.014-.089.038-.104.24-.227.37-.276a.286.286 0 0 0-.169-.548c-1.436.344-2.139.825-2.088 1.43.091 1.072 2.594 1.623 4.71 1.768.304.02.633.031.978.031 3.518 0 8.029-1.095 8.074-1.106a.288.288 0 0 0 .215-.226zM8.482 27.167a.286.286 0 0 0 .118-.325.29.29 0 0 0-.283-.202c-.193.005-1.884.081-2.003 1.15-.036.32.057.611.274.867.608.714 2.247 1.139 5.011 1.298.327.02.66.029.988.029 3.514 0 5.88-1.092 5.98-1.138a.287.287 0 0 0 .027-.505l-1.81-1.096a.293.293 0 0 0-.21-.036c-.011.002-1.16.239-2.895.473-.328.044-.739.066-1.221.066-1.733 0-3.66-.28-4.03-.465-.005-.034.002-.078.054-.116z"/><path d="M10.949 33.28c8.05-.006 12.37-1.427 13.202-2.32.295-.317.326-.616.301-.812-.061-.481-.503-.776-.553-.808a.293.293 0 0 0-.377.051.282.282 0 0 0-.002.374c.05.064.08.173-.069.32-.332.309-3.688 1.245-9.276 1.526-.765.04-1.568.06-2.386.06-5.002 0-8.664-.68-9.144-1.077.185-.264 1.48-.686 2.857-.924a.287.287 0 0 0-.088-.567c-.039.005-.17.013-.323.022-2.273.138-4.899.445-5.036 1.606-.041.355.065.676.315.956.614.684 2.378 1.594 10.578 1.594z"/><path d="M25.732 31.211a.29.29 0 0 0-.333.065c-.012.013-1.222 1.269-4.86 2.006-1.394.277-4.009.418-7.773.418-3.771 0-7.36-.147-7.396-.149a.287.287 0 0 0-.079.566c.038.009 3.798.883 8.94.883 2.467 0 4.867-.199 7.133-.591 4.227-.735 4.523-2.815 4.534-2.903a.287.287 0 0 0-.166-.295z"/></g></svg>