<svg width="29" height="34" viewBox="0 0 29 34" xmlns="http://www.w3.org/2000/svg"><title>Capa_1</title><g fill="#616572" fill-rule="evenodd"><path d="M28.706 28.449a2.472 2.472 0 0 0-.588-.464 7.448 7.448 0 0 0-.313-.18 5.35 5.35 0 0 1-.408-.247 2.903 2.903 0 0 1-.4-.36 2.206 2.206 0 0 1-.389-.54 4.32 4.32 0 0 1-.275-.768 4.61 4.61 0 0 1-.152-1.071c-.177.15-.275.451-.294.9-.02.449.076.907.285 1.374.209.468.522.771.94.91.405.14.73.288.978.446.246.158.405.338.475.54.07.203-.048.42-.352.654-.304.235-.791.465-1.462.693-.924.316-1.58.585-1.966.806-.386.22-.952.641-1.7 1.26-.506.417-1.044.642-1.614.674a1.563 1.563 0 0 1-1.386-.626c-.354-.448-.469-1.083-.342-1.905.24-1.58.235-2.812-.018-3.697-.203-.695-.247-1.308-.133-1.84.114-.53.29-.84.532-.928.24-.089.5.101.778.569.025.063.082.186.17.37.089.182.162.312.22.388.056.076.142.174.256.294a.95.95 0 0 0 .427.256c.17.05.37.082.598.095.43.012.816-.076 1.159-.266.341-.19.598-.4.769-.635.17-.234.342-.458.512-.673.171-.215.32-.335.447-.36.139-.025.266-.164.38-.418.113-.252.19-.603.227-1.051.039-.45.007-.983-.094-1.602-.19-1.1-.567-2.307-1.13-3.622-.564-1.315-1.193-2.345-1.89-3.09-1.253-1.327-2.095-2.705-2.526-4.133-.442-1.504-.632-2.857-.569-4.058.064-.86-.123-1.792-.56-2.796-.436-1.005-1.016-1.773-1.738-2.304-.455-.341-1.019-.603-1.69-.787a7.1 7.1 0 0 0-2.013-.256c-.822 0-1.48.133-1.974.398-1.013.544-1.684 1.204-2.013 1.982-.33.777-.481 1.734-.456 2.872.05 2.503.152 4.462.304 5.877-.178.658-.962 1.89-2.355 3.697-.253.253-.5.594-.74 1.024-.241.43-.431.816-.57 1.157-.14.34-.327.834-.56 1.478-.235.645-.403 1.1-.504 1.365a4.93 4.93 0 0 1-.418.797c-.19.303-.342.6-.456.89-.113.291-.177.62-.19.986-.012.279 0 .519.039.72.05.305.145.4.284.286.57-.43 1.286-.177 2.146.758.608.657 1.678 2.187 3.21 4.588.126.215.253.446.38.693.126.246.246.574.36.985.114.412.162.78.143 1.11-.02.329-.165.632-.437.91s-.68.454-1.225.53c-.291.038-.642.013-1.054-.076a17.333 17.333 0 0 1-1.566-.436 25.473 25.473 0 0 0-1.406-.417 62.401 62.401 0 0 0-1.89-.388c-.816-.159-1.35-.275-1.604-.351-.43-.114-.664-.278-.702-.493-.038-.177.05-.48.265-.91.216-.43.323-.74.323-.929.013-.14.007-.278-.019-.417a1.62 1.62 0 0 0-.085-.323 6.12 6.12 0 0 0-.162-.34 2.934 2.934 0 0 1-.152-.342c-.227-.531-.259-.892-.094-1.081.113-.164.386-.227.816-.19.646.064 1.17-.031 1.576-.284.67-.417.874-1.087.608-2.01 0 .43-.076.752-.228.967-.152.215-.418.436-.798.664-.215.126-.595.202-1.14.228-.543.025-.904.113-1.082.265-.126.114-.192.285-.199.512-.006.228.023.458.086.692.063.234.126.502.19.806.063.303.088.556.076.758-.013.14-.127.484-.342 1.033-.216.55-.26.97-.133 1.261.063.14.17.263.323.37.151.108.363.2.636.275.272.076.522.136.75.18.227.044.544.101.949.17.405.07.728.13.969.18.81.165 1.734.437 2.772.816 1.038.38 1.74.575 2.108.587.354.013.693-.06 1.016-.218a3.65 3.65 0 0 0 .826-.54c.228-.202.566-.392 1.016-.569.45-.177.952-.272 1.51-.284.253-.013.62-.029 1.1-.048.482-.019.843-.028 1.083-.028 1.089 0 1.912.006 2.469.019.38.013.677.073.892.18.216.107.355.23.418.37.063.139.168.3.314.483.145.183.332.332.56.445.48.228 1.044.32 1.69.275.645-.044 1.076-.167 1.291-.37.355-.34.832-.745 1.434-1.213.601-.467 1.143-.821 1.624-1.061.1-.051.272-.133.512-.247a21.43 21.43 0 0 0 1.205-.607 4.89 4.89 0 0 0 .57-.35c.146-.108.294-.231.446-.37a1 1 0 0 0 .295-.418c.044-.139.06-.28.047-.426-.013-.145-.088-.297-.228-.455zM18.528 10.125c.038-.025.063-.035.076-.029a.387.387 0 0 1 .076.076l.104.124c.032.037.076.088.133.151a.793.793 0 0 0 .456.256c.107.019.19.05.247.095a.378.378 0 0 1 .123.218.524.524 0 0 1-.066.379c-.07.114-.161.164-.276.152-.228-.05-.475-.25-.74-.597-.266-.348-.31-.623-.133-.825zM16.173 2.76a.608.608 0 0 0 .114-.2.431.431 0 0 0 .01-.237.414.414 0 0 1 .018-.246c.032-.082.105-.13.219-.142.114 0 .266.095.456.284.037.026.098.064.18.114.082.05.139.095.17.133.032.037.048.07.048.094-.026.063-.082.108-.17.133a1.04 1.04 0 0 1-.286.038c-.1 0-.158.006-.17.019a.954.954 0 0 0-.285.17 4.418 4.418 0 0 1-.21.171c-.05.038-.1.038-.151 0-.05-.076-.07-.13-.057-.16a.959.959 0 0 1 .114-.171zm-9.19 14.19c.087-.1.15-.183.189-.246.038-.063.073-.148.104-.256.032-.107.06-.186.086-.237.025-.05.063-.07.114-.057.025-.006.044.006.057.038l.019.047v.057a.41.41 0 0 1-.038.162.577.577 0 0 0-.038.113c-.013.05-.025.095-.038.133a.952.952 0 0 1-.237.341c-.108.101-.187.146-.238.133-.076-.025-.07-.101.02-.227zM19.4 28.649c-.025.405-.11.974-.257 1.707a48.42 48.42 0 0 0-.275 1.46c-.266-.014-.418-.112-.456-.295-.038-.183 0-.42.114-.71.279-.848.424-1.43.437-1.745.025-.582-.038-.91-.19-.986-.14-.1-.355.089-.646.569-.557.91-1.677 1.46-3.361 1.65-1.519.202-2.57-.026-3.152-.683-.127-.089-.253-.105-.38-.048-.126.057-.209.117-.247.18-.012.025 0 .063.038.114.038.05.098.126.18.227.083.102.15.203.2.304.494.86.45 1.44-.133 1.744 0-.58-.044-1.027-.133-1.336-.088-.31-.265-.651-.531-1.024a8.696 8.696 0 0 1-.55-.844c.379-.037.667-.183.863-.436.196-.252.285-.524.266-.815a1.043 1.043 0 0 0-.332-.72c-.114-.114-.703-.598-1.766-1.45-1.064-.854-1.722-1.426-1.975-1.717a8.155 8.155 0 0 0-.456-.379c-.253-.202-.412-.379-.475-.53-.582-1.277-.646-2.326-.19-3.148l.076-.094c.063-.013.07.1.019.341a3.764 3.764 0 0 0-.076 1.062c.05.796.278 1.39.684 1.782.266.266.449.246.55-.057.076-.101.111-.474.105-1.119-.006-.644.003-1.08.028-1.308.102-.72.402-1.612.902-2.673.5-1.062.896-1.63 1.187-1.706a1.612 1.612 0 0 1-.218-1.195c.082-.43.215-.797.399-1.1a12.1 12.1 0 0 0 .56-1.052c.19-.398.285-.755.285-1.071 0-.088.006-.152.019-.19.038-.113.196.026.475.417.531.784.93 1.246 1.196 1.385.278.151.589.145.93-.02.342-.164.763-.436 1.263-.815.5-.379.927-.657 1.282-.834.038-.012.098-.04.18-.085.083-.044.146-.076.19-.095a2.289 2.289 0 0 0 .332-.18c.038-.026.076-.054.114-.086a.257.257 0 0 0 .076-.094.232.232 0 0 0 .019-.086c-.026-.113-.08-.183-.162-.208-.082-.025-.193-.01-.332.047-.14.057-.295.133-.465.228-.171.095-.36.202-.57.322-.209.12-.42.23-.636.332a5.47 5.47 0 0 1-.683.266c-.241.075-.469.12-.684.132-.532.013-.956-.126-1.272-.417-.203-.19-.31-.31-.323-.36-.013-.05.044-.063.17-.038.685.089 1.185.101 1.501.038.33-.05.772-.196 1.33-.436.113-.05.401-.174.864-.37.461-.196.82-.331 1.072-.407.153-.038.257-.098.314-.18.057-.083.076-.159.057-.228a.262.262 0 0 0-.123-.161c-.14-.076-.266-.025-.38.152-.063.113-.197.224-.399.331-.202.108-.39.19-.56.247-.171.057-.39.123-.655.199a6.17 6.17 0 0 0-.437.133c-.696.214-1.342.31-1.937.284a2.064 2.064 0 0 1-.674-.123c-.171-.07-.288-.152-.351-.247a2.879 2.879 0 0 0-.304-.36 2.092 2.092 0 0 0-.475-.37c-.127-.063-.174-.177-.143-.341.032-.164.13-.335.295-.512.012-.013.142-.092.389-.237.247-.145.42-.294.522-.446.114-.177.31-.36.589-.55.013-.05.022-.19.028-.417a1.624 1.624 0 0 0-.18-.739c-.127-.266-.298-.398-.513-.398-.304-.013-.519.076-.645.265-.127.19-.184.424-.171.702.013.24.073.451.18.635.108.183.206.275.295.275.139-.013.183.038.132.151a.514.514 0 0 1-.303.266c-.09.025-.188-.06-.295-.256a2.524 2.524 0 0 1-.247-.711 2.695 2.695 0 0 1-.066-.702c.025-.391.13-.767.313-1.128.184-.36.446-.534.788-.521.355.013.64.228.855.645.215.417.316.986.304 1.706.038.088.136.12.294.095.158-.026.367-.029.627-.01.26.019.446.085.56.2.013 0 .019-.096.019-.285-.228-1.593.335-2.44 1.69-2.54.202.037.373.085.512.141.14.057.288.152.447.285.158.132.29.325.398.578.108.253.194.57.257.948v.702c0 .404-.083.632-.247.682-.266.089-.456.085-.57-.01-.114-.094-.101-.262.038-.502.127-.316.102-.683-.076-1.1-.177-.417-.5-.606-.968-.568-.317.012-.545.183-.684.512-.14.328-.19.65-.152.967.038.316.108.48.21.492.075.013.3.114.674.304.374.19.655.303.845.341.493.101.775.259.845.474.07.215.04.528-.086.939-.126.41-.164.748-.113 1.014.05.278.145.53.285.758.139.228.287.436.446.626.158.19.344.543.56 1.062.215.518.411 1.169.588 1.952l.143.133c.082.076.164.17.247.284.082.114.18.27.294.465.114.196.238.484.37.863.133.379.257.815.37 1.308.14.582.213 1.257.22 2.029.006.77.056 1.298.151 1.583.096.285.34.401.732.35.493-.024.81-.29.949-.796.418-1.466.076-3.223-1.025-5.27-.418-.797-.779-1.321-1.083-1.574.443.253.899.727 1.368 1.422.468.695.765 1.347.892 1.953.012.063.047.23.104.502.057.272.089.43.095.474.006.045.032.174.076.389.044.215.066.354.066.417 0 .064.006.187.02.37.012.183.009.325-.01.426-.02.102-.038.238-.057.408-.02.17-.05.335-.095.493l-.142.521c.696.304 1.044.57 1.044.797-.266-.215-.646-.357-1.14-.426a2.361 2.361 0 0 0-1.376.199c-.425.202-.643.537-.656 1.004-.456 0-.778.114-.968.342-.279.328-.424.774-.437 1.336-.012.562.035 1.176.142 1.839.109.663.15 1.128.124 1.393zM11.444 6.674c-.038-.012-.07-.05-.094-.114 0-.113.057-.158.17-.132.077.025.15.12.219.284.07.164.085.354.048.569 0 .038-.02.057-.058.057-.139 0-.19-.127-.152-.38.038-.189-.006-.284-.133-.284zm4.919.304l-.038.057c-.101.063-.151.075-.151.038-.051-.342-.165-.538-.342-.588l-.076-.038c-.089-.076-.045-.12.132-.133.038-.013.095.006.171.057.076.05.146.13.21.237.062.107.094.23.094.37z"/><path d="M11.938 8.165c0 .1.032.14.095.124.05 0 .104-.078.162-.236.057-.156.155-.243.294-.26h-.19c-.24.05-.36.173-.36.372z"/></g></svg>