<?xml version="1.0" encoding="UTF-8" standalone="no"?>
<svg width="29px" height="34px" viewBox="0 0 29 34" version="1.1" xmlns="http://www.w3.org/2000/svg" xmlns:xlink="http://www.w3.org/1999/xlink">
    <!-- Generator: Sketch 3.8.3 (29802) - http://www.bohemiancoding.com/sketch -->
    <title>Capa_1</title>
    <desc>Created with Sketch.</desc>
    <defs></defs>
    <g id="Page-1" stroke="none" stroke-width="1" fill="none" fill-rule="evenodd">
        <g id="Home" transform="translate(-967.000000, -1558.000000)" fill="#616572">
            <g id="Group-12" transform="translate(152.000000, 1337.000000)">
                <g id="linux-logo" transform="translate(815.000000, 221.000000)">
                    <g id="Capa_1">
                        <g id="Group">
                            <path d="M28.7062752,28.4490352 C28.567461,28.2910547 28.3709794,28.1363281 28.1178945,27.9845234 C28.0796491,27.9597539 27.9753555,27.8995898 27.8051468,27.8052266 C27.6344725,27.7102656 27.4983188,27.6281875 27.3965528,27.5584609 C27.2954518,27.4888672 27.1624908,27.3689375 26.9977362,27.198207 C26.8333807,27.0278086 26.7036789,26.8473828 26.6084977,26.657793 C26.5135826,26.4684688 26.4217936,26.2126055 26.3330642,25.8901367 C26.2442683,25.567668 26.1941835,25.210668 26.1812133,24.8188047 C26.0038876,24.9699453 25.9059794,25.270168 25.8868899,25.719207 C25.8678005,26.1678477 25.9629817,26.6257188 26.1719014,27.093418 C26.3806216,27.5613164 26.6940344,27.8641953 27.1117408,28.003582 C27.5166766,28.1429023 27.842594,28.2909883 28.0898257,28.4489688 C28.3363257,28.6071484 28.494961,28.7869102 28.5646674,28.9891836 C28.6343073,29.1919219 28.516844,29.4098008 28.2132087,29.643418 C27.9091078,29.8775 27.421828,30.1079297 26.7509702,30.336168 C25.826828,30.6517969 25.1715344,30.9206758 24.7852225,31.141543 C24.3991766,31.362875 23.832945,31.783293 23.0857959,32.402332 C22.5791606,32.8194961 22.0412638,33.044082 21.4713073,33.0756914 C20.9020161,33.1075 20.4395459,32.898918 20.0853601,32.4502773 C19.7307087,32.0017031 19.6164381,31.366793 19.7432133,30.54475 C19.9837936,28.9649453 19.9778739,27.7325117 19.724789,26.8478477 C19.5221881,26.1526406 19.4775573,25.5395117 19.5918945,25.0086602 C19.7056995,24.4783398 19.8827592,24.1688203 20.1236055,24.080168 C20.3634541,23.9913164 20.6234564,24.1811055 20.9020161,24.6485391 C20.9268257,24.7116914 20.9841606,24.8349414 21.0724908,25.0182891 C21.1610206,25.2014375 21.2336537,25.3314609 21.2911881,25.4068984 C21.3481239,25.4828008 21.4335275,25.58075 21.5475321,25.7010117 C21.6613372,25.8214063 21.8045413,25.9064063 21.9750161,25.9572734 C22.1457569,26.0077422 22.3449656,26.0392852 22.5732408,26.0518359 C23.0036514,26.0643203 23.3894312,25.9759336 23.731578,25.7864102 C24.0732592,25.5968867 24.3300023,25.3851172 24.5006766,25.1513008 C24.6713509,24.9172188 24.8425573,24.6931641 25.0132982,24.4781406 C25.1839725,24.262918 25.3328968,24.1429219 25.459672,24.1174883 C25.5987523,24.0927188 25.7255275,23.9535977 25.8395321,23.700457 C25.9534037,23.4477813 26.0293624,23.0970898 26.0674083,22.6485156 C26.1056537,22.1996758 26.0737936,21.6656367 25.9726927,21.0465977 C25.7826628,19.9465117 25.4057294,18.7395781 24.8425573,17.4251328 C24.2789862,16.1104883 23.6495665,15.0803945 22.9531009,14.3345859 C21.6998486,13.0075898 20.8583165,11.6299258 20.4274404,10.2015273 C19.9847248,8.69755859 19.795094,7.3450625 19.8581491,6.14423828 C19.9216032,5.28467578 19.7347661,4.35246484 19.2981697,3.34753906 C18.8616399,2.34274609 18.2821055,1.57489063 17.5604977,1.04403906 C17.1048119,0.702910156 16.5412408,0.440671875 15.8706491,0.257257813 C15.1996583,0.07384375 14.5284679,-0.0112226562 13.8574771,0.00126171875 C13.0347683,0.00126171875 12.3762156,0.133875 11.8826835,0.399433594 C10.8698784,0.943035156 10.1990872,1.60337891 9.86971101,2.38073047 C9.54033486,3.15794922 9.38868349,4.11539453 9.41382569,5.253 C9.46470872,7.75565234 9.56574312,9.71476953 9.71779358,11.1302852 C9.54040138,11.7876406 8.75567202,13.0198086 7.36294037,14.8272539 C7.10958945,15.0801953 6.86269037,15.4213906 6.62211009,15.8511055 C6.38166284,16.2809531 6.19169954,16.6665742 6.05248624,17.0075703 C5.91307339,17.3486992 5.72643578,17.8416328 5.49224083,18.4863711 C5.25791284,19.1308438 5.09036468,19.5860586 4.98899771,19.8512852 C4.90040138,20.0791914 4.76105505,20.3441523 4.57129128,20.6480273 C4.38132798,20.9511055 4.22907798,21.2484063 4.11540596,21.5386016 C4.00173394,21.8292617 3.93827982,22.1578398 3.9256422,22.5244688 C3.91300459,22.8025781 3.9256422,23.0428359 3.96368807,23.2448438 C4.01417202,23.5486523 4.10935321,23.6432148 4.24843349,23.5295938 C4.81838991,23.0998125 5.5336789,23.3525547 6.39443349,24.2881523 C7.00210321,24.945375 8.07197706,26.4748438 9.60378899,28.8764258 C9.73036468,29.0911836 9.85687385,29.3218125 9.98344954,29.5689102 C10.1103578,29.8150117 10.2302821,30.1433242 10.3443532,30.5542461 C10.4582913,30.9655664 10.5058486,31.334918 10.4867592,31.6636953 C10.4676032,31.9925391 10.3222041,32.2959492 10.0499633,32.5735938 C9.77772248,32.8515703 9.3693945,33.0284102 8.82511239,33.1042461 C8.53378211,33.1421641 8.18278899,33.1171953 7.77113532,33.0283438 C7.35968119,32.9398906 6.83741514,32.7946602 6.2045367,32.5924531 C5.57152523,32.3904453 5.10320183,32.251125 4.79930046,32.1752227 C4.35645183,32.0738867 3.72663303,31.9449922 2.90991055,31.7866133 C2.09325459,31.6284336 1.55821789,31.511625 1.30506651,31.4357227 C0.874655963,31.3221016 0.640527523,31.1580117 0.602614679,30.9428555 C0.564568807,30.7658164 0.653165138,30.4626719 0.868470183,30.0331563 C1.08390826,29.603375 1.19132798,29.2933906 1.19132798,29.1041328 C1.20383257,28.9648125 1.19758028,28.8262227 1.17217202,28.6869688 C1.14702982,28.5478477 1.11856193,28.4403359 1.08683486,28.3645 C1.05517431,28.2887969 1.00136468,28.1749766 0.92533945,28.0231055 C0.84931422,27.8715664 0.798763761,27.7574805 0.773422018,27.682043 C0.545678899,27.1509258 0.513951835,26.7902734 0.678506881,26.6010156 C0.792311927,26.4366602 1.06455275,26.3735078 1.4949633,26.411625 C2.14061239,26.4748438 2.66593807,26.3798164 3.07113991,26.1269414 C3.74193119,25.7099102 3.94473165,25.0400039 3.67874312,24.1170898 C3.67874312,24.5468047 3.60271789,24.8688086 3.45080046,25.0840313 C3.29888303,25.2987891 3.0328945,25.5201211 2.65323394,25.7478281 C2.43812844,25.8741992 2.05813532,25.9499023 1.51391972,25.9756016 C0.969637615,26.0008359 0.608667431,26.0894219 0.431474771,26.2410273 C0.304965596,26.3548477 0.238584862,26.5255117 0.232199541,26.7530195 C0.225947248,26.9809922 0.254614679,27.2111563 0.317802752,27.4452383 C0.380990826,27.6790547 0.44437844,27.9474023 0.507566514,28.2508789 C0.570954128,28.5544219 0.59609633,28.8074297 0.583591743,29.0094375 C0.570954128,29.148293 0.456683486,29.4930078 0.241577982,30.0423203 C0.0264724771,30.5922969 -0.0178256881,31.0126484 0.10875,31.3031094 C0.172137615,31.4424297 0.279557339,31.5658125 0.431541284,31.6730586 C0.583392202,31.7805039 0.795438073,31.8721445 1.06761239,31.9483125 C1.33958716,32.0242148 1.58974541,32.0841797 1.81775459,32.1282734 C2.04549771,32.1721016 2.36197018,32.2293438 2.76703899,32.2984727 C3.17217431,32.3677344 3.4949656,32.4282305 3.73554587,32.4784336 C4.54581651,32.6429883 5.4698922,32.9147227 6.5081055,33.2937695 C7.54618578,33.673082 8.24870413,33.8687148 8.61586009,33.8812656 C8.97037844,33.89375 9.30893349,33.8213008 9.6318578,33.6631211 C9.95464908,33.5054063 10.2299495,33.3251797 10.4578922,33.1229063 C10.6856353,32.9206328 11.0243234,32.7309102 11.4736239,32.5541367 C11.9232569,32.3770977 12.4264335,32.2823359 12.9835528,32.2696523 C13.2367041,32.257168 13.6038601,32.2412305 14.0848876,32.2223711 C14.5659817,32.2032461 14.9266858,32.1939492 15.1672661,32.1939492 C16.2559633,32.1939492 17.078805,32.2000586 17.6357913,32.2127422 C18.0156514,32.2256914 18.3131674,32.2855234 18.5284725,32.3930352 C18.743578,32.5002813 18.8831239,32.6236641 18.9461789,32.7624531 C19.0094335,32.9018398 19.1143922,33.0626758 19.2600573,33.2460898 C19.4053234,33.4292383 19.591961,33.5778555 19.8195711,33.6914766 C20.3004656,33.9191836 20.8641032,34.0107578 21.5098853,33.9664648 C22.1554014,33.9223711 22.586078,33.7989883 22.801117,33.5967813 C23.1555688,33.2556523 23.6333372,32.8509727 24.2346881,32.3834727 C24.8361055,31.9160391 25.3778601,31.5619609 25.858555,31.3217695 C25.959656,31.2708359 26.1305963,31.1888242 26.3711766,31.0749375 C26.6114908,30.9611172 26.8138922,30.8633672 26.9784472,30.7808906 C27.1430688,30.6986797 27.3426766,30.5942891 27.576406,30.4679844 C27.8108005,30.3414141 28.0006972,30.2246055 28.1463624,30.1170938 C28.291961,30.009582 28.4404197,29.8866641 28.5924702,29.7473438 C28.7443211,29.6084883 28.8424289,29.4694336 28.8870596,29.3303789 C28.9307592,29.1913242 28.9471216,29.049082 28.9344174,28.9037852 C28.9214472,28.7587539 28.8458211,28.6074141 28.7062752,28.4490352 L28.7062752,28.4490352 Z M18.5280069,10.1248281 C18.5657867,10.0997266 18.591328,10.0901641 18.6038326,10.0964063 C18.6166032,10.1027813 18.6418784,10.1281484 18.6796583,10.1723086 C18.7179037,10.2165352 18.7522913,10.2577734 18.7843509,10.2956914 C18.8158119,10.3332773 18.8599771,10.3840781 18.9168463,10.4471641 C18.9737156,10.5104492 19.033844,10.560918 19.0968991,10.5988359 C19.1733234,10.6493047 19.2648463,10.6843008 19.3725321,10.7031602 C19.4802179,10.7220195 19.5625619,10.7536289 19.6197638,10.7977891 C19.6769656,10.8419492 19.7181376,10.9145977 19.7429472,11.0158672 C19.7679564,11.1550547 19.746805,11.2811602 19.6771651,11.3949141 C19.6070596,11.5088008 19.5155367,11.5594688 19.4013326,11.5467188 C19.1734564,11.4961172 18.9264908,11.2971641 18.6608349,10.9495273 C18.3953119,10.601957 18.3507477,10.3271016 18.5280069,10.1248281 L18.5280069,10.1248281 Z M16.1730872,2.75951172 C16.2361422,2.67736719 16.2741881,2.61102734 16.2866927,2.56055859 C16.3119679,2.48445703 16.3151606,2.40556641 16.2962706,2.32342188 C16.2773807,2.24127734 16.2835665,2.15913281 16.3151606,2.07698828 C16.3470206,1.99484375 16.4198532,1.94742969 16.5338578,1.9348125 C16.6477294,1.9348125 16.7997133,2.02970703 16.9896101,2.21923047 C17.0273899,2.24459766 17.0875183,2.28251563 17.1693968,2.33298438 C17.2518073,2.38358594 17.3087431,2.42774609 17.3403372,2.46559766 C17.3719977,2.50331641 17.387695,2.53525781 17.387695,2.56035938 C17.3624197,2.62344531 17.3055505,2.66807031 17.2172202,2.69317188 C17.1289564,2.71827344 17.0335092,2.73115625 16.9324748,2.73115625 C16.8314404,2.73115625 16.774039,2.73739844 16.7616009,2.75001563 C16.6603005,2.788 16.5653853,2.84477734 16.4765894,2.92054688 C16.3880596,2.99644922 16.3184197,3.05329297 16.2678693,3.09121094 C16.2168532,3.1290625 16.1663693,3.1290625 16.1158188,3.09121094 C16.0652683,3.01530859 16.0461789,2.96158594 16.0589495,2.93010938 C16.0717867,2.89863281 16.1098326,2.84165625 16.1730872,2.75951172 L16.1730872,2.75951172 Z M6.98208257,16.9505938 C7.07041284,16.8495898 7.13393349,16.7674453 7.17184633,16.7041602 C7.20982569,16.640875 7.24454587,16.555543 7.27627294,16.4482305 C7.30793349,16.3406523 7.33640138,16.2615625 7.36174312,16.2110938 C7.38721789,16.160293 7.42526376,16.1414336 7.47581422,16.1540508 C7.50095642,16.1478086 7.51984633,16.160293 7.53294954,16.1919688 C7.54545413,16.2235781 7.55183945,16.2394492 7.55183945,16.2394492 L7.55183945,16.2963594 C7.55183945,16.3154844 7.54858028,16.3405859 7.54226147,16.3722617 C7.53587615,16.4041367 7.52629817,16.4324922 7.51379358,16.4575938 C7.50095642,16.4830273 7.48838532,16.5210117 7.47581422,16.5714141 C7.46317661,16.6218828 7.45067202,16.6661758 7.43776835,16.7040273 C7.38721789,16.8307305 7.30793349,16.9442188 7.20051376,17.0454219 C7.09282798,17.1464922 7.01361009,17.1907852 6.96299312,17.1781016 C6.8870344,17.153 6.89355275,17.076832 6.98208257,16.9505938 L6.98208257,16.9505938 Z M19.4009335,28.6483203 C19.3756583,29.0526016 19.2901216,29.6216367 19.1444564,30.3547617 C18.9987913,31.0876211 18.9068693,31.5743789 18.8687569,31.8143711 C18.6029014,31.8014219 18.451117,31.7034727 18.4130711,31.5202578 C18.3752913,31.3368438 18.4130711,31.1001055 18.5270757,30.8092461 C18.8055023,29.9620352 18.9507018,29.3807148 18.963672,29.0650195 C18.9894128,28.4835 18.9258922,28.1548555 18.7742408,28.0791523 C18.6344289,27.978082 18.4193899,28.1678047 18.1282592,28.6477227 C17.5708073,29.5578867 16.4506491,30.107332 14.7669862,30.2973867 C13.248078,30.4996602 12.1972936,30.2721523 11.6147661,29.6145313 C11.4881904,29.5260781 11.3616147,29.5104063 11.2351055,29.5674492 C11.1085298,29.6238281 11.0262523,29.6842578 10.9882729,29.7469453 C10.9757683,29.7724453 10.9882729,29.8101641 11.0263188,29.860832 C11.0642982,29.9115664 11.1244266,29.9871367 11.2067041,30.0883398 C11.2889817,30.189875 11.3554289,30.2906133 11.4059794,30.3921484 C11.8999106,31.2513789 11.8556789,31.8326992 11.2731514,32.1361094 C11.2731514,31.5550547 11.2288532,31.1094023 11.1403234,30.7998828 C11.0516606,30.4901641 10.8746009,30.1490352 10.6086124,29.7758984 C10.3428899,29.4031602 10.1593119,29.1217969 10.0581445,28.9323398 C10.437805,28.8946211 10.7258761,28.749125 10.9221583,28.49625 C11.1183739,28.2435078 11.2069037,27.9717734 11.1880138,27.6811133 C11.1689908,27.3902539 11.0583119,27.1499961 10.855711,26.9604727 C10.7417729,26.8468516 10.1529266,26.3632813 9.0895711,25.5100938 C8.02628211,24.6569727 7.36786239,24.0850156 7.11477752,23.7943555 C7.0638945,23.7436875 6.91217661,23.6173164 6.6588922,23.415043 C6.40554128,23.2128359 6.24723853,23.0359961 6.18405046,22.8841914 C5.60158945,21.6081953 5.53840138,20.5585781 5.99408716,19.7373984 L6.06997936,19.6426367 C6.13316743,19.6301523 6.13955275,19.743707 6.08886927,19.9840313 C6.01297706,20.338043 5.98776835,20.6916563 6.01297706,21.0457344 C6.06352752,21.8422109 6.29147018,22.436082 6.69653899,22.8276133 C6.96252752,23.0935039 7.14597248,23.0744453 7.24733945,22.7709688 C7.32336468,22.6696328 7.35808486,22.2968945 7.35169954,21.651957 C7.34564679,21.0076836 7.35502523,20.5715938 7.38036697,20.3438867 C7.48173394,19.6235117 7.78244266,18.732207 8.28242661,17.6709688 C8.78241055,16.6091328 9.17823394,16.0402969 9.46936468,15.9645273 C9.24142202,15.5979648 9.16865596,15.199793 9.251,14.7700117 C9.3331445,14.3402305 9.46630505,13.9734688 9.64975,13.6703242 C9.83312844,13.3670469 10.0200986,13.0164219 10.2097959,12.6181836 C10.3997592,12.2200117 10.4946743,11.8628789 10.4946743,11.546918 C10.4946743,11.4585977 10.5011927,11.3953125 10.5138303,11.3573945 C10.5517431,11.2436406 10.7100459,11.3826289 10.988539,11.7743594 C11.52025,12.5581523 11.9190665,13.0196094 12.1849885,13.1585977 C12.4634817,13.3100703 12.7735023,13.3038281 13.115383,13.1394727 C13.4571307,12.9751836 13.8780298,12.7033828 14.3782133,12.3243359 C14.8780642,11.9452891 15.3053486,11.6671133 15.6599335,11.4903398 C15.6981789,11.4775234 15.7581078,11.4491016 15.8407179,11.404875 C15.9225963,11.3609141 15.9859174,11.3291055 16.0300826,11.3099805 C16.0740482,11.2911211 16.1311835,11.2627656 16.2010229,11.2247813 C16.2701972,11.1868633 16.3239404,11.1552539 16.3619862,11.1298867 C16.3999656,11.1044531 16.4380115,11.0760313 16.4757913,11.0444219 C16.5135046,11.0126797 16.5387798,10.9813359 16.5518165,10.9496602 C16.5645206,10.9180508 16.570906,10.8896953 16.570906,10.8643281 C16.5454312,10.7505078 16.4917546,10.6809141 16.4092775,10.6558125 C16.3269335,10.6305781 16.2163211,10.64625 16.0769748,10.703293 C15.937695,10.7602031 15.7824518,10.8361055 15.611711,10.9308008 C15.4410367,11.0255625 15.2512064,11.1330078 15.0422202,11.2531367 C14.8334335,11.3732656 14.6213211,11.4836992 14.4062156,11.5849688 C14.1911101,11.6861719 13.9631009,11.774625 13.7225206,11.8505273 C13.4820069,11.9262305 13.2541307,11.9706563 13.0389587,11.9832734 C12.5072477,11.995957 12.083289,11.857168 11.7668165,11.5662422 C11.5642821,11.3764531 11.4567959,11.256457 11.4439587,11.2059219 C11.4311881,11.1555195 11.4882569,11.1429023 11.6147661,11.1680039 C12.2986606,11.2565234 12.798578,11.2690078 13.115117,11.2059219 C13.4442271,11.1555195 13.8872752,11.0100234 14.4443945,10.769832 C14.5584656,10.7193633 14.8461376,10.5959805 15.3086743,10.400082 C15.7704794,10.2044492 16.1283234,10.0685156 16.3814748,9.99261328 C16.5337248,9.95462891 16.6382179,9.89466406 16.6951537,9.81251953 C16.7518234,9.730375 16.7709794,9.65447266 16.7518234,9.58487891 C16.733,9.51548438 16.6917615,9.46182813 16.6287064,9.42391016 C16.489094,9.34800781 16.3625849,9.39867578 16.2490459,9.57558203 C16.1855252,9.68933594 16.0523647,9.80010156 15.8499633,9.90741406 C15.6476284,10.0149922 15.4605917,10.0970039 15.2897844,10.1538477 C15.1189106,10.210625 14.9005459,10.2770313 14.6345573,10.3528008 C14.3685688,10.4287031 14.2232362,10.4729297 14.1977615,10.4855469 C13.5015619,10.7003047 12.8559128,10.7951992 12.2608142,10.769832 C11.9822546,10.7573477 11.7576376,10.7161094 11.5868303,10.646582 C11.4158899,10.5772539 11.2986261,10.4951094 11.2355046,10.4001484 C11.172117,10.3055195 11.0709495,10.1853906 10.9316697,10.0399609 C10.7922569,9.89453125 10.6339541,9.77134766 10.456828,9.67007813 C10.3302523,9.60699219 10.282695,9.49323828 10.314422,9.32894922 C10.3460826,9.16466016 10.4441904,8.99386328 10.6087454,8.81695703 C10.621383,8.80420703 10.7512179,8.72538281 10.9979839,8.57995313 C11.2448165,8.43452344 11.4189495,8.28597266 11.520383,8.13430078 C11.634055,7.95739453 11.8304037,7.77398047 12.1088968,7.58432422 C12.1215344,7.53385547 12.1311124,7.39486719 12.1373647,7.16735938 C12.143617,6.93998438 12.083555,6.69348438 11.9569794,6.42805859 C11.8304037,6.1625 11.6593303,6.02995313 11.4441583,6.02995313 C11.1402569,6.01733594 10.9250849,6.10572266 10.7985092,6.29537891 C10.6719335,6.48476953 10.6151307,6.71871875 10.6277018,6.99676172 C10.640539,7.23682031 10.7006674,7.44839063 10.8080872,7.63180469 C10.9157729,7.81521875 11.0139472,7.90692578 11.1025436,7.90692578 C11.2416904,7.89410938 11.2859885,7.94451172 11.2353716,8.05839844 C11.1594794,8.19758594 11.0580459,8.28623828 10.9315367,8.32395703 C10.8426743,8.34905859 10.7445,8.26385938 10.6370803,8.06796094 C10.5293945,7.8720625 10.4471835,7.63519141 10.3902477,7.35701563 C10.3333784,7.07897266 10.3110298,6.84515625 10.323867,6.65536719 C10.3490092,6.26357031 10.4533693,5.88751172 10.6370803,5.52725781 C10.8207913,5.16707031 11.0834541,4.99321875 11.4251353,5.00570313 C11.7796537,5.01851953 12.0647317,5.23354297 12.2798372,5.65050781 C12.4952752,6.06753906 12.5964427,6.63657422 12.583805,7.35694922 C12.6218509,7.44546875 12.7198922,7.47707813 12.8782615,7.45171094 C13.0362317,7.42634375 13.2452844,7.42308984 13.5047546,7.44214844 C13.7640917,7.46100781 13.9507959,7.52728125 14.0648005,7.64110156 C14.0776376,7.64110156 14.0839564,7.54614063 14.0839564,7.35668359 C13.8560138,5.76432813 14.4193188,4.91744922 15.7740711,4.81624609 C15.9762064,4.85423047 16.1471468,4.90171094 16.2862271,4.95842188 C16.4259725,5.01519922 16.5741651,5.11022656 16.7326009,5.24283984 C16.8912362,5.37545313 17.0236651,5.56816406 17.1313509,5.82110547 C17.2390367,6.07417969 17.3245734,6.39014063 17.387828,6.7691875 L17.387828,7.47057031 C17.387828,7.87498438 17.3052179,8.10255859 17.1406628,8.15316016 C16.8750069,8.24154688 16.6853761,8.23849219 16.5715711,8.14359766 C16.4575,8.04863672 16.4698716,7.88135938 16.6093509,7.64116797 C16.7358601,7.32520703 16.7105849,6.95837891 16.5332592,6.54134766 C16.3561995,6.12438281 16.0331422,5.93472656 15.5649518,5.97271094 C15.2483463,5.98539453 15.0204702,6.15605859 14.8811904,6.48457031 C14.7419106,6.81321484 14.6914266,7.13555078 14.729406,7.45157813 C14.7673853,7.76753906 14.8368257,7.93182813 14.9383922,7.94437891 C15.0142179,7.95719531 15.2392339,8.05819922 15.6126422,8.24785547 C15.9865826,8.43744531 16.2681353,8.55113281 16.4577661,8.58905078 C16.9514977,8.68998828 17.2327844,8.84803516 17.3026904,9.06299219 C17.3723303,9.27808203 17.3438624,9.59078906 17.2173532,10.0015117 C17.090578,10.4125 17.0527317,10.7503086 17.1037477,11.0158672 C17.1542982,11.2942422 17.2494128,11.5467188 17.3887592,11.7742266 C17.528039,12.0019336 17.6764312,12.2103164 17.834867,12.4000391 C17.9930367,12.5892305 18.1794748,12.9434414 18.3952454,13.461543 C18.6101514,13.9799102 18.806367,14.6307578 18.9834266,15.414418 C18.9959312,15.4270352 19.043289,15.4712617 19.1257661,15.5471641 C19.2081101,15.6229336 19.2901216,15.7176953 19.3727317,15.8314492 C19.4553417,15.9452695 19.55325,16.1000625 19.6672546,16.2959609 C19.7811261,16.4919922 19.9049083,16.7795313 20.0378028,17.1588438 C20.1702982,17.5378906 20.2941468,17.9742461 20.4078853,18.4669141 C20.5472317,19.0486992 20.6199977,19.7243164 20.626383,20.4958242 C20.6328349,21.266668 20.6833188,21.7943984 20.7784335,22.0788828 C20.8736147,22.3636328 21.1171881,22.4804414 21.5095528,22.4297734 C22.0032844,22.4045391 22.320156,22.1391133 22.4587706,21.6334961 C22.8766766,20.1672461 22.5352615,18.4101367 21.433594,16.362832 C21.0156881,15.5664883 20.655117,15.0418789 20.3510161,14.7892031 C20.7939977,15.0419453 21.2499495,15.5157539 21.7186055,16.2111602 C22.1870619,16.9064336 22.4843119,17.5575469 22.6108876,18.1638359 C22.6231927,18.2272539 22.6582454,18.3947969 22.7151147,18.6662656 C22.7719839,18.9380664 22.803844,19.0962461 22.8098303,19.1403398 C22.8159495,19.1846328 22.8416904,19.3141914 22.885656,19.5290156 C22.9302202,19.7439063 22.9521032,19.8830273 22.9521032,19.9461797 C22.9521032,20.0095977 22.9582225,20.1327813 22.9711927,20.3159297 C22.9841628,20.4990781 22.9807706,20.6413203 22.9616147,20.742457 C22.9425252,20.843793 22.9238349,20.9797266 22.9047454,21.1499922 C22.885656,21.3205898 22.854195,21.4849453 22.8098303,21.643125 C22.7661307,21.8010391 22.7185069,21.9751563 22.6677569,22.1644805 C23.3638234,22.4678242 23.7120894,22.7330508 23.7120894,22.9607578 C23.4464335,22.7458008 23.0663073,22.6037578 22.5723761,22.5348945 C22.0783784,22.4651016 21.6200321,22.5314414 21.1957408,22.7337148 C20.7714495,22.9359883 20.5529518,23.2707422 20.5401812,23.7381758 C20.0844954,23.7381758 19.7615046,23.8517969 19.5718739,24.0797695 C19.2934472,24.4081484 19.1480482,24.8535352 19.135344,25.4162617 C19.1226399,25.978457 19.1697317,26.5917852 19.2773509,27.254918 C19.3855023,27.9184492 19.4264748,28.3826953 19.4009335,28.6483203 L19.4009335,28.6483203 Z M11.4444908,6.67422656 C11.406445,6.66174219 11.3748509,6.62355859 11.3497087,6.56047266 C11.3497087,6.44698438 11.4065115,6.40242578 11.5205161,6.42785938 C11.5965413,6.45296094 11.6695069,6.54785547 11.7389472,6.71214453 C11.8085872,6.87643359 11.8244174,7.06608984 11.7865046,7.28098047 C11.7865046,7.31889844 11.7676147,7.33802344 11.7293693,7.33769141 C11.5899564,7.33769141 11.539406,7.21138672 11.5774518,6.95864453 C11.6152982,6.76905469 11.571,6.67422656 11.4444908,6.67422656 L11.4444908,6.67422656 Z M16.3629174,6.97776953 L16.3251376,7.03454688 C16.2240367,7.09763281 16.1738188,7.11031641 16.1738188,7.07253125 C16.1228028,6.73107031 16.0089312,6.53517188 15.8318716,6.48457031 L15.7558463,6.44671875 C15.6670505,6.37081641 15.7112156,6.32658984 15.8882752,6.31397266 C15.9262546,6.30128906 15.9831904,6.32014844 16.0592156,6.37075 C16.1352408,6.42141797 16.2048807,6.50044141 16.2682018,6.60788672 C16.3312569,6.71546484 16.3629174,6.83851563 16.3629174,6.97776953 L16.3629174,6.97776953 Z" id="Shape"></path>
                            <path d="M11.938156,8.1649072 C11.938156,8.26425909 11.9700161,8.30563398 12.0333372,8.28920572 C12.0838876,8.28920572 12.1374312,8.21054127 12.1945665,8.05338622 C12.2515688,7.89657887 12.3498096,7.80974375 12.4888899,7.7929678 L12.4888899,7.79270703 L12.2989266,7.79270703 C12.0584794,7.84233952 11.938156,7.96637726 11.938156,8.1649072 L11.938156,8.1649072 Z" id="Shape"></path>
                            <path id="Shape"></path>
                        </g>
                    </g>
                </g>
            </g>
        </g>
    </g>
</svg>