<?xml version="1.0" encoding="UTF-8" standalone="no"?>
<svg width="191px" height="50px" viewBox="0 0 191 50" version="1.1" xmlns="http://www.w3.org/2000/svg" xmlns:xlink="http://www.w3.org/1999/xlink">
    <!-- Generator: Sketch 3.8.3 (29802) - http://www.bohemiancoding.com/sketch -->
    <title>Group</title>
    <desc>Created with Sketch.</desc>
    <defs>
        <polygon id="path-1" points="49.7594174 0.275435789 0 0.275435789 0 49.9888149 49.7594174 49.9888149 49.7594174 0.275435789"></polygon>
        <polygon id="path-3" points="131.907121 13.7744923 131.907121 0.346082041 0.280564122 0.346082041 0.280564122 13.7744923 131.907121 13.7744923"></polygon>
    </defs>
    <g id="Page-1" stroke="none" stroke-width="1" fill="none" fill-rule="evenodd">
        <g id="Home" transform="translate(-158.000000, -21.000000)">
            <g id="Group" transform="translate(158.000000, 21.000000)">
                <g id="Group-3" transform="translate(0.000000, 0.055617)">
                    <mask id="mask-2" fill="white">
                        <use xlink:href="#path-1"></use>
                    </mask>
                    <g id="Clip-2"></g>
                    <path d="M24.8800235,0.275303368 C38.6207998,0.275303368 49.7594174,11.4039686 49.7594174,25.1320592 C49.7594174,38.8598186 38.6207998,49.9888149 24.8800235,49.9888149 C11.1392472,49.9888149 -3.31358551e-05,38.8598186 -3.31358551e-05,25.1320592 C-3.31358551e-05,11.4039686 11.1392472,0.275303368 24.8800235,0.275303368" id="Fill-1" fill="#02A958" mask="url(#mask-2)"></path>
                </g>
                <path d="M24.9742619,3.26636389 C30.7491786,3.26636389 35.9829869,5.48772705 39.8993136,9.13526495 C40.2548613,9.45506179 41.1081096,10.2760723 40.5739596,11.8657871 L40.065987,13.3830013 L40.053064,13.4091544 L30.460234,41.7757302 L25.6598427,27.5801934 L27.1986718,19.9113592 L19.1986824,41.7045539 L9.5041253,18.1442002 L14.0533468,18.1442002 C15.3078703,18.1216886 16.0670127,18.7526749 16.4487378,19.6935265 L19.457142,26.7234292 L18.1887015,34.6945144 L22.5964329,18.1442002 L26.767243,18.1442002 C28.0042044,18.1875681 28.8312754,18.9489892 29.0778061,20.0023986 L30.6501024,27.6523628 L34.9468287,12.5312028 C35.5243867,10.6799565 34.2549521,9.77419653 33.7039028,9.47326968 C31.1189748,8.03617021 28.1423809,7.21747705 24.9732678,7.21747705 C15.0417894,7.21747705 6.98811984,15.2647044 6.98811984,25.1873449 C6.98811984,35.1089923 15.1037534,43.1558886 24.9732678,43.1558886 C33.5236438,43.1558886 40.6051073,37.3760407 42.4733068,29.4903671 C42.8739193,27.7367813 41.5895736,26.8561813 40.9808679,26.6691365 L38.0629245,25.6852481 L45.0025666,25.6852481 C46.329989,25.8567334 46.7574415,26.8714097 46.7239743,28.0708134 C45.3117241,38.8128092 36.111554,47.1076639 24.9742619,47.1076639 C12.8587992,47.1076639 3.0330242,37.2906292 3.0330242,25.1873449 C3.0330242,13.0833986 12.8587992,3.26636389 24.9742619,3.26636389" id="Fill-4" fill="#FEFEFE"></path>
                <path d="M39.8326774,18.1131806 C40.4751816,17.8725053 41.1246444,17.6434169 41.8224855,17.4908016 C42.1813468,17.3967827 42.3457006,17.3507664 42.2297251,16.8111506 L41.8195033,15.0456469 C41.7800716,14.8536364 41.6432205,14.7453822 41.4039796,14.8658853 C40.4828029,15.4028527 39.9049136,16.6327132 39.8326774,18.1131806 M45.7706226,17.386189 C45.9432604,17.7814658 46.0854132,18.2081927 46.1901225,18.6587553 C46.7935264,21.2691053 45.9011779,23.6977074 44.1960068,24.0813974 C42.4908357,24.4657495 40.6189912,22.6605195 40.0135992,20.0501695 C39.9095526,19.5996069 39.849908,19.1543411 39.831352,18.7243037 C41.7164507,17.9920153 43.6963181,17.5460874 45.7706226,17.386189 M42.74068,14.5930979 C43.778495,14.7195601 44.8023929,15.5677169 45.500234,16.8363106 C44.8358601,16.9184116 44.1681726,16.9852843 43.5047928,17.1289611 C42.9825718,17.2193385 42.8596377,17.1081048 42.7499581,16.6085464 L42.3619372,14.9301095 C42.2810857,14.6354727 42.4308598,14.5434401 42.74068,14.5930979" id="Fill-6" fill="#FEFEFE"></path>
                <g id="Group-10" transform="translate(58.361111, 12.310345)">
                    <mask id="mask-4" fill="white">
                        <use xlink:href="#path-3"></use>
                    </mask>
                    <g id="Clip-9"></g>
                    <path d="M13.3389519,4.40594926 L10.4909456,4.40594926 C10.1207276,3.874014 9.6314293,3.45723604 9.02343222,3.15675935 C8.41543515,2.85628265 7.78186633,2.70604431 7.12234409,2.70604431 C5.97581351,2.70604431 4.98042346,3.07553912 4.13541058,3.81643534 C3.69534742,4.19775094 3.34268622,4.68087781 3.07551864,5.264672 C2.8102594,5.8488475 2.67667561,6.44179326 2.67667561,7.04274665 C2.67667561,7.57506323 2.78430598,8.1069985 2.99765837,8.63893377 C3.21215577,9.17125035 3.51062012,9.63340486 3.89228809,10.0269226 C4.80676453,10.9756358 5.91818165,11.4496111 7.22615777,11.4496111 C7.978807,11.4496111 8.70550281,11.2383622 9.40586353,10.8158645 C10.1058426,10.3941295 10.6298727,9.84160318 10.9771905,9.15942956 L5.59414555,9.15942956 L5.59414555,6.90432909 L13.9637424,6.90432909 L13.9637424,7.18154553 C13.9637424,9.03168884 13.2923884,10.5935575 11.9496805,11.8660077 C10.6065909,13.1384579 9.00892884,13.7744923 7.15707587,13.7744923 C5.28117782,13.7744923 3.66672232,13.1327381 2.31218271,11.8484672 C0.957643094,10.5645776 0.280564122,8.98593096 0.280564122,7.11252741 C0.280564122,5.22692175 0.951918075,3.63416648 2.29462598,2.33273633 C3.63771555,1.03206881 5.2468277,0.381163076 7.12234409,0.381163076 C8.45322028,0.381163076 9.70127453,0.745319477 10.8642168,1.47401359 C12.0283041,2.20232639 12.8523253,3.1800196 13.3389519,4.40594926 L13.3389519,4.40594926 Z M15.6312497,13.4621948 L15.6312497,0.6236798 L19.347169,0.6236798 C20.0998183,0.6236798 20.7276621,0.678589246 21.2310821,0.78840814 C21.7345022,0.898608349 22.2176938,1.1418877 22.6810387,1.51710226 C23.144002,1.89307944 23.5092582,2.36705473 23.7752808,2.93979077 C24.0413034,3.5125268 24.1741238,4.09365178 24.1741238,4.6831657 C24.1741238,5.1693431 24.0790885,5.67267969 23.8878728,6.19279417 C23.6966572,6.71328997 23.4481913,7.13807555 23.141712,7.46829487 C22.8344693,7.79775155 22.4871514,8.06352852 22.0993767,8.26600711 C21.7119838,8.46848569 21.292149,8.61567351 20.8402541,8.70871452 L24.3134326,13.4621948 L21.3959627,13.4621948 L18.0277429,8.53445329 L18.0277429,13.4621948 L15.6312497,13.4621948 Z M18.0277429,6.73083049 L19.3124373,6.73083049 C19.8448641,6.73083049 20.2475238,6.68736051 20.5192714,6.60080187 C20.7914006,6.51386191 21.0253631,6.38383329 21.2223038,6.21033469 C21.6161851,5.81757962 21.8127441,5.35466248 21.8127441,4.8223459 C21.8127441,4.20995304 21.581835,3.72377565 21.1181084,3.36495767 C20.7131587,3.08697859 20.2269137,2.94856103 19.6593734,2.94856103 L18.0277429,2.94856103 L18.0277429,6.73083049 Z M25.8763629,13.4621948 L25.8763629,0.6236798 L35.1146361,0.6236798 L35.1146361,2.94856103 L28.2724744,2.94856103 L28.2724744,5.89803721 L35.1146361,5.89803721 L35.1146361,8.18821872 L28.2724744,8.18821872 L28.2724744,11.1373136 L35.1146361,11.1373136 L35.1146361,13.4621948 L25.8763629,13.4621948 Z M37.5454793,13.4621948 L37.5454793,0.6236798 L46.7837525,0.6236798 L46.7837525,2.94856103 L39.9415908,2.94856103 L39.9415908,5.89803721 L46.7837525,5.89803721 L46.7837525,8.18821872 L39.9415908,8.18821872 L39.9415908,11.1373136 L46.7837525,11.1373136 L46.7837525,13.4621948 L37.5454793,13.4621948 Z M49.2149774,13.4621948 L49.2149774,0.6236798 L51.8893249,0.6236798 L57.2376381,9.99260415 L57.2376381,0.6236798 L59.6337496,0.6236798 L59.6337496,13.4621948 L56.9826839,13.4679146 L51.6114706,4.12873282 L51.6114706,13.4621948 L49.2149774,13.4621948 Z M79.4995672,4.40594926 L76.6515608,4.40594926 C76.2809612,3.874014 75.7920446,3.45723604 75.1840475,3.15675935 C74.5764321,2.85628265 73.9432449,2.70604431 73.283341,2.70604431 C72.1368105,2.70604431 71.1406571,3.07553912 70.2960259,3.81643534 C69.855581,4.19775094 69.5033015,4.68087781 69.2365156,5.264672 C68.9701113,5.8488475 68.8372909,6.44179326 68.8372909,7.04274665 C68.8372909,7.57506323 68.9445396,8.1069985 69.1582737,8.63893377 C69.372771,9.17125035 69.6712354,9.63340486 70.053285,10.0269226 C70.9673798,10.9756358 72.0787969,11.4496111 73.3871547,11.4496111 C74.1394223,11.4496111 74.8657364,11.2383622 75.5668605,10.8158645 C76.2664579,10.3941295 76.7908696,9.84160318 77.1381875,9.15942956 L71.7547608,9.15942956 L71.7547608,6.90432909 L80.1243577,6.90432909 L80.1243577,7.18154553 C80.1243577,9.03168884 79.4530037,10.5935575 78.1102958,11.8660077 C76.7672062,13.1384579 75.1695441,13.7744923 73.3173095,13.7744923 C71.4417931,13.7744923 69.8273376,13.1327381 68.4724163,11.8484672 C67.1182584,10.5645776 66.4411794,8.98593096 66.4411794,7.11252741 C66.4411794,5.22692175 67.1125334,3.63416648 68.4556229,2.33273633 C69.7983308,1.03206881 71.407443,0.381163076 73.283341,0.381163076 C74.6142172,0.381163076 75.8611265,0.745319477 77.0248321,1.47401359 C78.1889194,2.20232639 79.0133222,3.1800196 79.4995672,4.40594926 L79.4995672,4.40594926 Z M81.7914833,13.4621948 L81.7914833,0.6236798 L84.1883582,0.6236798 L84.1883582,11.1373136 L88.1122865,11.1373136 L88.1122865,13.4621948 L81.7914833,13.4621948 Z M94.8853663,0.346082041 C96.5402786,0.346082041 97.9555034,1.00308882 99.130659,2.31557713 C100.305433,3.62844675 100.893202,5.2158636 100.893202,7.07782769 C100.893202,8.92797099 100.30238,10.5008979 99.121499,11.7966083 C97.941,13.0919374 96.5288285,13.7394113 94.8853663,13.7394113 C93.2289273,13.7394113 91.8079774,13.0949879 90.6213717,11.8057598 C89.4351477,10.5153878 88.841654,8.93941046 88.841654,7.07782769 C88.841654,5.2036615 89.4263693,3.61395675 90.5954183,2.30680687 C91.7652306,0.999656984 93.1941955,0.346082041 94.8853663,0.346082041 L94.8853663,0.346082041 Z M94.8853663,2.67096327 C93.7964675,2.67096327 92.8751211,3.09346096 92.1232352,3.9376937 C91.3713493,4.78192645 90.9950247,5.80537752 90.9950247,7.00804693 C90.9950247,8.22291844 91.3744026,9.26085951 92.1327769,10.1226328 C92.8911511,10.9840247 93.8079176,11.41453 94.8853663,11.41453 C95.9265565,11.41453 96.8353079,10.9805929 97.6112389,10.1138625 C98.3864065,9.24636952 98.7745628,8.21071634 98.7745628,7.00804693 C98.7745628,5.80537752 98.3982382,4.78192645 97.645589,3.9376937 C96.8933214,3.09346096 95.9727383,2.67096327 94.8853663,2.67096327 L94.8853663,2.67096327 Z M102.490482,13.4621948 L102.490482,0.6236798 L105.198798,0.6236798 C105.848397,0.6236798 106.412121,0.652659785 106.89264,0.710619757 C107.373542,0.768579728 107.827345,0.901658874 108.255577,1.10985719 C108.776935,1.38707364 109.208602,1.79203081 109.550195,2.32396607 C109.891024,2.85628265 110.06163,3.41147817 110.06163,3.98993394 C110.06163,4.52148789 109.940259,5.01033449 109.697518,5.4553298 C109.454014,5.90032511 109.101353,6.23359494 108.637626,6.45285142 C109.343712,6.67287052 109.885681,7.05456744 110.261242,7.59832349 C110.637567,8.14169822 110.825729,8.78917211 110.825729,9.54112648 C110.825729,10.8250161 110.304752,11.8427475 109.262035,12.5947018 C108.811285,12.9302596 108.250233,13.1674379 107.578498,13.3054741 C107.057521,13.4099546 106.438456,13.4621948 105.72092,13.4621948 L102.490482,13.4621948 Z M104.886594,11.1373136 L105.859465,11.1373136 C106.276247,11.1373136 106.640358,11.1083336 106.953707,11.0503736 C107.266675,10.992795 107.560941,10.8715366 107.839177,10.6865986 C108.255577,10.4086195 108.463967,9.99260415 108.463967,9.43740864 C108.463967,9.13616931 108.394886,8.88221312 108.255577,8.67363348 C108.11665,8.46543517 107.897191,8.2804971 107.595673,8.11843797 C107.433846,8.02577828 107.228127,7.96247989 106.979661,7.92778017 C106.730432,7.89269913 106.484256,7.87553993 106.241515,7.87553993 L104.886594,7.87553993 L104.886594,11.1373136 Z M104.886594,5.58535842 L105.338489,5.58535842 L105.72092,5.58535842 C105.917479,5.58535842 106.131213,5.56858053 106.362885,5.53388081 C106.594558,5.49879978 106.785773,5.44694086 106.936151,5.3771601 C107.422777,5.15790363 107.664755,4.76438593 107.664755,4.19775094 C107.664755,3.93197397 107.595673,3.70318461 107.456746,3.5125268 C107.3182,3.32148769 107.12126,3.16858013 106.867069,3.0530415 C106.785773,3.01796047 106.678143,2.99203101 106.545323,2.97525312 C106.412121,2.9577126 106.264797,2.94856103 106.102206,2.94856103 L104.886594,2.94856103 L104.886594,5.58535842 Z M111.694023,13.4621948 L117.042718,0.6236798 L118.883503,0.6236798 L124.30128,13.4621948 L121.662046,13.4621948 L120.272774,10.1306404 L115.722529,10.1306404 L114.298526,13.4621948 L111.694023,13.4621948 Z M116.590823,7.84122152 L119.334635,7.84122152 L117.980477,3.95447159 L116.590823,7.84122152 Z M125.586356,13.4621948 L125.586356,0.6236798 L127.982467,0.6236798 L127.982467,11.1373136 L131.907159,11.1373136 L131.907159,13.4621948 L125.586356,13.4621948 Z" id="Fill-8" fill="#FFFFFF" mask="url(#mask-4)"></path>
                </g>
                <path d="M60.2006853,33.4873904 C60.0735899,33.1121759 59.9484028,32.8807173 59.8224523,32.7964466 C59.7728355,32.7644161 59.7010819,32.7411558 59.6068099,32.7297163 C59.5362014,32.7171329 59.4709361,32.7110319 59.4110143,32.7110319 C59.3007122,32.7110319 59.2453704,32.6801453 59.2453704,32.6202788 C59.2453704,32.5630814 59.3197956,32.5344828 59.4709361,32.5344828 C59.6854335,32.5344828 59.9407694,32.5375333 60.2365621,32.544397 C60.2831256,32.550498 60.3327424,32.5539299 60.3877026,32.5539299 L60.799904,32.5630814 C60.806774,32.557743 60.813644,32.5539299 60.8205141,32.5539299 L60.9147861,32.5539299 C60.9628762,32.5539299 61.0060047,32.550498 61.0456982,32.544397 C61.3151558,32.5375333 61.5693466,32.5344828 61.8117058,32.5344828 C61.9555946,32.5344828 62.0273482,32.5630814 62.0273482,32.6202788 C62.0273482,32.6801453 61.9658996,32.7110319 61.8407125,32.7110319 C61.7170521,32.7110319 61.6311768,32.7236153 61.5846133,32.7480195 C61.5075164,32.78005 61.4682046,32.8517373 61.4682046,32.9619375 C61.4682046,33.0122712 61.4937764,33.123234 61.5433932,33.2933008 L61.6945337,33.8534534 C61.7391889,34.0017852 61.8246825,34.2820522 61.9575029,34.6912038 L62.354056,35.9529771 C62.6738937,36.9421098 62.8944978,37.6178011 63.0185399,37.9819575 L63.0475467,37.9819575 L65.0448151,32.9241873 C65.1360338,32.6896782 65.2215274,32.573377 65.3020593,32.573377 C65.3726679,32.573377 65.4719016,32.7255219 65.6043404,33.0279051 L67.7481693,37.9106514 L67.7771761,37.9106514 C67.8180146,37.7619384 67.8966382,37.4984493 68.0141919,37.1178963 L69.1458374,33.5632723 C69.2160643,33.3485916 69.2519411,33.160603 69.2519411,33.0008317 C69.2519411,32.8063608 69.0851522,32.7110319 68.7534827,32.7110319 C68.6351657,32.7110319 68.5767705,32.6801453 68.5767705,32.6202788 C68.5767705,32.5630814 68.6573024,32.5344828 68.8191296,32.5344828 C69.0366804,32.5344828 69.2729328,32.5375333 69.5282687,32.544397 C69.5610922,32.550498 69.6019306,32.5539299 69.6484941,32.5539299 L70.0007737,32.5630814 C70.014132,32.557743 70.0316888,32.5539299 70.0519172,32.5539299 L70.7457895,32.5344828 C70.8660149,32.5344828 70.9259368,32.5600309 70.9259368,32.6103646 C70.9259368,32.6770948 70.879755,32.7110319 70.785483,32.7110319 C70.6408308,32.7110319 70.5206054,32.7274285 70.4232801,32.7575524 C70.3129781,32.7964466 70.2133627,32.9100786 70.1259608,33.0988299 C70.0897023,33.1686106 70.0454288,33.2704219 69.990087,33.4061702 L69.8442898,33.7867232 C69.7378044,34.071566 69.5866639,34.4761418 69.3923949,35.0000694 C69.227896,35.4450648 69.0404971,35.9724242 68.8298163,36.5825292 L67.7870995,39.5548843 C67.6840491,39.8591742 67.5825254,40.0113191 67.4852001,40.0113191 C67.4107748,40.0113191 67.3061978,39.8507852 67.169179,39.5320054 L65.0257317,34.6687062 L65.0051216,34.6687062 L64.1001869,36.9337209 L63.4704348,38.436867 C63.255174,38.9348651 63.0979268,39.2883447 62.9925865,39.4931112 C62.8227442,39.8378205 62.6987021,40.0113191 62.6254219,40.0113191 C62.5548133,40.0113191 62.4761897,39.8896794 62.3899327,39.6502132 L60.2006853,33.4873904 Z M70.5740389,34.7769998 C70.5740389,34.5619378 70.5702223,34.3933963 70.5641156,34.2706127 C70.5503755,34.0387728 70.4194634,33.890441 70.1725242,33.8244734 L70.0210021,33.8061703 C69.9511568,33.7996879 69.8820749,33.7966374 69.815283,33.7966374 C69.7099427,33.7966374 69.6584175,33.7672761 69.6584175,33.7104601 C69.6584175,33.6578385 69.7278811,33.6300025 69.8648999,33.6300025 L70.9259368,33.6490683 L73.6479927,33.6490683 C73.6895946,33.6490683 73.7285247,33.6456364 73.7682182,33.6395354 L74.0254624,33.6025478 C74.0395841,33.6025478 74.0632475,33.5960654 74.1010326,33.5831007 C74.1338561,33.5697546 74.1579011,33.5632723 74.1716412,33.5632723 C74.2113347,33.5632723 74.2319447,33.5892017 74.2319447,33.6395354 L74.2113347,33.7402027 C74.2113347,33.7577432 74.207518,33.7741398 74.2010296,33.7867232 C74.1823279,33.8965421 74.1685879,34.0261894 74.1617178,34.1752838 L74.1220244,34.601976 C74.1220244,34.6622238 74.1185893,34.7014993 74.1113377,34.7201838 L74.1010326,34.757934 C74.0941626,34.7769998 74.0872926,34.7899645 74.0811859,34.7964469 C74.0632475,34.8341972 74.0395841,34.8528816 74.0048523,34.8528816 C73.9590521,34.8528816 73.9342437,34.8189445 73.9342437,34.7499264 C73.9342437,34.7014993 73.9311904,34.6553601 73.9243204,34.6118902 C73.910962,34.5485918 73.8953136,34.4921571 73.8747035,34.4448739 C73.8319567,34.3564087 73.7781415,34.2915851 73.717838,34.2511656 C73.6273827,34.2008319 73.4792955,34.1649883 73.2754848,34.1474478 C73.2426614,34.1413467 73.1564044,34.1379149 73.0193856,34.1379149 L72.5762691,34.1184678 L71.8514816,34.1085536 C71.8125515,34.1085536 71.7915598,34.134483 71.7915598,34.1844354 L71.7915598,36.2233299 C71.7915598,36.2831964 71.8125515,36.3125577 71.8514816,36.3125577 L72.6468777,36.3125577 C72.8445817,36.3125577 73.0056456,36.3076006 73.1289243,36.299593 C73.2873165,36.299593 73.3918935,36.2965425 73.4415104,36.2900601 C73.6670761,36.270613 73.810965,36.2298123 73.8747035,36.1668952 L73.9552355,36.085675 C73.9808072,36.0669905 74.0017989,36.056695 74.015539,36.056695 C74.0651558,36.056695 74.0911093,36.0875815 74.0911093,36.1474481 L73.9846239,37.0664187 L73.9758455,37.2990212 C73.9758455,37.3463043 73.9720288,37.3851985 73.9659222,37.417229 C73.9449304,37.4614617 73.9174503,37.4839593 73.8853902,37.4839593 C73.82814,37.4839593 73.7991333,37.4614617 73.7991333,37.417229 L73.7682182,37.1178963 C73.7079146,36.9287638 73.5415074,36.8219954 73.2647981,36.7960659 C73.2251046,36.7899649 73.139611,36.786533 73.0094622,36.786533 L72.5762691,36.7686112 L71.8415583,36.7590783 C71.8087348,36.7590783 71.7915598,36.786533 71.7915598,36.8433491 L71.7915598,38.7262855 C71.7988114,39.0065525 71.8911751,39.1926345 72.0678874,39.2795745 C72.2258979,39.3718528 72.5438273,39.4172294 73.0193856,39.4172294 C73.1842662,39.4172294 73.3285367,39.410747 73.4521971,39.3996889 C73.629291,39.3863428 73.7693632,39.3554563 73.8747035,39.3089358 C74.0720259,39.2265716 74.2010296,39.0229491 74.2628598,38.6973055 C74.2849966,38.6149414 74.3208734,38.5745219 74.3674369,38.5745219 C74.401787,38.5745219 74.4239237,38.5966382 74.4376638,38.6404895 C74.4445338,38.6645124 74.4483505,38.708745 74.4483505,38.7682302 C74.4483505,39.1095077 74.4067487,39.4126536 74.3281251,39.6780493 C74.2830882,39.82028 74.1220244,39.8919673 73.8388267,39.8919673 C73.1754878,39.8919673 72.6193976,39.8816718 72.1743727,39.8641313 L70.9366235,39.8446842 L70.604954,39.8542171 C70.3167947,39.8671818 70.107259,39.8736642 69.9752019,39.8736642 C69.8618465,39.8736642 69.804978,39.8446842 69.804978,39.7874868 C69.804978,39.7276203 69.8511598,39.6967337 69.9454318,39.6967337 C70.0763439,39.6967337 70.1847376,39.6875821 70.2671779,39.6700416 C70.4110667,39.6372485 70.500377,39.4919672 70.5343455,39.2330539 C70.5534289,39.0774772 70.5671689,38.8349605 70.5740389,38.5032159 L70.5740389,34.7769998 Z M80.7504519,34.1379149 L79.4027823,34.1649883 C78.9333307,34.1722333 78.6417364,34.2561227 78.5279994,34.4166566 C78.4833442,34.4711847 78.4493758,34.5260942 78.421514,34.5825289 C78.4085373,34.601976 78.3978506,34.6233296 78.3909806,34.6492591 L78.3718972,34.7014993 C78.3512871,34.7705175 78.3154103,34.8063611 78.2654118,34.8063611 C78.2119783,34.8063611 78.1848799,34.759078 78.1848799,34.6687062 C78.1848799,34.635913 78.1951849,34.5680389 78.2154133,34.4650837 C78.2291533,34.3758558 78.2486184,34.2706127 78.2757168,34.1474478 L78.3822022,33.6685154 C78.4009039,33.5667041 78.4356357,33.5163704 78.4821992,33.5163704 L78.7344817,33.5831007 C78.7802819,33.5960654 78.8268454,33.6055983 78.8753172,33.6105554 C79.115768,33.6364848 79.4176674,33.6490683 79.780252,33.6490683 L83.4633478,33.6490683 C83.5904433,33.6490683 83.712577,33.6456364 83.8289857,33.6395354 C83.9133344,33.6326717 83.9957746,33.6231388 84.0763066,33.6105554 L84.3274441,33.5728051 C84.3751526,33.5728051 84.397671,33.6315277 84.397671,33.7482103 L84.3789693,34.7499264 C84.3652292,34.8364851 84.3354591,34.8818616 84.2927123,34.8818616 C84.2324088,34.8818616 84.1984403,34.8269522 84.1911886,34.7201838 L84.1824103,34.629812 C84.1694336,34.5001647 84.0900466,34.3983534 83.9457761,34.3220903 C83.7602855,34.2172285 83.4820496,34.1619378 83.1095416,34.1558367 L81.9675911,34.1379149 L81.9675911,37.4736638 C81.9675911,37.8950175 81.9714078,38.2378202 81.9775144,38.5032159 C81.9851478,38.8284781 81.9988878,39.0744267 82.0191162,39.2422055 C82.0519397,39.5015001 82.1691118,39.6433495 82.3664341,39.6700416 C82.4897129,39.6875821 82.645815,39.6967337 82.833214,39.6967337 C82.9278677,39.6967337 82.9736678,39.7276203 82.9736678,39.7874868 C82.9736678,39.8446842 82.9175626,39.8736642 82.8038256,39.8736642 L81.1229599,39.8446842 C81.0802131,39.8507852 81.0286879,39.8542171 80.966476,39.8542171 L80.1527599,39.8736642 C80.0344428,39.8736642 79.9760476,39.8446842 79.9760476,39.7874868 C79.9760476,39.7276203 80.0256645,39.6967337 80.1218448,39.6967337 C80.2661153,39.6967337 80.3741273,39.6875821 80.4447359,39.6700416 C80.5890064,39.6372485 80.6764083,39.4919672 80.7107585,39.2330539 C80.7309869,39.0774772 80.7447269,38.8349605 80.7504519,38.5032159 L80.7504519,34.1379149 Z M86.06327,34.7769998 C86.06327,34.5619378 86.059835,34.3933963 86.0525833,34.2706127 C86.0407516,34.0387728 85.9086945,33.890441 85.6613737,33.8244734 L85.5102331,33.8061703 C85.4400062,33.7996879 85.371306,33.7966374 85.3045141,33.7966374 C85.1995554,33.7966374 85.1476486,33.7672761 85.1476486,33.7104601 C85.1476486,33.6578385 85.2163488,33.6300025 85.3541309,33.6300025 L86.8998862,33.6490683 C86.9884332,33.6425859 87.1262153,33.6395354 87.3113243,33.6395354 L88.0002349,33.6300025 C88.3521328,33.6300025 88.6509788,33.6509748 88.8971547,33.691013 C89.2280608,33.7482103 89.5024801,33.8450645 89.7207941,33.9808128 C89.8791863,34.0845307 90.0165868,34.2237109 90.1329955,34.3983534 C90.2845177,34.6252362 90.3593246,34.8662277 90.3593246,35.1182773 C90.3593246,35.6990209 89.9410166,36.3076006 89.1028737,36.9432538 L89.4047731,37.2803367 C89.5078234,37.4092214 89.6005687,37.5178964 89.681864,37.6014045 L90.2001691,38.1943502 C90.5558836,38.5966382 90.852058,38.9089357 91.0951805,39.1342932 C91.3127312,39.3409663 91.5192136,39.4881541 91.7131009,39.5743314 C91.7802745,39.6063619 91.8482114,39.6307661 91.91882,39.6502132 L92.1768275,39.6967337 L92.2779695,39.6967337 C92.3535398,39.6967337 92.3924699,39.7276203 92.3924699,39.7874868 C92.3924699,39.8446842 92.3340747,39.8736642 92.2157576,39.8736642 L91.3505164,39.8736642 C90.9177049,39.8736642 90.5883254,39.8168481 90.3593246,39.7070292 C90.1757424,39.6246651 89.9856717,39.4786212 89.7860594,39.2700416 C89.6261405,39.1095077 89.4066814,38.8505944 89.1284455,38.493683 C89.0440968,38.3979728 88.9528782,38.2828155 88.8555529,38.1470671 L88.403658,37.5354369 C88.3418278,37.4519288 88.299081,37.3947314 88.2716009,37.3707085 C88.2288541,37.3287638 88.1738939,37.3093167 88.1067203,37.3093167 L87.2910959,37.2894883 C87.2445324,37.2894883 87.2204873,37.3135112 87.2204873,37.3611757 L87.2204873,37.4736638 C87.2204873,37.8950175 87.2239223,38.2408708 87.231174,38.5131301 C87.2376624,38.8311473 87.2514024,39.0706135 87.2704858,39.2330539 C87.3048359,39.4980683 87.4212446,39.6433495 87.6239103,39.6700416 C87.7578758,39.6875821 87.905963,39.6967337 88.0658818,39.6967337 C88.1395438,39.6967337 88.1769472,39.7276203 88.1769472,39.7874868 C88.1769472,39.8446842 88.1154987,39.8736642 87.9903116,39.8736642 L86.3861611,39.8446842 C86.351811,39.8507852 86.3067742,39.8542171 86.2502873,39.8542171 L85.465578,39.8736642 C85.3503143,39.8736642 85.2938274,39.8446842 85.2938274,39.7874868 C85.2938274,39.7276203 85.3403909,39.6967337 85.4346629,39.6967337 C85.565575,39.6967337 85.6732054,39.6875821 85.757554,39.6700416 C85.9018245,39.6372485 85.9892264,39.4919672 86.0239582,39.2330539 C86.0445683,39.0774772 86.0564,38.8349605 86.06327,38.5032159 L86.06327,34.7769998 Z M87.2204873,36.658411 C87.2204873,36.7312423 87.2475857,36.7796694 87.3010192,36.8055988 C87.4731515,36.8559325 87.7013889,36.8818619 87.9903116,36.8818619 C88.2853409,36.8818619 88.49793,36.838392 88.6288421,36.7491641 C88.793341,36.6389639 88.9273064,36.4971145 89.0322651,36.3220906 C89.1563072,36.1020715 89.2177558,35.8347693 89.2177558,35.526285 C89.2177558,35.0080771 89.0582186,34.6164659 88.7353275,34.3499263 C88.4811366,34.1543114 88.1822906,34.057076 87.8403161,34.057076 C87.5781102,34.057076 87.3994896,34.0681341 87.3010192,34.0894878 C87.2475857,34.1085536 87.2204873,34.1474478 87.2204873,34.2042638 L87.2204873,36.658411 Z M92.5729989,34.7769998 C92.5729989,34.5619378 92.5691822,34.3933963 92.5630755,34.2706127 C92.5493354,34.0387728 92.4184233,33.890441 92.1714842,33.8244734 L92.019962,33.8061703 C91.9501167,33.7996879 91.8810348,33.7966374 91.8142429,33.7966374 C91.7092842,33.7966374 91.6577591,33.7672761 91.6577591,33.7104601 C91.6577591,33.6578385 91.726841,33.6300025 91.8638598,33.6300025 L92.9248967,33.6490683 L95.6469527,33.6490683 C95.6885545,33.6490683 95.7274846,33.6456364 95.7671781,33.6395354 L96.0248039,33.6025478 C96.038544,33.6025478 96.0622074,33.5960654 96.0999925,33.5831007 C96.132816,33.5697546 96.1568611,33.5632723 96.1706011,33.5632723 C96.2102946,33.5632723 96.2309046,33.5892017 96.2309046,33.6395354 L96.2102946,33.7402027 C96.2102946,33.7577432 96.2064779,33.7741398 96.1996079,33.7867232 C96.1812878,33.8965421 96.1675478,34.0261894 96.1606777,34.1752838 L96.1209843,34.601976 C96.1209843,34.6622238 96.1171676,34.7014993 96.1102976,34.7201838 L96.0999925,34.757934 C96.0938858,34.7769998 96.0862525,34.7899645 96.0801458,34.7964469 C96.0622074,34.8341972 96.038544,34.8528816 96.0038122,34.8528816 C95.958012,34.8528816 95.9335853,34.8189445 95.9335853,34.7499264 C95.9335853,34.7014993 95.9301503,34.6553601 95.9232803,34.6118902 C95.9095402,34.5485918 95.8942735,34.4921571 95.8736634,34.4448739 C95.8309166,34.3564087 95.7774831,34.2915851 95.7167979,34.2511656 C95.6263426,34.2008319 95.4790187,34.1649883 95.2744447,34.1474478 C95.2420029,34.1413467 95.155746,34.1379149 95.0183455,34.1379149 L94.5756107,34.1184678 L93.8512049,34.1085536 C93.8115114,34.1085536 93.7909013,34.134483 93.7909013,34.1844354 L93.7909013,36.2233299 C93.7909013,36.2831964 93.8115114,36.3125577 93.8512049,36.3125577 L94.6458376,36.3125577 C94.8435416,36.3125577 95.0046055,36.3076006 95.1278842,36.299593 C95.2866581,36.299593 95.3908534,36.2965425 95.4408519,36.2900601 C95.6652727,36.270613 95.8099249,36.2298123 95.8736634,36.1668952 L95.9541954,36.085675 C95.9797671,36.0669905 96.0007589,36.056695 96.0144989,36.056695 C96.0641157,36.056695 96.0900692,36.0875815 96.0900692,36.1474481 L95.9832021,37.0664187 L95.9748054,37.2990212 C95.9748054,37.3463043 95.9713704,37.3851985 95.9641187,37.417229 C95.9438903,37.4614617 95.9164102,37.4839593 95.8835868,37.4839593 C95.8270999,37.4839593 95.7980932,37.4614617 95.7980932,37.417229 L95.7671781,37.1178963 C95.7068745,36.9287638 95.540849,36.8219954 95.263758,36.7960659 C95.2240645,36.7899649 95.1385709,36.786533 95.0076588,36.786533 L94.5756107,36.7686112 L93.8405182,36.7590783 C93.8076947,36.7590783 93.7909013,36.786533 93.7909013,36.8433491 L93.7909013,38.7262855 C93.7977714,39.0065525 93.890135,39.1926345 94.0668473,39.2795745 C94.2248578,39.3718528 94.5427872,39.4172294 95.0183455,39.4172294 C95.1832261,39.4172294 95.3274966,39.410747 95.4515387,39.3996889 C95.6282509,39.3863428 95.7687047,39.3554563 95.8736634,39.3089358 C96.0706041,39.2265716 96.1996079,39.0229491 96.2618197,38.6973055 C96.2839565,38.6149414 96.3198333,38.5745219 96.3663968,38.5745219 C96.4007469,38.5745219 96.4228836,38.5966382 96.4370053,38.6404895 C96.4438754,38.6645124 96.4473104,38.708745 96.4473104,38.7682302 C96.4473104,39.1095077 96.4060902,39.4126536 96.3267033,39.6780493 C96.2820481,39.82028 96.1209843,39.8919673 95.8370233,39.8919673 C95.1744477,39.8919673 94.6183575,39.8816718 94.1733326,39.8641313 L92.9355834,39.8446842 L92.603914,39.8542171 C92.3157546,39.8671818 92.1062189,39.8736642 91.9741618,39.8736642 C91.8608064,39.8736642 91.8035562,39.8446842 91.8035562,39.7874868 C91.8035562,39.7276203 91.8501197,39.6967337 91.9443917,39.6967337 C92.0749222,39.6967337 92.1836975,39.6875821 92.2661378,39.6700416 C92.4100266,39.6372485 92.4997186,39.4919672 92.5333054,39.2330539 C92.5523888,39.0774772 92.5661288,38.8349605 92.5729989,38.5032159 L92.5729989,34.7769998 Z M99.4552356,37.7962568 C99.4143971,37.7962568 99.3888254,37.8157039 99.3747037,37.8542167 L98.8922754,38.9627012 C98.8014384,39.1548843 98.7567832,39.3234257 98.7567832,39.4656565 C98.7567832,39.619708 98.8770086,39.6967337 99.1174595,39.6967337 L99.2495166,39.6967337 C99.3388269,39.6967337 99.3853904,39.7276203 99.3853904,39.7874868 C99.3853904,39.8446842 99.3353919,39.8736642 99.2395932,39.8736642 L98.9922724,39.8736642 L98.4701506,39.8446842 L97.8503218,39.8542171 C97.5957493,39.8671818 97.3724735,39.8736642 97.1824029,39.8736642 C97.0705742,39.8736642 97.0152323,39.8446842 97.0152323,39.7874868 C97.0152323,39.7276203 97.0484374,39.6967337 97.1152293,39.6967337 L97.3881219,39.6875821 C97.6884946,39.6433495 97.9396321,39.4027394 98.1369545,38.9627012 L100.506731,33.7672761 C100.604438,33.5457317 100.693748,33.4359128 100.777333,33.4359128 C100.865499,33.4359128 100.954809,33.5243781 101.046028,33.7013085 L102.774602,37.525904 C103.030701,38.0887258 103.223443,38.5100796 103.353592,38.7876773 C103.511603,39.1167527 103.662743,39.3512618 103.806632,39.4931112 C103.908156,39.5918719 104.013114,39.6502132 104.124562,39.6700416 C104.262344,39.6875821 104.375699,39.6967337 104.466918,39.6967337 C104.54745,39.6967337 104.58638,39.7276203 104.58638,39.7874868 C104.58638,39.8187547 104.562335,39.840871 104.516535,39.8542171 C104.469971,39.8671818 104.361577,39.8736642 104.19517,39.8736642 L102.394079,39.8542171 L102.342554,39.8446842 C102.30973,39.8446842 102.280342,39.840871 102.258205,39.8343887 C102.210115,39.8282876 102.187597,39.811891 102.187597,39.7874868 C102.187597,39.734484 102.225382,39.7035974 102.30286,39.6967337 C102.336829,39.6906327 102.362782,39.6730922 102.383392,39.6410616 C102.404002,39.6033114 102.404002,39.5598414 102.383392,39.5125583 L101.68494,37.8542167 C101.6712,37.8157039 101.638376,37.7962568 101.58876,37.7962568 L99.4552356,37.7962568 Z M101.392201,37.3413472 C101.435711,37.3413472 101.450977,37.3238067 101.437619,37.2894883 L100.571614,35.1651791 C100.571614,35.1590781 100.567798,35.1541209 100.561691,35.1476386 C100.551386,35.1274289 100.544516,35.1182773 100.537646,35.1182773 C100.523906,35.1182773 100.513219,35.1274289 100.506731,35.1476386 C100.499861,35.1541209 100.496044,35.1590781 100.496044,35.1651791 L99.6121012,37.2803367 C99.5911094,37.3203749 99.6014144,37.3413472 99.6411079,37.3413472 L101.392201,37.3413472 Z M106.548916,39.9823391 C106.253887,39.9823391 105.991681,39.964036 105.76497,39.9300989 C105.488261,39.8973057 105.259642,39.8446842 105.074151,39.7684211 C104.957743,39.7215192 104.899347,39.625809 104.899347,39.4835783 C104.899347,39.2974963 104.906218,39.0744267 104.918049,38.8155134 C104.924919,38.7712808 104.927973,38.7262855 104.927973,38.6778584 L104.948964,38.3899652 C104.948964,38.2477344 104.986749,38.1760471 105.063846,38.1760471 C105.098578,38.1760471 105.125677,38.1924437 105.144378,38.2233302 C105.15163,38.2427773 105.154683,38.2698507 105.154683,38.3087449 C105.154683,38.4383922 105.184072,38.5821482 105.24094,38.7392502 C105.328342,39.024093 105.52223,39.2372484 105.824892,39.3798605 C106.072213,39.4969243 106.356937,39.5548843 106.679829,39.5548843 C107.517971,39.5548843 107.936661,39.204074 107.936661,38.5032159 C107.936661,38.2912044 107.888571,38.1081729 107.790482,37.9529775 C107.65728,37.7440165 107.408051,37.540394 107.04165,37.3413472 L106.518383,37.0469716 C105.994735,36.7632728 105.624135,36.4692785 105.402386,36.1668952 C105.198194,35.8820524 105.094761,35.5518331 105.094761,35.1754746 C105.094761,34.6831962 105.318419,34.2790016 105.76497,33.9613657 C106.1974,33.6654648 106.736697,33.5163704 107.384006,33.5163704 C107.648502,33.5163704 107.905746,33.532767 108.153067,33.5632723 C108.353824,33.5831007 108.527483,33.6105554 108.671754,33.6490683 C108.752667,33.6715659 108.791979,33.7074096 108.791979,33.7577432 L108.762972,34.7499264 C108.762972,34.9226624 108.723279,35.0099837 108.6458,35.0099837 C108.585878,35.0099837 108.556872,34.95965 108.556872,34.8627958 C108.556872,34.8364851 108.553437,34.8094116 108.546185,34.7769998 C108.539315,34.7335298 108.529392,34.6862467 108.515651,34.6397262 C108.46947,34.5165613 108.404204,34.4116995 108.319856,34.3220903 C108.228637,34.2172285 108.118335,34.1329578 107.988186,34.0662275 C107.796207,33.9777623 107.569115,33.933911 107.308436,33.933911 C106.96608,33.933911 106.67792,34.0116994 106.442813,34.1649883 C106.195492,34.3274287 106.070305,34.544016 106.070305,34.815894 C106.070305,35.0183726 106.1287,35.1930151 106.247017,35.3413469 C106.384799,35.5148455 106.645478,35.7020715 107.031726,35.9045501 L107.404234,36.0959705 C107.974446,36.3949219 108.385121,36.7117952 108.635495,37.0469716 C108.857244,37.3512614 108.968691,37.7009279 108.968691,38.0955895 C108.968691,38.7251416 108.66641,39.239155 108.062612,39.6410616 C107.867961,39.7699463 107.62064,39.8641313 107.318741,39.920566 C107.100427,39.9609854 106.844709,39.9823391 106.548916,39.9823391 L106.548916,39.9823391 Z M110.734287,36.0197074 C110.734287,34.9390589 110.730471,34.3548834 110.724364,34.2706127 C110.710242,34.0387728 110.579712,33.890441 110.330864,33.8244734 L110.18125,33.8061703 C110.115604,33.7996879 110.051102,33.7966374 109.983546,33.7966374 C109.880496,33.7966374 109.827444,33.7672761 109.827444,33.7104601 C109.827444,33.6578385 109.894236,33.6300025 110.025148,33.6300025 L111.610215,33.6490683 L112.549119,33.6300025 C112.681176,33.6300025 112.746823,33.6578385 112.746823,33.7104601 C112.746823,33.7672761 112.696824,33.7966374 112.600644,33.7966374 C112.537287,33.7966374 112.447595,33.8061703 112.333094,33.8244734 C112.131955,33.856504 112.022417,34.0055984 112.001425,34.2706127 L111.980815,34.7769998 L111.980815,37.1766189 C111.980815,37.7440165 112.040737,38.1878679 112.157527,38.5032159 C112.260959,38.7750939 112.43271,39.0004514 112.671252,39.1762379 C112.847965,39.3119863 113.05063,39.4057899 113.278868,39.4561236 C113.370086,39.4736641 113.462832,39.4870101 113.555959,39.4931112 C113.607102,39.4995936 113.651376,39.5034067 113.691069,39.5034067 L113.818165,39.5034067 C114.036479,39.5034067 114.240671,39.4725201 114.431123,39.4076965 C114.666612,39.3367718 114.865843,39.2216145 115.030342,39.067563 C115.259343,38.866991 115.408575,38.5840548 115.482237,38.2137973 C115.51277,38.0586019 115.53567,37.8767144 115.54941,37.6681347 C115.554372,37.5198029 115.557807,37.3154178 115.557807,37.0568858 L115.557807,36.0197074 C115.557807,35.4633679 115.554372,35.0488778 115.54941,34.7769998 L115.538724,34.2706127 C115.52193,34.0387728 115.394453,33.890441 115.156292,33.8244734 L114.999427,33.8061703 C114.939505,33.7996879 114.88111,33.7966374 114.824623,33.7966374 C114.723099,33.7966374 114.673482,33.7672761 114.673482,33.7104601 C114.673482,33.6578385 114.733404,33.6300025 114.854011,33.6300025 L115.836425,33.6490683 L116.996695,33.6300025 C117.121882,33.6300025 117.184094,33.6578385 117.184094,33.7104601 C117.184094,33.7672761 117.132569,33.7966374 117.032572,33.7966374 C116.969215,33.7966374 116.878378,33.8061703 116.761206,33.8244734 C116.562739,33.856504 116.454345,34.0055984 116.433353,34.2706127 L116.42343,34.7769998 C116.415797,35.0488778 116.412743,35.4633679 116.412743,36.0197074 L116.412743,36.901309 C116.412743,37.167086 116.403965,37.396638 116.383737,37.5918716 C116.360073,37.8462091 116.322288,38.0711853 116.266946,38.2698507 C116.129546,38.7506897 115.891003,39.1247603 115.54941,39.390156 C115.261251,39.6132256 114.932635,39.7749034 114.566615,39.8736642 C114.292196,39.9464954 113.979228,39.9823391 113.631529,39.9823391 L113.43497,39.9823391 C113.350621,39.9823391 113.271998,39.978526 113.198336,39.9724249 C113.00483,39.9590789 112.825446,39.9365812 112.660947,39.9011189 C112.214396,39.8187547 111.846849,39.6586022 111.55869,39.4172294 C111.297629,39.204074 111.101834,38.9398223 110.970921,38.6313379 C110.813674,38.2553607 110.734287,37.7874865 110.734287,37.2330536 L110.734287,36.0197074 Z M118.95427,34.7769998 C118.95427,34.5619378 118.951217,34.3933963 118.944347,34.2706127 C118.931752,34.0387728 118.800076,33.890441 118.552374,33.8244734 L118.401233,33.8061703 C118.330625,33.7996879 118.262306,33.7966374 118.195514,33.7966374 C118.090937,33.7966374 118.039412,33.7672761 118.039412,33.7104601 C118.039412,33.6578385 118.107349,33.6300025 118.245131,33.6300025 L119.790505,33.6490683 C119.879815,33.6425859 120.017216,33.6395354 120.202706,33.6395354 L120.891235,33.6300025 C121.243515,33.6300025 121.541979,33.6509748 121.787773,33.691013 C122.119061,33.7482103 122.393862,33.8450645 122.612176,33.9808128 C122.770187,34.0845307 122.907205,34.2237109 123.023614,34.3983534 C123.175518,34.6252362 123.251088,34.8662277 123.251088,35.1182773 C123.251088,35.6990209 122.832017,36.3076006 121.993874,36.9432538 L122.296537,37.2803367 C122.398824,37.4092214 122.491951,37.5178964 122.572483,37.6014045 L123.091169,38.1943502 C123.446502,38.5966382 123.743822,38.9089357 123.985799,39.1342932 C124.203732,39.3409663 124.410214,39.4881541 124.60372,39.5743314 C124.670511,39.6063619 124.739975,39.6307661 124.810202,39.6502132 L125.067828,39.6967337 L125.16897,39.6967337 C125.24454,39.6967337 125.284234,39.7276203 125.284234,39.7874868 C125.284234,39.8446842 125.225457,39.8736642 125.106758,39.8736642 L124.241517,39.8736642 C123.808324,39.8736642 123.479326,39.8168481 123.251088,39.7070292 C123.067124,39.6246651 122.876672,39.4786212 122.67706,39.2700416 C122.517141,39.1095077 122.297682,38.8505944 122.019446,38.493683 C121.935097,38.3979728 121.844642,38.2828155 121.746553,38.1470671 L121.29504,37.5354369 C121.232828,37.4519288 121.190081,37.3947314 121.162601,37.3707085 C121.119854,37.3287638 121.064894,37.3093167 120.997721,37.3093167 L120.182096,37.2894883 C120.135533,37.2894883 120.111488,37.3135112 120.111488,37.3611757 L120.111488,37.4736638 C120.111488,37.8950175 120.115304,38.2408708 120.122174,38.5131301 C120.129044,38.8311473 120.142403,39.0706135 120.161868,39.2330539 C120.195836,39.4980683 120.312245,39.6433495 120.515674,39.6700416 C120.649639,39.6875821 120.796963,39.6967337 120.956882,39.6967337 C121.030162,39.6967337 121.068711,39.7276203 121.068711,39.7874868 C121.068711,39.8446842 121.006499,39.8736642 120.881312,39.8736642 L119.277161,39.8446842 C119.24243,39.8507852 119.197775,39.8542171 119.142051,39.8542171 L118.356578,39.8736642 C118.241315,39.8736642 118.184828,39.8446842 118.184828,39.7874868 C118.184828,39.7276203 118.231391,39.6967337 118.325663,39.6967337 C118.456575,39.6967337 118.564969,39.6875821 118.648554,39.6700416 C118.792825,39.6372485 118.880227,39.4919672 118.914577,39.2330539 C118.935569,39.0774772 118.9474,38.8349605 118.95427,38.5032159 L118.95427,34.7769998 Z M120.111488,36.658411 C120.111488,36.7312423 120.139349,36.7796694 120.19202,36.8055988 C120.36377,36.8559325 120.592389,36.8818619 120.881312,36.8818619 C121.176341,36.8818619 121.389694,36.838392 121.519842,36.7491641 C121.684723,36.6389639 121.818688,36.4971145 121.923265,36.3220906 C122.047308,36.1020715 122.108756,35.8347693 122.108756,35.526285 C122.108756,35.0080771 121.949219,34.6164659 121.626328,34.3499263 C121.372137,34.1543114 121.072909,34.057076 120.731316,34.057076 C120.469111,34.057076 120.290108,34.0681341 120.19202,34.0894878 C120.139349,34.1085536 120.111488,34.1474478 120.111488,34.2042638 L120.111488,36.658411 Z M125.464763,34.7769998 C125.464763,34.5619378 125.460946,34.3933963 125.454076,34.2706127 C125.440336,34.0387728 125.309805,33.890441 125.062103,33.8244734 L124.911726,33.8061703 C124.841117,33.7996879 124.772035,33.7966374 124.705243,33.7966374 C124.600666,33.7966374 124.549141,33.7672761 124.549141,33.7104601 C124.549141,33.6578385 124.617841,33.6300025 124.75486,33.6300025 L125.815897,33.6490683 L128.537953,33.6490683 C128.578791,33.6490683 128.619248,33.6456364 128.658178,33.6395354 L128.915423,33.6025478 C128.929544,33.6025478 128.953971,33.5960654 128.990993,33.5831007 C129.023816,33.5697546 129.047861,33.5632723 129.062365,33.5632723 C129.101295,33.5632723 129.121523,33.5892017 129.121523,33.6395354 L129.101295,33.7402027 C129.101295,33.7577432 129.097478,33.7741398 129.09099,33.7867232 C129.071525,33.8965421 129.058548,34.0261894 129.051678,34.1752838 L129.012366,34.601976 C129.012366,34.6622238 129.00855,34.7014993 129.00168,34.7201838 L128.990993,34.757934 C128.984886,34.7769998 128.978016,34.7899645 128.971146,34.7964469 C128.953971,34.8341972 128.929544,34.8528816 128.894813,34.8528816 C128.849012,34.8528816 128.824967,34.8189445 128.824967,34.7499264 C128.824967,34.7014993 128.821914,34.6553601 128.814281,34.6118902 C128.800922,34.5485918 128.785274,34.4921571 128.764664,34.4448739 C128.721917,34.3564087 128.668865,34.2915851 128.608562,34.2511656 C128.517343,34.2008319 128.370019,34.1649883 128.165445,34.1474478 C128.133003,34.1413467 128.046746,34.1379149 127.910109,34.1379149 L127.466611,34.1184678 L126.741442,34.1085536 C126.702512,34.1085536 126.681902,34.134483 126.681902,34.1844354 L126.681902,36.2233299 C126.681902,36.2831964 126.702512,36.3125577 126.741442,36.3125577 L127.536838,36.3125577 C127.734542,36.3125577 127.895606,36.3076006 128.019648,36.299593 C128.176895,36.299593 128.281854,36.2965425 128.331471,36.2900601 C128.557036,36.270613 128.700925,36.2298123 128.764664,36.1668952 L128.845959,36.085675 C128.871531,36.0669905 128.891759,36.056695 128.905499,36.056695 C128.955116,36.056695 128.981069,36.0875815 128.981069,36.1474481 L128.874584,37.0664187 L128.865806,37.2990212 C128.865806,37.3463043 128.862752,37.3851985 128.855882,37.417229 C128.834891,37.4614617 128.807411,37.4839593 128.77535,37.4839593 C128.718482,37.4839593 128.689093,37.4614617 128.689093,37.417229 L128.658178,37.1178963 C128.597875,36.9287638 128.431849,36.8219954 128.154758,36.7960659 C128.115828,36.7899649 128.029571,36.786533 127.899422,36.786533 L127.466611,36.7686112 L126.7319,36.7590783 C126.699458,36.7590783 126.681902,36.786533 126.681902,36.8433491 L126.681902,38.7262855 C126.688772,39.0065525 126.781899,39.1926345 126.957848,39.2795745 C127.116621,39.3718528 127.434169,39.4172294 127.910109,39.4172294 C128.074226,39.4172294 128.218879,39.410747 128.342539,39.3996889 C128.519251,39.3863428 128.660087,39.3554563 128.764664,39.3089358 C128.962368,39.2265716 129.09099,39.0229491 129.15282,38.6973055 C129.174957,38.6149414 129.211215,38.5745219 129.257397,38.5745219 C129.291747,38.5745219 129.313884,38.5966382 129.327624,38.6404895 C129.334494,38.6645124 129.338311,38.708745 129.338311,38.7682302 C129.338311,39.1095077 129.297091,39.4126536 129.218085,39.6780493 C129.173048,39.82028 129.012366,39.8919673 128.728787,39.8919673 C128.066211,39.8919673 127.509739,39.8816718 127.065096,39.8641313 L125.826584,39.8446842 L125.495678,39.8542171 C125.206755,39.8671818 124.997219,39.8736642 124.865162,39.8736642 C124.751807,39.8736642 124.69532,39.8446842 124.69532,39.7874868 C124.69532,39.7276203 124.74112,39.6967337 124.836155,39.6967337 C124.966304,39.6967337 125.074698,39.6875821 125.157138,39.6700416 C125.301027,39.6372485 125.390337,39.4919672 125.424306,39.2330539 C125.443771,39.0774772 125.457129,38.8349605 125.464763,38.5032159 L125.464763,34.7769998 Z M135.42019,37.7299078 C135.42019,37.5274293 135.40187,37.3592691 135.36294,37.2231394 C135.337368,37.1312423 135.285843,37.0111279 135.212562,36.8627962 C135.201112,36.8319096 135.122107,36.7106512 134.977455,36.5032155 C134.852268,36.3087446 134.694257,36.071185 134.497698,35.7863422 L133.593527,34.4868186 C133.361854,34.1752838 133.165677,33.9808128 133.004613,33.904931 C132.867213,33.8320998 132.740881,33.7966374 132.629052,33.7966374 C132.53707,33.7966374 132.49127,33.7672761 132.49127,33.7104601 C132.49127,33.6578385 132.551573,33.6300025 132.667982,33.6300025 L133.986645,33.6490683 L134.832039,33.6300025 C134.922495,33.6300025 134.966768,33.6578385 134.966768,33.7104601 C134.966768,33.7432532 134.948448,33.7638443 134.912571,33.7764277 L134.760286,33.8141779 C134.676319,33.833625 134.63548,33.877095 134.63548,33.9438252 C134.63548,34.0067423 134.674029,34.0990207 134.750744,34.2218043 L136.147649,36.4742356 C136.196884,36.5596503 136.230853,36.614941 136.254898,36.6408705 L136.924725,35.555265 C137.101819,35.2570762 137.246471,35.0225671 137.354483,34.8528816 L137.507532,34.5825289 C137.558675,34.5096976 137.588827,34.45822 137.603331,34.4261895 C137.691496,34.2530722 137.733479,34.1074096 137.733479,33.9911084 C137.733479,33.8923476 137.669359,33.8305745 137.542645,33.8061703 L137.428145,33.7764277 C137.393795,33.7638443 137.37662,33.7432532 137.37662,33.7104601 C137.37662,33.6578385 137.428145,33.6300025 137.52776,33.6300025 L138.212854,33.6490683 L139.384193,33.6300025 C139.496022,33.6300025 139.5506,33.6540254 139.5506,33.7013085 C139.5506,33.7638443 139.492205,33.7966374 139.372743,33.7966374 C139.263968,33.7966374 139.133437,33.8286679 138.981152,33.8946355 C138.838026,33.9583152 138.680016,34.0860559 138.507502,34.2801456 C138.441473,34.357934 138.314378,34.5280007 138.126597,34.786914 C137.961717,35.0214231 137.781951,35.2898693 137.582339,35.5922526 C137.374711,35.8965424 137.195327,36.1688018 137.04495,36.408268 C136.88694,36.6664186 136.787706,36.8402985 136.748013,36.9238067 C136.691526,37.053454 136.655649,37.1953034 136.641527,37.3512614 C136.636566,37.4015951 136.632749,37.4664188 136.632749,37.5457324 L136.632749,38.7392502 L136.651832,39.2330539 C136.675496,39.4919672 136.799538,39.6372485 137.02434,39.6700416 C137.162122,39.6875821 137.313263,39.6967337 137.478143,39.6967337 C137.581194,39.6967337 137.633864,39.7276203 137.633864,39.7874868 C137.633864,39.8446842 137.568599,39.8736642 137.436542,39.8736642 L135.785828,39.8446842 C135.746898,39.8507852 135.697281,39.8542171 135.636595,39.8542171 L134.841963,39.8736642 C134.709142,39.8736642 134.644259,39.8446842 134.644259,39.7874868 C134.644259,39.7276203 134.694257,39.6967337 134.790438,39.6967337 C134.922495,39.6967337 135.027072,39.6875821 135.108367,39.6700416 C135.273248,39.6372485 135.36294,39.4919672 135.384313,39.2330539 C135.40187,39.0839595 135.412938,38.9203752 135.42019,38.7392502 L135.42019,37.7299078 Z M143.433309,39.9823391 C142.802793,39.9823391 142.239451,39.8797652 141.743283,39.6780493 C141.28948,39.4980683 140.906667,39.2422055 140.591027,38.9108423 C140.302868,38.6130348 140.081882,38.2671815 139.931505,37.8725199 C139.793723,37.5064569 139.725786,37.1312423 139.725786,36.7491641 C139.725786,36.3724243 139.793723,36.0063613 139.931505,35.6486873 C140.081882,35.2547883 140.302868,34.9051219 140.591027,34.601976 C140.913918,34.2667995 141.308945,34.0086489 141.777633,33.8244734 C142.291358,33.6181817 142.87531,33.5163704 143.529107,33.5163704 C144.668386,33.5163704 145.571031,33.7947308 146.235515,34.3499263 C146.903052,34.9062658 147.235867,35.6570762 147.235867,36.6019763 C147.235867,37.5731871 146.895419,38.3724246 146.214142,39.0015954 C145.506911,39.6555516 144.580603,39.9823391 143.433309,39.9823391 L143.433309,39.9823391 Z M143.804672,39.5320054 C144.010391,39.5320054 144.20924,39.5064572 144.404272,39.4561236 C144.666096,39.3798605 144.892425,39.2605087 145.083259,39.095399 C145.332488,38.8967336 145.521032,38.6313379 145.651563,38.299212 C145.809573,37.920947 145.888579,37.4530727 145.888579,36.901309 C145.888579,36.0097932 145.634388,35.2898693 145.124861,34.7396309 C144.632128,34.214178 144.008482,33.9518329 143.257741,33.9518329 C142.986757,33.9518329 142.727986,33.9872952 142.48868,34.057076 C142.218841,34.1474478 141.987169,34.2820522 141.787175,34.4547881 C141.559319,34.6637491 141.388332,34.9226624 141.27116,35.231528 C141.130706,35.5892021 141.063532,36.0097932 141.063532,36.4936827 C141.063532,37.368802 141.308945,38.0875819 141.798625,38.6500224 C142.298228,39.2372484 142.96691,39.5320054 143.804672,39.5320054 L143.804672,39.5320054 Z" id="Fill-11" fill="#FFFFFF"></path>
                <path d="M147.692735,35.9880547 C147.692735,34.9074063 147.688918,34.3232308 147.682048,34.2389601 C147.66869,34.0078828 147.538541,33.8587884 147.288549,33.7928208 L147.139698,33.7745177 C147.075578,33.7680353 147.009168,33.7649848 146.943139,33.7649848 C146.840089,33.7649848 146.787037,33.7356235 146.787037,33.6795701 C146.787037,33.6261859 146.853447,33.5983499 146.983596,33.5983499 L148.569426,33.6174156 L149.507948,33.5983499 C149.640768,33.5983499 149.70527,33.6261859 149.70527,33.6795701 C149.70527,33.7356235 149.655272,33.7649848 149.559855,33.7649848 C149.495735,33.7649848 149.407569,33.7745177 149.291542,33.7928208 C149.091548,33.8248513 148.980865,33.9739457 148.960636,34.2389601 L148.939263,34.7449659 L148.939263,37.1449663 C148.939263,37.7123639 148.999185,38.1562153 149.117502,38.4711819 C149.219407,38.7438226 149.391158,38.9687988 149.6297,39.1445853 C149.806412,39.2803336 150.010223,39.3741373 150.237315,39.4244709 C150.328534,39.4427741 150.421279,39.4553575 150.513643,39.4614586 C150.565168,39.4683222 150.61135,39.4717541 150.649517,39.4717541 L150.776612,39.4717541 C150.994926,39.4717541 151.199119,39.4408675 151.389571,39.3760439 C151.62506,39.3051192 151.824291,39.1899619 151.989171,39.036673 C152.217027,38.8353383 152.367404,38.5524022 152.441066,38.1821447 C152.472745,38.0269493 152.494118,37.8458244 152.507095,37.6372447 C152.51282,37.4881503 152.515873,37.2837652 152.515873,37.0252332 L152.515873,35.9880547 C152.515873,35.4317153 152.51282,35.0172252 152.507095,34.7449659 L152.498316,34.2389601 C152.479996,34.0078828 152.352901,33.8587884 152.114359,33.7928208 L151.957875,33.7745177 C151.899479,33.7680353 151.839558,33.7649848 151.783071,33.7649848 C151.68231,33.7649848 151.633075,33.7356235 151.633075,33.6795701 C151.633075,33.6261859 151.691852,33.5983499 151.812459,33.5983499 L152.794109,33.6174156 L153.955143,33.5983499 C154.08033,33.5983499 154.142542,33.6261859 154.142542,33.6795701 C154.142542,33.7356235 154.091017,33.7649848 153.991783,33.7649848 C153.928045,33.7649848 153.837971,33.7745177 153.719654,33.7928208 C153.521568,33.8248513 153.412793,33.9739457 153.393328,34.2389601 L153.381878,34.7449659 C153.375008,35.0172252 153.371191,35.4317153 153.371191,35.9880547 L153.371191,36.8696564 C153.371191,37.1354334 153.363558,37.3649854 153.342948,37.560219 C153.317758,37.8145565 153.280736,38.0395327 153.225776,38.2385794 C153.087993,38.7190371 152.849451,39.0931077 152.507095,39.3585033 C152.218936,39.581573 151.891083,39.7432508 151.525445,39.8420115 C151.250644,39.9148428 150.937676,39.9506865 150.589977,39.9506865 L150.394181,39.9506865 C150.309832,39.9506865 150.230445,39.9468733 150.156784,39.9407723 C149.962515,39.9281889 149.784276,39.9049286 149.620158,39.8694663 C149.173988,39.7871021 148.806442,39.6269495 148.51752,39.3855768 C148.256459,39.1724213 148.060281,38.9089323 147.930133,38.5996853 C147.772122,38.2244707 147.692735,37.7565965 147.692735,37.201401 L147.692735,35.9880547 Z M155.912718,34.7449659 C155.912718,34.5302852 155.910428,34.362125 155.902795,34.2389601 C155.8902,34.0078828 155.758143,33.8587884 155.511203,33.7928208 L155.360826,33.7745177 C155.289073,33.7680353 155.221136,33.7649848 155.153962,33.7649848 C155.048622,33.7649848 154.997097,33.7356235 154.997097,33.6795701 C154.997097,33.6261859 155.066942,33.5983499 155.204724,33.5983499 L156.750479,33.6174156 C156.838263,33.6109333 156.976045,33.6078827 157.161154,33.6078827 L157.850828,33.5983499 C158.201963,33.5983499 158.500809,33.6193222 158.746221,33.6593604 C159.078654,33.7165577 159.35231,33.8134119 159.570624,33.9491602 C159.728634,34.0528781 159.86718,34.1920582 159.982062,34.3667008 C160.133966,34.5935836 160.209918,34.834575 160.209918,35.0866247 C160.209918,35.6673683 159.79161,36.275948 158.953467,36.9116011 L159.254984,37.2486841 C159.357272,37.3775688 159.451162,37.4862437 159.530549,37.5705145 L160.050762,38.1626976 C160.40495,38.5657482 160.702269,38.8772831 160.94501,39.1026406 C161.162179,39.3093136 161.368662,39.4572641 161.562167,39.5426788 C161.629723,39.5754719 161.698041,39.5991135 161.76865,39.6185606 L162.025894,39.6658437 L162.127418,39.6658437 C162.204133,39.6658437 162.242681,39.6959677 162.242681,39.7562155 C162.242681,39.8130315 162.183904,39.8420115 162.065587,39.8420115 L161.200346,39.8420115 C160.767535,39.8420115 160.437774,39.7851955 160.209918,39.6753766 C160.026335,39.5930124 159.83512,39.4469686 159.635507,39.2383889 C159.477115,39.0786177 159.256129,38.8189418 158.979039,38.4620304 C158.894308,38.3663201 158.80309,38.2519255 158.705383,38.1154145 L158.253488,37.5045469 C158.192421,37.4202761 158.148529,37.3634601 158.121049,37.3390559 C158.078684,37.2971112 158.023342,37.2776641 157.957313,37.2776641 L157.141689,37.2578357 C157.09398,37.2578357 157.069935,37.2826212 157.069935,37.329523 L157.069935,37.4423924 C157.069935,37.8633649 157.073752,38.2092181 157.080622,38.4814775 C157.088255,38.8002573 157.10085,39.0397235 157.119552,39.2014013 C157.154284,39.4664157 157.271838,39.6124595 157.474122,39.6380077 C157.608087,39.6559295 157.755411,39.6658437 157.914948,39.6658437 C157.98861,39.6658437 158.027159,39.6959677 158.027159,39.7562155 C158.027159,39.8130315 157.964947,39.8420115 157.83976,39.8420115 L156.235609,39.8130315 C156.200877,39.8191326 156.156986,39.8225644 156.100117,39.8225644 L155.315026,39.8420115 C155.200907,39.8420115 155.143657,39.8130315 155.143657,39.7562155 C155.143657,39.6959677 155.190221,39.6658437 155.284111,39.6658437 C155.415023,39.6658437 155.522653,39.6559295 155.607765,39.6380077 C155.752418,39.6055959 155.839056,39.4603146 155.873788,39.2014013 C155.894016,39.0458246 155.906993,38.8033078 155.912718,38.4711819 L155.912718,34.7449659 Z M157.069935,36.627521 C157.069935,36.6995897 157.097797,36.7480167 157.151231,36.7739462 C157.323745,36.8250425 157.551219,36.8505906 157.83976,36.8505906 C158.135934,36.8505906 158.348523,36.8067393 158.479435,36.7178928 C158.643171,36.6073113 158.777136,36.4650806 158.881713,36.290438 C159.006137,36.0704189 159.067204,35.8038793 159.067204,35.4946323 C159.067204,34.9771871 158.907285,34.585576 158.585921,34.3182737 C158.330585,34.1226588 158.032884,34.0254233 157.690909,34.0254233 C157.42794,34.0254233 157.250083,34.0364815 157.151231,34.0578352 C157.097797,34.0769009 157.069935,34.1157951 157.069935,34.1726112 L157.069935,36.627521 Z M166.667358,34.1062622 L165.320833,34.1333356 C164.852145,34.1401993 164.559406,34.2244701 164.445669,34.3850039 C164.402159,34.4395321 164.367045,34.4948228 164.339183,34.5508762 C164.326588,34.571086 164.315138,34.591677 164.308268,34.6176065 L164.289567,34.6698467 C164.268575,34.7388648 164.232698,34.7747085 164.183081,34.7747085 C164.129648,34.7747085 164.102168,34.7274254 164.102168,34.6370536 C164.102168,34.6042604 164.112854,34.5363862 164.133464,34.433431 C164.146823,34.3442032 164.16667,34.2389601 164.193768,34.1157951 L164.301017,33.6368627 C164.318573,33.5350515 164.353687,33.4850991 164.399487,33.4850991 L164.651388,33.551448 C164.697951,33.5644128 164.745278,33.5739457 164.792987,33.5789028 C165.033819,33.6048322 165.335337,33.6174156 165.697158,33.6174156 L169.381017,33.6174156 C169.508113,33.6174156 169.630246,33.6147464 169.746655,33.6078827 C169.831386,33.6017817 169.913826,33.5914862 169.993976,33.5789028 L170.244732,33.5411525 C170.292822,33.5411525 170.314577,33.5998751 170.314577,33.7165577 L170.296639,34.7182738 C170.282135,34.8055951 170.254274,34.850209 170.210382,34.850209 C170.149697,34.850209 170.115728,34.7960622 170.108858,34.6892938 L170.10008,34.5981594 C170.087103,34.4685121 170.007716,34.3667008 169.863446,34.290819 C169.677955,34.1855759 169.399719,34.1302851 169.027211,34.1241841 L167.885261,34.1062622 L167.885261,37.4423924 C167.885261,37.8633649 167.889459,38.2061676 167.895184,38.4711819 C167.902054,38.7972068 167.917321,39.042774 167.936786,39.2105529 C167.969991,39.4702288 168.086018,39.6124595 168.284867,39.6380077 C168.407382,39.6559295 168.563485,39.6658437 168.750883,39.6658437 C168.844774,39.6658437 168.891337,39.6959677 168.891337,39.7562155 C168.891337,39.8130315 168.835995,39.8420115 168.721495,39.8420115 L167.039866,39.8130315 C166.997883,39.8191326 166.946739,39.8225644 166.884145,39.8225644 L166.070429,39.8420115 C165.952494,39.8420115 165.893335,39.8130315 165.893335,39.7562155 C165.893335,39.6959677 165.943334,39.6658437 166.038751,39.6658437 C166.183785,39.6658437 166.29256,39.6559295 166.362405,39.6380077 C166.505913,39.6055959 166.594078,39.4603146 166.628428,39.2014013 C166.648656,39.0458246 166.662396,38.8033078 166.667358,38.4711819 L166.667358,34.1062622 Z M171.98552,34.7449659 C171.98552,34.5302852 171.983611,34.362125 171.975978,34.2389601 C171.957658,34.0078828 171.852699,33.8618389 171.665682,33.8019724 C171.577135,33.7775682 171.468741,33.7649848 171.336684,33.7649848 C171.240885,33.7649848 171.190505,33.7329543 171.190505,33.6696559 C171.190505,33.6223727 171.263022,33.5983499 171.407674,33.5983499 L172.851142,33.6174156 L173.787756,33.5983499 C173.911034,33.5983499 173.973246,33.6223727 173.973246,33.6696559 C173.973246,33.7329543 173.925538,33.7649848 173.828594,33.7649848 C173.754169,33.7649848 173.664859,33.7745177 173.560663,33.7928208 C173.356089,33.8248513 173.243497,33.9739457 173.218689,34.2389601 L173.198079,34.7449659 L173.198079,38.0166537 C173.198079,38.2130313 173.201895,38.3777596 173.208765,38.513508 C173.208765,38.8486844 173.220597,39.0942516 173.244642,39.2483031 C173.277466,39.4759486 173.398073,39.6055959 173.601883,39.6380077 C173.725162,39.6559295 173.879356,39.6658437 174.063702,39.6658437 C174.161409,39.6658437 174.210644,39.6959677 174.210644,39.7562155 C174.210644,39.8130315 174.151485,39.8420115 174.034313,39.8420115 L172.353066,39.8130315 C172.313754,39.8191326 172.262229,39.8225644 172.202689,39.8225644 L171.388209,39.8420115 C171.270655,39.8420115 171.211497,39.8130315 171.211497,39.7562155 C171.211497,39.6959677 171.259205,39.6658437 171.357294,39.6658437 C171.487824,39.6658437 171.593928,39.6559295 171.675223,39.6380077 C171.826746,39.6055959 171.915674,39.472898 171.946589,39.2383889 C171.967199,39.0851001 171.979794,38.842202 171.98552,38.513508 L171.98552,34.7449659 Z M176.514773,33.6273298 C176.533093,33.4850991 176.591489,33.4137931 176.689196,33.4137931 C176.777742,33.4137931 176.869724,33.503021 176.966668,33.6795701 L179.395603,38.2778549 L181.831026,33.6174156 C181.904307,33.4820486 181.983312,33.4137931 182.067661,33.4137931 C182.106591,33.4137931 182.148574,33.4381973 182.187504,33.4850991 C182.233686,33.5285691 182.260784,33.5933928 182.273761,33.6795701 L183.100836,38.7743278 C183.171826,39.257836 183.31915,39.5293327 183.541281,39.5895806 C183.655781,39.6219924 183.757686,39.6433461 183.848142,39.6559295 C183.917987,39.6620306 183.987832,39.6658437 184.054242,39.6658437 C184.152331,39.6658437 184.201184,39.6936798 184.201184,39.7470639 C184.201184,39.809981 184.122179,39.8420115 183.964169,39.8420115 C183.434795,39.8420115 182.810005,39.8225644 182.088271,39.7840516 C181.983312,39.7790945 181.911558,39.7657484 181.871865,39.7470639 C181.838278,39.7337179 181.82034,39.7123642 181.82034,39.6852908 C181.82034,39.6463966 181.85469,39.6185606 181.922245,39.5991135 C181.974152,39.5796664 181.988655,39.4633651 181.961175,39.2483031 L181.457755,35.6788078 L181.428748,35.6788078 L179.482623,39.3680362 C179.37881,39.567083 179.306293,39.6936798 179.265454,39.7470639 C179.216219,39.8031173 179.166602,39.8324786 179.118894,39.8324786 C179.03569,39.8324786 178.914701,39.6936798 178.757073,39.4149381 L177.891068,37.8789988 C177.799086,37.7043563 177.738782,37.5930121 177.716264,37.5426784 L177.348718,36.8116964 C177.1617,36.4425829 176.981172,36.0963484 176.809421,35.7741367 L176.781178,35.7741367 L176.347603,38.9977788 C176.327374,39.1396282 176.316688,39.2692755 176.316688,39.3855768 C176.316688,39.5148427 176.410578,39.596063 176.59416,39.6288561 C176.731942,39.6524977 176.838428,39.6658437 176.915525,39.6658437 C177.01056,39.6658437 177.056742,39.6936798 177.056742,39.7470639 C177.056742,39.809981 176.984988,39.8420115 176.840336,39.8420115 L175.708691,39.8130315 C175.681592,39.8191326 175.645334,39.8225644 175.598007,39.8225644 L174.989628,39.8420115 C174.877418,39.8420115 174.822839,39.809981 174.822839,39.7470639 C174.822839,39.6936798 174.870548,39.6658437 174.9694,39.6658437 L175.080083,39.6658437 L175.244964,39.6463966 C175.357174,39.6349572 175.444958,39.5602193 175.512895,39.4244709 C175.556023,39.3257102 175.590373,39.1899619 175.618235,39.0172259 L176.514773,33.6273298 Z M185.125584,34.7449659 C185.125584,34.5302852 185.122531,34.362125 185.116424,34.2389601 C185.101921,34.0078828 184.97139,33.8587884 184.724833,33.7928208 L184.572547,33.7745177 C184.502702,33.7680353 184.434765,33.7649848 184.366828,33.7649848 C184.262251,33.7649848 184.210726,33.7356235 184.210726,33.6795701 C184.210726,33.6261859 184.279808,33.5983499 184.416445,33.5983499 L185.478245,33.6174156 L188.199538,33.6174156 C188.24114,33.6174156 188.28007,33.6147464 188.319763,33.6078827 L188.578534,33.5708951 C188.591129,33.5708951 188.614793,33.5644128 188.654105,33.551448 C188.686546,33.5388646 188.710591,33.5320009 188.723186,33.5320009 C188.764025,33.5320009 188.78349,33.5575491 188.78349,33.6078827 L188.764025,33.7085501 C188.764025,33.7260906 188.760208,33.7424872 188.752957,33.7550706 C188.734637,33.8656521 188.720133,33.9952994 188.713263,34.1436312 L188.67357,34.571086 C188.67357,34.6305712 188.670516,34.6698467 188.663265,34.6892938 L188.654105,34.7262814 C188.646471,34.7449659 188.638838,34.7583119 188.633113,34.7647943 C188.614793,34.8025445 188.591129,34.8219916 188.556398,34.8219916 C188.510597,34.8219916 188.486552,34.7872919 188.486552,34.7182738 C188.486552,34.6698467 188.482736,34.6244701 188.477011,34.5806188 C188.462126,34.5177018 188.448386,34.4605044 188.426249,34.4139839 C188.383502,34.3243748 188.330068,34.2599324 188.270147,34.219513 C188.178928,34.1691793 188.030841,34.1333356 187.82703,34.1157951 C187.79497,34.1096941 187.708713,34.1062622 187.570931,34.1062622 L187.127814,34.0868151 L186.404172,34.0769009 C186.364097,34.0769009 186.343487,34.1028304 186.343487,34.1535454 L186.343487,36.1916773 C186.343487,36.2515438 186.364097,36.2809051 186.404172,36.2809051 L187.198423,36.2809051 C187.396509,36.2809051 187.558336,36.275948 187.681233,36.2679404 C187.839243,36.2679404 187.944202,36.2645085 187.993819,36.2584075 C188.218621,36.2389604 188.36251,36.1981596 188.426249,36.1352426 L188.506781,36.0540223 C188.532353,36.0353379 188.554489,36.0250423 188.567084,36.0250423 C188.616701,36.0250423 188.642655,36.0559289 188.642655,36.1157955 L188.536169,37.0347661 L188.528918,37.2681312 C188.528918,37.3146517 188.525101,37.3535459 188.517467,37.3855764 C188.496476,37.429809 188.469759,37.4523066 188.436936,37.4523066 C188.379685,37.4523066 188.350679,37.429809 188.350679,37.3855764 L188.319763,37.0870063 C188.260605,36.8971111 188.093434,36.7903428 187.817488,36.7644133 C187.777413,36.7583123 187.691156,36.7548804 187.561008,36.7548804 L187.127814,36.7369586 L186.393104,36.7274257 C186.36028,36.7274257 186.343487,36.7548804 186.343487,36.8116964 L186.343487,38.6950142 C186.350738,38.9748999 186.44272,39.1609819 186.619433,39.2483031 C186.777443,39.3409628 187.095373,39.3855768 187.570931,39.3855768 C187.735811,39.3855768 187.880082,39.3790944 188.004506,39.3680362 C188.180836,39.3546902 188.32129,39.3245663 188.426249,39.2772831 C188.623953,39.194919 188.752957,38.9912964 188.815168,38.6656529 C188.836924,38.5832887 188.872419,38.5432506 188.920127,38.5432506 C188.953714,38.5432506 188.975469,38.5657482 188.989591,38.6088369 C188.997606,38.6336224 189.000659,38.6770924 189.000659,38.7373402 C189.000659,39.0786177 188.958676,39.381001 188.880052,39.6463966 C188.835397,39.7886273 188.67357,39.8603147 188.390372,39.8603147 C187.727796,39.8603147 187.170943,39.8500192 186.725918,39.8324786 L185.488169,39.8130315 L185.156499,39.8225644 C184.86834,39.8355292 184.658804,39.8420115 184.526747,39.8420115 C184.412628,39.8420115 184.357287,39.8130315 184.357287,39.7562155 C184.357287,39.6959677 184.403468,39.6658437 184.496977,39.6658437 C184.627889,39.6658437 184.736283,39.6559295 184.818723,39.6380077 C184.963375,39.6055959 185.051922,39.4603146 185.086654,39.2014013 C185.105738,39.0458246 185.119859,38.8033078 185.125584,38.4711819 L185.125584,34.7449659 Z" id="Fill-13" fill="#FFFFFF"></path>
            </g>
        </g>
    </g>
</svg>