<svg width="191" height="50" viewBox="0 0 191 50" xmlns="http://www.w3.org/2000/svg" xmlns:xlink="http://www.w3.org/1999/xlink"><title>Group</title><defs><path id="a" d="M49.76.275H0V49.99h49.76V.275z"/><path id="c" d="M131.907 13.774V.346H.281v13.428h131.626z"/></defs><g fill="none" fill-rule="evenodd"><g transform="translate(0 .056)"><mask id="b" fill="#fff"><use xlink:href="#a"/></mask><path d="M24.88.275c13.74 0 24.88 11.129 24.88 24.857S38.62 49.99 24.88 49.99C11.14 49.989 0 38.859 0 25.132 0 11.404 11.14.275 24.88.275" fill="#02A958" mask="url(#b)"/></g><path d="M24.974 3.266A21.798 21.798 0 0 1 39.9 9.136c.356.32 1.21 1.14.675 2.73l-.508 1.517-.013.026-9.593 28.367-4.8-14.196 1.539-7.669-8 21.794-9.695-23.56h4.55c1.254-.023 2.013.608 2.395 1.549l3.008 7.03-1.268 7.97 4.407-16.55h4.171c1.237.044 2.064.805 2.31 1.858l1.573 7.65 4.297-15.12c.577-1.852-.692-2.758-1.243-3.059a17.911 17.911 0 0 0-8.73-2.256c-9.932 0-17.986 8.048-17.986 17.97 0 9.922 8.116 17.969 17.985 17.969 8.55 0 15.632-5.78 17.5-13.666.4-1.753-.883-2.634-1.492-2.82l-2.918-.985h6.94c1.327.172 1.754 1.186 1.721 2.386-1.412 10.742-10.612 19.037-21.75 19.037-12.115 0-21.941-9.817-21.941-21.92 0-12.105 9.826-21.922 21.941-21.922" fill="#FEFEFE"/><path d="M39.833 18.113c.642-.24 1.292-.47 1.99-.622.358-.094.523-.14.407-.68l-.41-1.765c-.04-.192-.177-.3-.416-.18-.921.537-1.5 1.767-1.571 3.247m5.938-.727c.172.395.314.822.42 1.273.603 2.61-.29 5.039-1.995 5.422-1.705.385-3.577-1.42-4.182-4.03a7.303 7.303 0 0 1-.183-1.327 20.704 20.704 0 0 1 5.94-1.338m-3.03-2.793c1.037.127 2.061.975 2.76 2.243-.665.082-1.333.15-1.996.293-.522.09-.645-.02-.755-.52l-.388-1.679c-.08-.295.069-.387.379-.337" fill="#FEFEFE"/><g transform="translate(58.361 12.31)"><mask id="d" fill="#fff"><use xlink:href="#c"/></mask><path d="M13.339 4.406h-2.848a3.809 3.809 0 0 0-1.468-1.25 4.239 4.239 0 0 0-1.9-.45c-1.147 0-2.143.37-2.988 1.11a4.19 4.19 0 0 0-1.06 1.449 4.265 4.265 0 0 0-.398 1.778c0 .532.107 1.064.32 1.596.215.532.514.994.895 1.388.915.949 2.026 1.423 3.334 1.423.753 0 1.48-.212 2.18-.634.7-.422 1.224-.974 1.571-1.657H5.594V6.904h8.37v.278c0 1.85-.672 3.412-2.014 4.684-1.343 1.272-2.941 1.908-4.793 1.908-1.876 0-3.49-.641-4.845-1.926C.958 10.565.281 8.986.281 7.113c0-1.886.67-3.479 2.014-4.78C3.638 1.033 5.247.38 7.122.38c1.331 0 2.58.364 3.742 1.093 1.164.728 1.988 1.706 2.475 2.932zm2.292 9.056V.624h3.716c.753 0 1.38.055 1.884.164.504.11.987.354 1.45.73.463.375.828.85 1.094 1.422a4.1 4.1 0 0 1 .4 1.743c0 .486-.096.99-.287 1.51-.191.52-.44.945-.746 1.275-.308.33-.655.596-1.043.798-.387.202-.807.35-1.259.443l3.473 4.753h-2.917l-3.368-4.928v4.928H15.63zm2.397-6.731h1.284c.533 0 .936-.044 1.207-.13.272-.087.506-.217.703-.39.394-.393.59-.856.59-1.389 0-.612-.23-1.098-.694-1.457-.405-.278-.891-.416-1.459-.416h-1.631V6.73zm7.848 6.731V.624h9.239v2.325h-6.843v2.949h6.843v2.29h-6.843v2.95h6.843v2.324h-9.239zm11.67 0V.624h9.238v2.325h-6.842v2.949h6.842v2.29h-6.842v2.95h6.842v2.324h-9.239zm11.669 0V.624h2.674l5.349 9.369V.623h2.396v12.84l-2.651.005-5.372-9.34v9.334h-2.396zM79.5 4.406h-2.848a3.811 3.811 0 0 0-1.468-1.25c-.608-.3-1.24-.45-1.9-.45-1.147 0-2.143.37-2.988 1.11-.44.382-.793.865-1.06 1.449a4.248 4.248 0 0 0-.399 1.778c0 .532.108 1.064.321 1.596.215.532.513.994.895 1.388.914.949 2.026 1.423 3.334 1.423.752 0 1.479-.212 2.18-.634.7-.422 1.224-.974 1.571-1.657h-5.383V6.904h8.37v.278c0 1.85-.672 3.412-2.015 4.684-1.343 1.272-2.94 1.908-4.793 1.908-1.875 0-3.49-.641-4.845-1.926-1.354-1.283-2.03-2.862-2.03-4.735 0-1.886.67-3.479 2.014-4.78C69.798 1.033 71.407.38 73.283.38c1.331 0 2.578.364 3.742 1.093 1.164.728 1.988 1.706 2.475 2.932zm2.291 9.056V.624h2.397v10.513h3.924v2.325h-6.32zM94.885.346c1.655 0 3.07.657 4.246 1.97 1.174 1.312 1.762 2.9 1.762 4.762 0 1.85-.59 3.423-1.772 4.719-1.18 1.295-2.592 1.942-4.236 1.942-1.656 0-3.077-.644-4.264-1.933-1.186-1.29-1.78-2.867-1.78-4.728 0-1.874.585-3.464 1.754-4.771 1.17-1.307 2.6-1.96 4.29-1.96zm0 2.325c-1.089 0-2.01.422-2.762 1.267-.752.844-1.128 1.867-1.128 3.07 0 1.215.38 2.253 1.138 3.115.758.861 1.675 1.292 2.752 1.292 1.042 0 1.95-.434 2.726-1.301.775-.868 1.164-1.903 1.164-3.106 0-1.203-.377-2.226-1.13-3.07-.752-.845-1.672-1.267-2.76-1.267zm7.605 10.791V.624h2.709c.65 0 1.213.029 1.694.087.48.058.934.19 1.363.399.52.277.953.682 1.294 1.214.341.532.512 1.087.512 1.666 0 .531-.122 1.02-.364 1.465a2.299 2.299 0 0 1-1.06.998c.706.22 1.248.602 1.623 1.145.377.544.565 1.191.565 1.943 0 1.284-.521 2.302-1.564 3.054-.45.335-1.012.572-1.684.71-.52.105-1.14.157-1.857.157h-3.23zm2.397-2.325h.972c.417 0 .781-.029 1.095-.087.313-.057.607-.178.885-.363.417-.278.625-.694.625-1.25 0-.3-.07-.555-.208-.763-.14-.209-.359-.394-.66-.556a1.717 1.717 0 0 0-.616-.19 5.291 5.291 0 0 0-.738-.052h-1.355v3.261zm0-5.552H105.72c.196 0 .41-.016.642-.051.232-.035.423-.087.573-.157.487-.22.729-.613.729-1.18 0-.265-.07-.494-.208-.684a1.448 1.448 0 0 0-.59-.46 1.214 1.214 0 0 0-.322-.078 3.404 3.404 0 0 0-.443-.026h-1.215v2.636zm6.807 7.877L117.043.624h1.84l5.418 12.838h-2.639l-1.39-3.331h-4.55l-1.423 3.331h-2.605zm4.897-5.62h2.744l-1.355-3.888-1.39 3.887zm8.995 5.62V.624h2.396v10.513h3.925v2.325h-6.32z" fill="#FFF" mask="url(#d)"/></g><path d="M60.2 33.487c-.126-.375-.252-.606-.378-.69a.515.515 0 0 0-.215-.067 1.12 1.12 0 0 0-.196-.019c-.11 0-.166-.03-.166-.09 0-.058.075-.087.226-.087.214 0 .47.004.766.01.046.006.096.01.15.01l.413.01c.007-.006.014-.01.02-.01h.095a.857.857 0 0 0 .13-.01c.27-.006.524-.01.767-.01.144 0 .215.03.215.086 0 .06-.061.091-.186.091a.613.613 0 0 0-.256.037c-.077.032-.117.104-.117.214 0 .05.026.161.075.331l.152.56c.044.149.13.43.263.838l.396 1.262c.32.99.54 1.665.665 2.029h.029l1.997-5.058c.091-.234.177-.35.257-.35.07 0 .17.152.302.454l2.144 4.883h.03c.04-.15.119-.413.236-.793l1.132-3.555c.07-.214.106-.402.106-.562 0-.195-.167-.29-.499-.29-.118 0-.176-.03-.176-.09 0-.058.08-.087.242-.087.218 0 .454.004.71.01.032.006.073.01.12.01l.352.01a.14.14 0 0 1 .05-.01l.695-.02c.12 0 .18.026.18.076 0 .067-.046.101-.14.101-.145 0-.265.016-.363.047-.11.038-.21.152-.297.34a3.99 3.99 0 0 0-.136.308l-.146.38L69.392 35c-.164.445-.352.972-.562 1.583l-1.043 2.972c-.103.304-.204.456-.302.456-.074 0-.179-.16-.316-.479l-2.143-4.863h-.02l-.906 2.265-.63 1.503c-.215.498-.372.851-.477 1.056-.17.345-.294.518-.368.518-.07 0-.149-.121-.235-.36l-2.19-6.164zm10.374 1.29c0-.215-.004-.384-.01-.506-.014-.232-.145-.38-.391-.447l-.152-.018a2.233 2.233 0 0 0-.206-.01c-.105 0-.157-.029-.157-.086 0-.052.07-.08.207-.08l1.06.02h2.723c.042 0 .08-.004.12-.01l.257-.037a.287.287 0 0 0 .076-.02.223.223 0 0 1 .07-.02c.04 0 .06.026.06.077l-.02.1a.103.103 0 0 1-.01.047c-.019.11-.032.24-.04.388l-.039.427c0 .06-.003.1-.01.118l-.011.038a.12.12 0 0 1-.02.038c-.018.038-.041.057-.076.057-.046 0-.07-.034-.07-.103a.887.887 0 0 0-.01-.138.878.878 0 0 0-.05-.167.477.477 0 0 0-.157-.194c-.09-.05-.239-.086-.443-.104a1.995 1.995 0 0 0-.256-.01l-.443-.019-.725-.01c-.038 0-.06.026-.06.076v2.04c0 .06.022.089.06.089h.796c.198 0 .359-.005.482-.013.158 0 .263-.003.313-.01.225-.02.369-.06.433-.123l.08-.081c.026-.019.047-.03.06-.03.05 0 .076.032.076.091l-.106.92-.01.232a.633.633 0 0 1-.01.118c-.02.044-.048.067-.08.067-.057 0-.086-.023-.086-.067l-.03-.3c-.061-.188-.227-.295-.504-.32a2.139 2.139 0 0 0-.256-.01l-.433-.018-.734-.01c-.033 0-.05.028-.05.084v1.883c.007.28.1.467.276.554.158.092.476.137.951.137.165 0 .31-.006.433-.017.177-.014.317-.045.423-.091.197-.082.326-.286.388-.612.022-.082.058-.122.104-.122.035 0 .057.022.07.065.008.025.011.069.011.128 0 .342-.041.645-.12.91-.045.142-.206.214-.49.214-.663 0-1.219-.01-1.664-.028l-1.237-.02-.332.01c-.288.013-.498.02-.63.02-.113 0-.17-.03-.17-.087 0-.06.046-.09.14-.09.131 0 .24-.01.322-.027.144-.033.233-.178.267-.437.02-.156.033-.398.04-.73v-3.726zm10.176-.64l-1.347.028c-.47.007-.761.091-.875.252a.856.856 0 0 0-.106.166.219.219 0 0 0-.031.066l-.02.052c-.02.07-.056.105-.106.105-.053 0-.08-.047-.08-.137 0-.033.01-.101.03-.204.014-.09.034-.194.06-.318l.107-.478c.019-.102.054-.153.1-.153l.252.067a.821.821 0 0 0 .141.028c.24.025.543.038.905.038h3.683a3.375 3.375 0 0 0 .613-.039l.251-.037c.048 0 .07.059.07.175l-.018 1.002c-.014.086-.044.132-.086.132-.06 0-.095-.055-.102-.162l-.009-.09c-.013-.13-.092-.232-.236-.308-.186-.105-.464-.16-.836-.166l-1.142-.018v3.336c0 .421.003.764.01 1.03.007.324.02.57.041.738.033.26.15.401.347.428.124.018.28.027.467.027.095 0 .14.03.14.09 0 .058-.055.087-.17.087l-1.68-.03c-.043.007-.094.01-.157.01l-.813.02c-.119 0-.177-.03-.177-.087 0-.06.05-.09.146-.09.144 0 .252-.01.323-.027.144-.033.231-.178.266-.437a7.17 7.17 0 0 0 .04-.73v-4.365zm5.313.64c0-.215-.003-.384-.01-.506-.012-.232-.144-.38-.392-.447l-.15-.018a2.239 2.239 0 0 0-.206-.01c-.105 0-.157-.029-.157-.086 0-.052.068-.08.206-.08l1.546.02c.088-.007.226-.01.411-.01l.69-.01c.351 0 .65.021.896.061.331.057.605.154.824.29.158.104.296.243.412.417.152.227.226.468.226.72 0 .581-.418 1.19-1.256 1.825l.302.337c.103.13.196.238.277.321l.518.593c.356.403.652.715.895.94.218.207.424.354.618.44.067.032.135.057.206.076l.258.047h.101c.076 0 .114.03.114.09 0 .058-.058.087-.176.087h-.865c-.433 0-.763-.057-.992-.167-.183-.082-.373-.228-.573-.437-.16-.16-.38-.42-.658-.776a4.435 4.435 0 0 1-.272-.347l-.452-.612a1.347 1.347 0 0 0-.132-.164.224.224 0 0 0-.165-.062l-.816-.02c-.046 0-.07.025-.07.072v.113c0 .421.003.767.01 1.04.007.317.02.557.04.72.034.264.15.41.353.436.134.018.282.027.442.027.074 0 .11.03.11.09 0 .058-.06.087-.186.087l-1.604-.03a.8.8 0 0 1-.136.01l-.784.02c-.116 0-.172-.03-.172-.087 0-.06.046-.09.14-.09.132 0 .24-.01.324-.027.144-.033.231-.178.266-.437.02-.156.032-.398.04-.73v-3.726zm1.157 1.881c0 .073.028.122.081.148.172.05.4.076.69.076.294 0 .507-.044.638-.133.164-.11.298-.252.403-.427.124-.22.186-.487.186-.796 0-.518-.16-.91-.483-1.176a1.426 1.426 0 0 0-.895-.293c-.262 0-.44.011-.539.032a.112.112 0 0 0-.08.115v2.454zm5.353-1.881c0-.215-.004-.384-.01-.506-.014-.232-.145-.38-.392-.447l-.151-.018a2.233 2.233 0 0 0-.206-.01c-.105 0-.156-.029-.156-.086 0-.052.069-.08.206-.08l1.06.02h2.723c.042 0 .08-.004.12-.01l.258-.037a.289.289 0 0 0 .075-.02.223.223 0 0 1 .07-.02c.04 0 .06.026.06.077l-.02.1a.099.099 0 0 1-.01.047c-.019.11-.032.24-.04.388l-.039.427c0 .06-.004.1-.01.118l-.011.038a.106.106 0 0 1-.02.038c-.018.038-.041.057-.076.057-.046 0-.07-.034-.07-.103a.885.885 0 0 0-.01-.138.907.907 0 0 0-.05-.167.474.474 0 0 0-.157-.194c-.09-.05-.238-.086-.443-.104a1.986 1.986 0 0 0-.256-.01l-.442-.019-.725-.01c-.04 0-.06.026-.06.076v2.04c0 .06.02.089.06.089h.795c.198 0 .359-.005.482-.013.159 0 .263-.003.313-.01.224-.02.369-.06.433-.123l.08-.081c.026-.019.047-.03.06-.03.05 0 .076.032.076.091l-.107.92-.008.232a.543.543 0 0 1-.01.118c-.021.044-.049.067-.081.067-.057 0-.086-.023-.086-.067l-.03-.3c-.061-.188-.227-.295-.504-.32a2.146 2.146 0 0 0-.256-.01l-.432-.018-.735-.01c-.033 0-.05.028-.05.084v1.883c.007.28.1.467.276.554.158.092.476.137.951.137.165 0 .31-.006.434-.017.176-.014.317-.045.422-.091.197-.082.326-.286.388-.612.022-.082.058-.122.104-.122.035 0 .057.022.071.065.007.025.01.069.01.128 0 .342-.04.645-.12.91-.045.142-.206.214-.49.214-.663 0-1.219-.01-1.664-.028l-1.237-.02-.332.01c-.288.013-.498.02-.63.02-.113 0-.17-.03-.17-.087 0-.06.046-.09.14-.09.13 0 .24-.01.322-.027.144-.033.234-.178.267-.437.02-.156.033-.398.04-.73v-3.726zm6.882 3.02c-.04 0-.066.019-.08.057l-.483 1.109c-.09.192-.135.36-.135.503 0 .154.12.23.36.23h.133c.089 0 .135.032.135.091 0 .058-.05.087-.145.087h-.248l-.522-.03-.62.01c-.254.013-.478.02-.668.02-.111 0-.167-.03-.167-.087 0-.06.033-.09.1-.09l.273-.01c.3-.044.552-.284.749-.724l2.37-5.196c.097-.221.187-.331.27-.331.088 0 .178.088.269.265l1.729 3.825c.256.563.448.984.579 1.262.158.329.309.563.453.705a.61.61 0 0 0 .318.177c.137.018.25.027.342.027.08 0 .12.03.12.09 0 .032-.025.054-.07.067-.047.013-.155.02-.322.02l-1.8-.02-.052-.01a.31.31 0 0 1-.085-.01c-.048-.006-.07-.022-.07-.047 0-.053.037-.083.115-.09a.116.116 0 0 0 .08-.056c.021-.038.021-.081 0-.128l-.698-1.659c-.014-.038-.047-.058-.096-.058h-2.134zm1.937-.456c.044 0 .059-.017.046-.052l-.866-2.124c0-.006-.004-.01-.01-.017-.01-.02-.017-.03-.024-.03-.014 0-.025.01-.031.03-.007.006-.011.011-.011.017l-.884 2.115c-.02.04-.01.061.03.061h1.75zm5.157 2.641c-.295 0-.557-.018-.784-.052a2.652 2.652 0 0 1-.69-.162c-.117-.046-.176-.142-.176-.284 0-.187.007-.41.019-.668a.889.889 0 0 0 .01-.138l.021-.288c0-.142.038-.214.115-.214a.09.09 0 0 1 .08.047c.008.02.01.047.01.086 0 .13.03.273.087.43.087.285.281.498.584.64.247.118.532.176.855.176.838 0 1.257-.35 1.257-1.052 0-.212-.048-.395-.147-.55-.133-.209-.382-.413-.748-.612l-.524-.294c-.523-.284-.894-.578-1.116-.88a1.658 1.658 0 0 1-.307-.992c0-.492.223-.896.67-1.214.432-.296.972-.445 1.619-.445.265 0 .522.017.77.047.2.02.373.048.518.086.08.023.12.058.12.109l-.029.992c0 .173-.04.26-.117.26-.06 0-.09-.05-.09-.147a1.091 1.091 0 0 0-.041-.223.935.935 0 0 0-.195-.318 1.094 1.094 0 0 0-.332-.256 1.613 1.613 0 0 0-.68-.132c-.342 0-.63.078-.865.231-.248.162-.373.379-.373.65 0 .203.059.378.177.526.138.174.398.361.785.564l.372.191c.57.299.981.616 1.231.951.222.304.334.654.334 1.049 0 .63-.303 1.143-.906 1.545a2.004 2.004 0 0 1-.744.28c-.219.04-.474.061-.77.061zm4.185-3.962c0-1.08-.004-1.665-.01-1.75-.014-.231-.144-.38-.393-.446l-.15-.018a1.99 1.99 0 0 0-.197-.01c-.104 0-.157-.029-.157-.086 0-.052.067-.08.198-.08l1.585.02.94-.02c.131 0 .197.028.197.08 0 .057-.05.087-.146.087-.064 0-.153.01-.268.027-.201.033-.31.182-.332.447l-.02.506v2.4c0 .567.06 1.01.177 1.326.103.272.275.497.513.673.177.136.38.23.608.28.091.018.184.031.277.037.051.007.095.01.135.01h.127c.218 0 .423-.03.613-.095.236-.071.435-.186.6-.34.228-.201.378-.484.451-.854.03-.155.054-.337.067-.546.005-.148.009-.353.009-.611V36.02c0-.557-.004-.971-.009-1.243l-.01-.506c-.017-.232-.145-.38-.383-.447l-.157-.018a1.626 1.626 0 0 0-.174-.01c-.102 0-.152-.029-.152-.086 0-.052.06-.08.181-.08l.982.02 1.16-.02c.126 0 .188.028.188.08 0 .057-.051.087-.151.087-.064 0-.155.01-.272.027-.198.033-.307.182-.328.447l-.01.506c-.007.272-.01.686-.01 1.243v.881c0 .266-.009.496-.03.69-.023.255-.06.48-.116.679-.137.48-.376.855-.718 1.12a2.768 2.768 0 0 1-.982.484 3.661 3.661 0 0 1-.935.108h-.197c-.084 0-.163-.003-.237-.01a3.806 3.806 0 0 1-.537-.07c-.447-.083-.814-.243-1.102-.485a2.02 2.02 0 0 1-.588-.786c-.157-.376-.237-.844-.237-1.398V36.02zm8.22-1.243c0-.215-.003-.384-.01-.506-.012-.232-.144-.38-.392-.447l-.15-.018a2.245 2.245 0 0 0-.206-.01c-.105 0-.157-.029-.157-.086 0-.052.068-.08.206-.08l1.546.02c.089-.007.226-.01.412-.01l.688-.01c.353 0 .651.021.897.061.331.057.606.154.824.29.158.104.295.243.412.417.152.227.227.468.227.72 0 .581-.419 1.19-1.257 1.825l.303.337c.102.13.195.238.275.321l.52.593c.355.403.652.715.894.94.218.207.424.354.618.44.067.032.136.057.206.076l.258.047h.101c.076 0 .115.03.115.09 0 .058-.059.087-.177.087h-.865c-.434 0-.763-.057-.99-.167-.185-.082-.375-.228-.575-.437-.16-.16-.38-.42-.658-.776a4.624 4.624 0 0 1-.272-.347l-.452-.612a1.376 1.376 0 0 0-.132-.164.224.224 0 0 0-.165-.062l-.816-.02c-.046 0-.07.025-.07.072v.113c0 .421.003.767.01 1.04.007.317.02.557.04.72.034.264.15.41.354.436.134.018.281.027.44.027.074 0 .113.03.113.09 0 .058-.063.087-.188.087l-1.604-.03a.8.8 0 0 1-.135.01l-.785.02c-.116 0-.172-.03-.172-.087 0-.06.046-.09.14-.09.132 0 .24-.01.324-.027.144-.033.231-.178.266-.437.02-.156.032-.398.04-.73v-3.726zm1.157 1.881c0 .073.028.122.081.148.172.05.4.076.69.076.294 0 .508-.044.638-.133.165-.11.299-.252.403-.427.124-.22.186-.487.186-.796 0-.518-.16-.91-.483-1.176a1.427 1.427 0 0 0-.895-.293 2.97 2.97 0 0 0-.539.032.113.113 0 0 0-.08.115v2.454zm5.354-1.881c0-.215-.004-.384-.01-.506-.015-.232-.145-.38-.393-.447l-.15-.018c-.07-.006-.14-.01-.207-.01-.104 0-.156-.029-.156-.086 0-.052.069-.08.206-.08l1.06.02h2.723c.04 0 .081-.004.12-.01l.257-.037a.28.28 0 0 0 .076-.02.22.22 0 0 1 .071-.02c.04 0 .06.026.06.077l-.02.1a.103.103 0 0 1-.011.047c-.02.11-.032.24-.04.388l-.039.427c0 .06-.003.1-.01.118l-.011.038a.095.095 0 0 1-.02.038c-.017.038-.041.057-.076.057-.046 0-.07-.034-.07-.103a.8.8 0 0 0-.01-.138.878.878 0 0 0-.05-.167.476.476 0 0 0-.156-.194c-.092-.05-.239-.086-.444-.104a1.98 1.98 0 0 0-.255-.01l-.443-.019-.726-.01c-.038 0-.06.026-.06.076v2.04c0 .06.022.089.06.089h.796c.198 0 .359-.005.483-.013.157 0 .262-.003.311-.01.226-.02.37-.06.434-.123l.081-.081c.026-.019.046-.03.06-.03.05 0 .075.032.075.091l-.106.92-.01.232a.574.574 0 0 1-.01.118c-.02.044-.048.067-.08.067-.057 0-.086-.023-.086-.067l-.03-.3c-.061-.188-.227-.295-.504-.32a2.13 2.13 0 0 0-.256-.01l-.432-.018-.735-.01c-.033 0-.05.028-.05.084v1.883c.007.28.1.467.276.554.159.092.476.137.952.137a4.9 4.9 0 0 0 .433-.017c.176-.014.317-.045.422-.091.197-.082.326-.286.388-.612.022-.082.058-.122.104-.122.035 0 .057.022.07.065.007.025.011.069.011.128 0 .342-.04.645-.12.91-.045.142-.206.214-.49.214-.662 0-1.218-.01-1.663-.028l-1.238-.02-.331.01c-.29.013-.499.02-.63.02-.114 0-.17-.03-.17-.087 0-.06.045-.09.14-.09.13 0 .239-.01.321-.027.144-.033.233-.178.267-.437.02-.156.033-.398.04-.73v-3.726zm9.955 2.953c0-.203-.018-.37-.057-.507a2.242 2.242 0 0 0-.15-.36 3.527 3.527 0 0 0-.236-.36 27.13 27.13 0 0 0-.48-.717l-.903-1.3c-.232-.31-.428-.505-.59-.581a.816.816 0 0 0-.375-.108c-.092 0-.138-.03-.138-.087 0-.052.06-.08.177-.08l1.319.02.845-.02c.09 0 .135.028.135.08 0 .033-.019.054-.054.066l-.153.038c-.084.02-.125.063-.125.13 0 .063.039.155.116.278l1.397 2.252c.049.086.083.14.107.167l.67-1.086c.177-.298.321-.532.43-.702l.153-.27c.05-.073.08-.125.095-.157.088-.173.13-.319.13-.435 0-.099-.064-.16-.19-.185l-.115-.03c-.034-.012-.051-.033-.051-.066 0-.052.051-.08.15-.08l.686.02 1.171-.02c.112 0 .167.024.167.071 0 .063-.059.096-.178.096-.109 0-.24.032-.392.098-.143.063-.301.191-.473.385-.067.078-.194.248-.381.507-.165.234-.345.503-.545.805-.207.305-.387.577-.537.816a7.144 7.144 0 0 0-.297.516 1.37 1.37 0 0 0-.106.427c-.005.05-.01.115-.01.195v1.193l.02.494c.023.259.148.404.372.437.138.018.29.027.454.027.103 0 .156.03.156.09 0 .058-.065.087-.197.087l-1.651-.03a.987.987 0 0 1-.15.01l-.794.02c-.133 0-.198-.03-.198-.087 0-.06.05-.09.146-.09.132 0 .237-.01.318-.027.165-.033.255-.178.276-.437.018-.149.029-.313.036-.494v-1.01zm8.013 2.252c-.63 0-1.194-.102-1.69-.304a3.19 3.19 0 0 1-1.152-.767 3.03 3.03 0 0 1-.66-1.038 3.167 3.167 0 0 1-.205-1.124c0-.377.068-.743.206-1.1.15-.394.37-.744.659-1.047a3.29 3.29 0 0 1 1.187-.778c.513-.206 1.097-.308 1.751-.308 1.14 0 2.042.279 2.707.834.667.556 1 1.307 1 2.252 0 .971-.34 1.77-1.022 2.4-.707.654-1.633.98-2.78.98zm.372-.45c.205 0 .404-.026.6-.076.261-.076.487-.195.678-.36.25-.2.438-.465.569-.797.158-.378.237-.846.237-1.398 0-.891-.255-1.611-.764-2.161-.493-.526-1.117-.788-1.867-.788-.271 0-.53.035-.77.105-.27.09-.5.225-.7.398a1.993 1.993 0 0 0-.517.777c-.14.357-.207.778-.207 1.262 0 .875.245 1.594.735 2.156.5.587 1.168.882 2.006.882zM147.693 35.988c0-1.08-.004-1.665-.011-1.749-.013-.231-.143-.38-.393-.446l-.15-.018a1.967 1.967 0 0 0-.196-.01c-.103 0-.156-.03-.156-.085 0-.054.066-.082.197-.082l1.585.02.939-.02c.133 0 .197.028.197.082 0 .056-.05.085-.145.085-.064 0-.152.01-.268.028-.2.032-.311.18-.331.446l-.022.506v2.4c0 .567.06 1.011.179 1.326.101.273.273.498.512.674.176.135.38.23.607.28.092.018.184.03.277.036.051.007.097.01.136.01h.127c.218 0 .422-.03.613-.095.235-.07.434-.186.6-.34.227-.2.377-.484.451-.854.032-.155.053-.336.066-.545.006-.149.009-.353.009-.612v-1.037c0-.556-.003-.97-.009-1.243l-.009-.506c-.018-.231-.145-.38-.384-.446l-.156-.018a1.605 1.605 0 0 0-.175-.01c-.1 0-.15-.03-.15-.085 0-.054.059-.082.18-.082l.981.02 1.161-.02c.125 0 .188.028.188.082 0 .056-.052.085-.151.085-.064 0-.154.01-.272.028-.198.032-.307.18-.327.446l-.011.506c-.007.272-.01.687-.01 1.243v.882c0 .265-.008.495-.03.69-.024.255-.061.48-.116.679-.138.48-.377.854-.719 1.12a2.766 2.766 0 0 1-.982.483 3.667 3.667 0 0 1-.935.109h-.196c-.084 0-.164-.004-.237-.01a3.665 3.665 0 0 1-.537-.072c-.446-.082-.814-.242-1.102-.483a2.006 2.006 0 0 1-.588-.786c-.158-.376-.237-.843-.237-1.399v-1.213zm8.22-1.243c0-.215-.003-.383-.01-.506-.013-.231-.145-.38-.392-.446l-.15-.018a2.282 2.282 0 0 0-.207-.01c-.105 0-.157-.03-.157-.085 0-.054.07-.082.208-.082l1.545.02c.088-.007.226-.01.411-.01l.69-.01c.351 0 .65.021.895.061.333.058.606.154.825.29.158.104.296.243.411.418.152.227.228.468.228.72 0 .58-.418 1.189-1.257 1.825l.302.337c.102.129.196.237.276.322l.52.592c.354.403.651.714.894.94.217.206.424.354.617.44.068.032.136.056.207.076l.257.047h.101c.077 0 .116.03.116.09 0 .057-.06.086-.177.086h-.866c-.432 0-.762-.057-.99-.167-.184-.082-.375-.228-.574-.437-.159-.16-.38-.42-.657-.776a4.289 4.289 0 0 1-.274-.347l-.452-.61a1.265 1.265 0 0 0-.132-.166.223.223 0 0 0-.164-.061l-.815-.02c-.048 0-.072.025-.072.072v.112c0 .421.004.767.01 1.04.008.318.02.558.04.72.034.264.152.41.354.436.134.018.281.028.44.028.075 0 .113.03.113.09 0 .057-.062.086-.187.086l-1.604-.029a.795.795 0 0 1-.136.01l-.785.019c-.114 0-.171-.029-.171-.086 0-.06.046-.09.14-.09.131 0 .239-.01.324-.028.144-.032.231-.178.266-.437.02-.155.033-.398.039-.73v-3.726zm1.157 1.883c0 .072.028.12.081.146.173.051.4.077.689.077.296 0 .509-.044.64-.133.163-.11.297-.253.402-.428.124-.22.185-.486.185-.795 0-.518-.16-.91-.481-1.177a1.428 1.428 0 0 0-.895-.293c-.263 0-.44.011-.54.033a.113.113 0 0 0-.081.115v2.455zm9.597-2.522l-1.346.027c-.469.007-.762.091-.875.252a.928.928 0 0 0-.138.233l-.018.052c-.021.069-.057.105-.107.105-.053 0-.08-.048-.08-.138 0-.033.01-.1.03-.204.014-.089.034-.194.06-.317l.108-.48c.018-.1.053-.15.098-.15l.252.065a.86.86 0 0 0 .142.028c.24.026.542.038.904.038h3.684c.127 0 .25-.002.366-.01.084-.005.167-.016.247-.028l.25-.038c.049 0 .07.059.07.176l-.017 1.001c-.015.088-.043.132-.087.132-.06 0-.094-.054-.101-.16l-.009-.092c-.013-.13-.092-.231-.237-.307-.185-.105-.463-.16-.836-.167l-1.142-.018v3.336c0 .421.004.764.01 1.03.007.325.022.57.042.739.033.26.149.401.348.427.122.018.278.028.466.028.094 0 .14.03.14.09 0 .057-.055.086-.17.086l-1.681-.029c-.042.006-.093.01-.156.01l-.814.019c-.118 0-.177-.029-.177-.086 0-.06.05-.09.146-.09.145 0 .254-.01.323-.028.144-.032.232-.178.266-.437.02-.155.034-.398.04-.73v-4.365zm5.319.639c0-.215-.002-.383-.01-.506-.018-.231-.123-.377-.31-.437a1.25 1.25 0 0 0-.33-.037c-.095 0-.145-.032-.145-.095 0-.048.072-.072.217-.072l1.443.02.937-.02c.123 0 .185.024.185.072 0 .063-.047.095-.144.095-.075 0-.164.01-.268.028-.205.032-.318.18-.342.446l-.02.506v3.272c0 .196.003.36.01.497 0 .335.012.58.036.734.032.228.153.358.357.39.123.018.277.028.462.028.097 0 .147.03.147.09 0 .057-.06.086-.177.086l-1.68-.029c-.04.006-.092.01-.151.01l-.815.019c-.117 0-.177-.029-.177-.086 0-.06.048-.09.146-.09.13 0 .237-.01.318-.028.152-.032.24-.165.272-.4.02-.153.033-.396.039-.724v-3.769zm4.529-1.118c.018-.142.076-.213.174-.213.089 0 .18.089.278.266l2.429 4.598 2.435-4.66c.073-.136.152-.204.237-.204.039 0 .08.024.12.071a.323.323 0 0 1 .086.195l.827 5.094c.07.484.218.755.44.816.115.032.217.053.307.066.07.006.14.01.206.01.098 0 .147.028.147.081 0 .063-.079.095-.237.095-.53 0-1.154-.02-1.876-.058a.63.63 0 0 1-.216-.037c-.034-.013-.052-.035-.052-.062 0-.039.035-.066.102-.086.052-.02.067-.136.04-.35l-.504-3.57h-.03l-1.945 3.689a3.32 3.32 0 0 1-.218.38c-.049.055-.098.084-.146.084-.083 0-.204-.138-.362-.417l-.866-1.536c-.092-.175-.152-.286-.175-.336l-.367-.731c-.187-.37-.368-.716-.54-1.038h-.028l-.433 3.224c-.02.142-.031.271-.031.388 0 .129.094.21.277.243.138.023.244.037.322.037.095 0 .14.028.14.081 0 .063-.071.095-.216.095l-1.131-.029a.519.519 0 0 1-.111.01l-.608.019c-.113 0-.167-.032-.167-.095 0-.053.048-.081.146-.081h.111l.165-.02c.112-.011.2-.086.268-.222.043-.098.077-.234.105-.407l.897-5.39zm8.61 1.118c0-.215-.002-.383-.009-.506-.014-.231-.145-.38-.391-.446l-.152-.018a2.214 2.214 0 0 0-.206-.01c-.105 0-.156-.03-.156-.085 0-.054.069-.082.205-.082l1.062.02h2.722c.041 0 .08-.003.12-.01l.259-.037a.319.319 0 0 0 .075-.02.242.242 0 0 1 .07-.019c.04 0 .06.026.06.076l-.02.1a.094.094 0 0 1-.011.047c-.018.11-.033.24-.04.389l-.04.427c0 .06-.002.099-.01.118l-.009.037a.149.149 0 0 1-.02.039c-.02.038-.043.057-.078.057-.045 0-.07-.035-.07-.104 0-.048-.003-.094-.009-.137a.863.863 0 0 0-.05-.167.474.474 0 0 0-.157-.194c-.091-.05-.24-.087-.443-.104a1.977 1.977 0 0 0-.256-.01l-.443-.02-.724-.01c-.04 0-.06.027-.06.078v2.038c0 .06.02.089.06.089h.794c.199 0 .36-.005.483-.013.158 0 .263-.003.313-.01.225-.019.369-.06.432-.123l.08-.081c.026-.019.048-.029.061-.029.05 0 .076.03.076.09l-.107.92-.007.233a.513.513 0 0 1-.012.118c-.02.044-.047.066-.08.066-.057 0-.086-.022-.086-.066l-.031-.299c-.06-.19-.227-.297-.503-.323a2.167 2.167 0 0 0-.256-.01l-.433-.017-.735-.01c-.033 0-.05.028-.05.085v1.883c.008.28.1.466.276.553.158.093.476.138.952.138.165 0 .31-.007.434-.018.176-.013.316-.043.421-.09.198-.083.327-.287.39-.612.02-.083.056-.123.104-.123.034 0 .055.023.07.066a.485.485 0 0 1 .01.128c0 .342-.041.644-.12.91-.045.142-.206.213-.49.213-.662 0-1.22-.01-1.664-.028l-1.238-.019-.332.01c-.288.013-.497.019-.63.019-.113 0-.169-.029-.169-.086 0-.06.046-.09.14-.09.13 0 .24-.01.322-.028.144-.032.233-.178.268-.437a7.59 7.59 0 0 0 .039-.73v-3.726z" fill="#FFF"/></g></svg>