<svg width="37" height="42" viewBox="0 0 37 42" xmlns="http://www.w3.org/2000/svg"><title>Page 1</title><path d="M29.215 41.478c-.901 0-2.074-.285-3.516-.856-1.443-.571-3.036-1.428-4.78-2.57-1.743-1.142-3.561-2.6-5.455-4.373-1.893-1.774-3.712-3.863-5.455-6.267A143.131 143.131 0 0 1 5.59 21.1c-1.263-1.924-2.285-3.727-3.066-5.41-.842-1.623-1.473-3.126-1.894-4.509C.211 9.8 0 8.566 0 7.484c0-.841.135-1.593.406-2.254.27-.661.586-1.232.947-1.713.42-.421.841-.797 1.262-1.127.42-.331.781-.617 1.082-.857l.27-.18A5.96 5.96 0 0 1 6.448.27C7.38.09 8.055 0 8.476 0c.721 0 1.262.165 1.623.496.36.33.631.706.812 1.127.18.3.736 1.458 1.668 3.472.932 2.013 1.458 3.2 1.578 3.561.12.24.195.526.225.857.03.33.015.646-.045.947-.12.36-.27.691-.45.992-.181.3-.422.57-.722.811l-.18.09c-.361.24-.767.556-1.218.947-.45.39-.706.827-.766 1.308-.06.24-.045.496.045.766s.225.526.406.767a268.792 268.792 0 0 0 5.23 6.673 174.522 174.522 0 0 0 2.84 3.426c.872 1.022 1.458 1.653 1.758 1.893.24.24.481.421.722.541.24.12.48.18.721.18.3.06.571.06.812 0 .24-.06.45-.18.63-.36.422-.36.722-.646.902-.857l.27-.315h.091c.06-.06.24-.18.541-.361.3-.18.721-.27 1.263-.27.36 0 .736.075 1.127.225.39.15.766.346 1.127.586 1.022.661 2.36 1.548 4.012 2.66l2.48 1.668.09.09c.3.24.571.692.812 1.353.24.661.12 1.443-.36 2.344-.241.481-.617 1.067-1.128 1.759a13.314 13.314 0 0 1-1.758 1.938 11.496 11.496 0 0 1-2.12 1.533c-.75.421-1.517.631-2.299.631zM8.476 1.533c-.36 0-.917.075-1.668.225-.752.15-1.398.406-1.939.767l-.27.27c-.3.18-.631.406-.992.677-.36.27-.691.616-.992 1.037-.3.36-.556.781-.767 1.262-.21.48-.315 1.052-.315 1.713 0 1.022.21 2.18.631 3.472.42 1.292 1.022 2.72 1.804 4.283.781 1.563 1.773 3.276 2.975 5.14a130.908 130.908 0 0 0 4.238 6.131c1.804 2.345 3.622 4.373 5.455 6.087 1.834 1.713 3.562 3.11 5.185 4.193 1.623 1.082 3.081 1.878 4.374 2.39 1.292.51 2.299.766 3.02.766.541 0 1.127-.18 1.759-.541.63-.361 1.217-.782 1.758-1.263a14.676 14.676 0 0 0 1.443-1.668c.42-.571.751-1.097.992-1.578.24-.541.3-.962.18-1.262-.12-.3-.21-.481-.27-.541-.241-.18-1.143-.797-2.706-1.849a1064.48 1064.48 0 0 0-3.697-2.48c-.24-.18-.48-.315-.721-.405-.24-.09-.481-.136-.721-.136s-.421.03-.542.09c-.12.06-.21.12-.27.18l-.406.407c-.21.21-.496.466-.856.766-.361.3-.752.511-1.173.631-.42.12-.841.15-1.262.09-.42 0-.857-.09-1.307-.27-.451-.18-.857-.45-1.218-.812-.3-.3-.901-.991-1.803-2.073a333.4 333.4 0 0 0-2.976-3.517 246.414 246.414 0 0 0-3.02-3.832c-.992-1.233-1.729-2.18-2.21-2.84-.3-.422-.51-.857-.63-1.308-.121-.451-.151-.917-.091-1.398.06-.36.195-.721.406-1.082.21-.36.436-.661.676-.902.24-.3.496-.54.766-.721.27-.18.526-.36.767-.541l.18-.09c.36-.3.541-.646.541-1.037 0-.39-.03-.646-.09-.767-.12-.3-.631-1.442-1.533-3.426-.902-1.984-1.443-3.156-1.623-3.517-.12-.24-.255-.42-.406-.54-.15-.121-.375-.181-.676-.181z" fill="#02A959" fill-rule="evenodd"/></svg>