<?xml version="1.0" encoding="UTF-8" standalone="no"?>
<svg width="37px" height="42px" viewBox="0 0 37 42" version="1.1" xmlns="http://www.w3.org/2000/svg" xmlns:xlink="http://www.w3.org/1999/xlink">
    <!-- Generator: Sketch 3.8.3 (29802) - http://www.bohemiancoding.com/sketch -->
    <title>Page 1</title>
    <desc>Created with Sketch.</desc>
    <defs></defs>
    <g id="Page-1" stroke="none" stroke-width="1" fill="none" fill-rule="evenodd">
        <g id="Home" transform="translate(-520.000000, -2657.000000)" fill="#02A959">
            <path d="M549.215271,2698.47847 C548.313559,2698.47847 547.141353,2698.19293 545.698618,2697.62185 C544.255883,2697.05077 542.662884,2696.19416 540.919577,2695.05199 C539.176269,2693.90982 537.357847,2692.45208 535.464259,2690.67872 C533.570665,2688.90535 531.752243,2686.81642 530.008935,2684.41186 C528.325743,2682.12753 526.852971,2680.02357 525.590577,2678.09992 C524.328182,2676.17627 523.306259,2674.37287 522.524776,2672.68968 C521.68318,2671.06661 521.051992,2669.56378 520.631194,2668.18115 C520.210396,2666.79853 520,2665.56621 520,2664.48416 C520,2663.64256 520.135255,2662.89115 520.405768,2662.22989 C520.676281,2661.56864 520.991875,2660.99757 521.352559,2660.51665 C521.773357,2660.09585 522.194149,2659.72015 522.614947,2659.38952 C523.035745,2659.0589 523.396424,2658.77336 523.696994,2658.5329 L523.967506,2658.35256 C524.688874,2657.81154 525.51543,2657.45085 526.4472,2657.27051 C527.378967,2657.09017 528.055237,2657 528.476035,2657 C529.197406,2657 529.738424,2657.16531 530.099106,2657.49594 C530.459788,2657.82656 530.7303,2658.20227 530.910641,2658.62307 C531.090982,2658.92364 531.647028,2660.08082 532.5788,2662.09464 C533.510567,2664.10846 534.036557,2665.29569 534.156782,2665.65638 C534.277008,2665.89683 534.352151,2666.18237 534.382212,2666.513 C534.412267,2666.84362 534.397239,2667.15922 534.337124,2667.45979 C534.216898,2667.82047 534.066612,2668.15109 533.886271,2668.45166 C533.70593,2668.75224 533.465478,2669.02274 533.164906,2669.2632 L532.984565,2669.35337 C532.623882,2669.59383 532.218118,2669.90942 531.767259,2670.30016 C531.316406,2670.6909 531.060927,2671.12672 531.000812,2671.60764 C530.940696,2671.84809 530.955724,2672.10357 531.045894,2672.37408 C531.136071,2672.6446 531.271324,2672.90008 531.451665,2673.14054 C531.992688,2673.86191 532.744108,2674.83874 533.70593,2676.07108 C534.667751,2677.30342 535.659622,2678.55076 536.681559,2679.81316 C537.703496,2681.07555 538.650279,2682.2177 539.52193,2683.23964 C540.393586,2684.26158 540.979686,2684.89277 541.280259,2685.13322 C541.520716,2685.37368 541.761167,2685.55402 542.001624,2685.67425 C542.242081,2685.79447 542.482532,2685.85459 542.722988,2685.85459 C543.023561,2685.9147 543.294067,2685.9147 543.534524,2685.85459 C543.774981,2685.79447 543.985377,2685.67425 544.165718,2685.49391 C544.586516,2685.13322 544.887083,2684.84768 545.067424,2684.63728 C545.247765,2684.42689 545.337935,2684.32169 545.337935,2684.32169 L545.428106,2684.32169 C545.488222,2684.26157 545.668557,2684.14135 545.96913,2683.96101 C546.269702,2683.78066 546.690494,2683.69049 547.231518,2683.69049 C547.5922,2683.69049 547.96791,2683.76564 548.358647,2683.91592 C548.74939,2684.0662 549.1251,2684.26157 549.485783,2684.50203 C550.50772,2685.16328 551.84524,2686.04995 553.498377,2687.16206 C555.151508,2688.27417 555.978065,2688.83022 555.978065,2688.83022 L556.068236,2688.92039 C556.368808,2689.16085 556.639314,2689.61169 556.879771,2690.27295 C557.120228,2690.9342 557.000002,2691.71567 556.519088,2692.61738 C556.278632,2693.0983 555.902928,2693.6844 555.391953,2694.37571 C554.880985,2695.06702 554.294884,2695.71324 553.63363,2696.31438 C552.972375,2696.91552 552.266043,2697.42648 551.514624,2697.84728 C550.763198,2698.26807 549.996751,2698.47847 549.215271,2698.47847 L549.215271,2698.47847 Z M528.476035,2658.5329 C528.115353,2658.5329 527.559302,2658.60804 526.807882,2658.75833 C526.056457,2658.90861 525.410238,2659.16409 524.869212,2659.52478 L524.5987,2659.79529 C524.29813,2659.97563 523.967508,2660.20105 523.606824,2660.47156 C523.246139,2660.74208 522.915517,2661.08773 522.614947,2661.50853 C522.314377,2661.86921 522.058896,2662.29 521.848497,2662.77092 C521.638098,2663.25183 521.5329,2663.8229 521.5329,2664.48416 C521.5329,2665.5061 521.743296,2666.66327 522.164094,2667.95573 C522.584892,2669.24818 523.186024,2670.67586 523.967506,2672.23883 C524.748988,2673.8018 525.740855,2675.51502 526.943135,2677.37855 C528.145414,2679.24209 529.558077,2681.28593 531.181153,2683.51015 C532.984576,2685.8546 534.802998,2687.88342 536.636471,2689.59667 C538.469949,2691.30992 540.198206,2692.70755 541.821283,2693.7896 C543.444359,2694.87165 544.902104,2695.66815 546.194553,2696.17912 C547.487008,2696.69009 548.4939,2696.94557 549.215271,2696.94557 C549.756294,2696.94557 550.3424,2696.76523 550.9736,2696.40455 C551.604794,2696.04386 552.1909,2695.62307 552.731924,2695.14216 C553.272947,2694.60113 553.753855,2694.04509 554.174653,2693.474 C554.595451,2692.90292 554.926073,2692.37693 555.16653,2691.89602 C555.406986,2691.35499 555.467096,2690.9342 555.346871,2690.63363 C555.226645,2690.33306 555.136475,2690.15272 555.076359,2690.09261 C554.835902,2689.91226 553.934208,2689.2961 552.371241,2688.24411 C550.808275,2687.19211 549.575959,2686.36556 548.674247,2685.76442 C548.43379,2685.58408 548.193339,2685.44882 547.952883,2685.35865 C547.712426,2685.26848 547.471975,2685.22339 547.231518,2685.22339 C546.991061,2685.22339 546.81072,2685.25345 546.690494,2685.31356 C546.570269,2685.37368 546.480098,2685.43379 546.419983,2685.49391 C546.359867,2685.55402 546.224614,2685.68927 546.014212,2685.89967 C545.803816,2686.11007 545.518277,2686.36555 545.157594,2686.66612 C544.796912,2686.9667 544.406175,2687.17709 543.985377,2687.29732 C543.564579,2687.41754 543.143786,2687.4476 542.722988,2687.38749 C542.30219,2687.38749 541.866371,2687.29732 541.415518,2687.11698 C540.964659,2686.93664 540.558894,2686.66612 540.198212,2686.30544 C539.897639,2686.00487 539.296512,2685.31357 538.3948,2684.23152 C537.493088,2683.14946 536.501224,2681.97726 535.419171,2680.71486 C534.397234,2679.39236 533.390335,2678.11495 532.398459,2676.88261 C531.406577,2675.65028 530.67019,2674.7035 530.189277,2674.04224 C529.888704,2673.62144 529.678308,2673.18562 529.558082,2672.73476 C529.437857,2672.28391 529.407796,2671.81804 529.467912,2671.33712 C529.528027,2670.97644 529.66328,2670.61576 529.873682,2670.25508 C530.084078,2669.89439 530.309502,2669.59383 530.549959,2669.35337 C530.790416,2669.0528 531.045894,2668.81235 531.316412,2668.63201 C531.586924,2668.45166 531.842402,2668.27132 532.082859,2668.09098 L532.2632,2668.00081 C532.623882,2667.70024 532.804224,2667.35459 532.804224,2666.96385 C532.804224,2666.57311 532.774169,2666.31763 532.714053,2666.1974 C532.593827,2665.89683 532.082865,2664.75468 531.181153,2662.77092 C530.279441,2660.78715 529.738424,2659.61495 529.558082,2659.25426 C529.437857,2659.01381 529.302598,2658.83347 529.152318,2658.71324 C529.002031,2658.59302 528.776608,2658.5329 528.476035,2658.5329 L528.476035,2658.5329 Z" id="Page-1"></path>
        </g>
    </g>
</svg>