<svg width="32" height="19" viewBox="0 0 32 19" xmlns="http://www.w3.org/2000/svg"><title>php-file-rounded-rectangular-outlined-interface-symbol</title><g fill="#616572" fill-rule="evenodd"><path d="M8.345 4.33H4.173v9.997h1.39v-4.284h2.782c1.53 0 2.782-1.286 2.782-2.856 0-1.571-1.252-2.856-2.782-2.856zm0 4.285H5.564V5.759h2.781c.835 0 1.391.57 1.391 1.428 0 .856-.556 1.428-1.39 1.428zM18.082 8.615h-4.173V4.33h-1.39v9.996h1.39v-4.284h4.173v4.284h1.39V4.33h-1.39z"/><path d="M27.818.047H4.173C1.808.047 0 1.903 0 4.33v9.996c0 2.427 1.808 4.284 4.173 4.284h23.645c2.365 0 4.173-1.857 4.173-4.284V4.33c0-2.428-1.808-4.284-4.173-4.284zm2.782 14.28c0 1.57-1.252 2.856-2.782 2.856H4.173c-1.53 0-2.782-1.286-2.782-2.856V4.33c0-1.571 1.252-2.856 2.782-2.856h23.645c1.53 0 2.782 1.285 2.782 2.856v9.996z"/><path d="M25.036 4.33h-4.172v9.997h1.39v-4.284h2.782c1.53 0 2.782-1.286 2.782-2.856 0-1.571-1.252-2.856-2.782-2.856zm0 4.285h-2.781V5.759h2.781c.835 0 1.391.57 1.391 1.428 0 .856-.556 1.428-1.39 1.428z"/></g></svg>