<?xml version="1.0" encoding="UTF-8" standalone="no"?>
<svg width="25px" height="27px" viewBox="0 0 25 27" version="1.1" xmlns="http://www.w3.org/2000/svg" xmlns:xlink="http://www.w3.org/1999/xlink">
    <!-- Generator: Sketch 3.8.3 (29802) - http://www.bohemiancoding.com/sketch -->
    <title>Capa_1</title>
    <desc>Created with Sketch.</desc>
    <defs></defs>
    <g id="Page-1" stroke="none" stroke-width="1" fill="none" fill-rule="evenodd">
        <g id="Home" transform="translate(-183.000000, -1695.000000)" fill="#616572">
            <g id="Group-12" transform="translate(152.000000, 1337.000000)">
                <g id="shield" transform="translate(31.000000, 358.000000)">
                    <g id="Capa_1">
                        <g id="Group">
                            <path d="M12.4940034,26.9876887 C12.4070946,26.9876887 12.3201014,26.9741887 12.2363176,26.9471887 C9.42010135,26.0403113 7.02246622,24.3008491 5.10988176,21.7771981 C3.60413851,19.7903208 2.39847973,17.3174434 1.52660473,14.4272547 C0.0558277027,9.55239623 0.0389358108,5.20964151 0.0389358108,5.02717925 C0.0389358108,4.58991509 0.369341216,4.2240566 0.802364865,4.1820283 C0.867567568,4.17566038 7.42719595,3.49870755 11.9977196,0.162 C12.2936655,-0.0541698113 12.6944257,-0.0539150943 12.9903716,0.162084906 C17.5596284,3.49870755 24.1201014,4.17566038 24.1858108,4.18211321 C24.6184966,4.22456604 24.9488176,4.59025472 24.9488176,5.02717925 C24.9488176,5.20964151 24.9319257,9.55239623 23.4612331,14.4273396 C22.5892736,17.3175283 21.3836993,19.7904057 19.8779561,21.777283 C17.9654561,24.300934 15.5678209,26.0403962 12.7516047,26.9472736 C12.6678209,26.9741887 12.5809122,26.9876887 12.4940034,26.9876887 L12.4940034,26.9876887 Z M1.75236486,5.7720566 C1.82255068,7.19711321 2.09543919,10.4790566 3.15472973,13.9731792 C4.96258446,19.9358491 8.10413851,23.7262925 12.4939189,25.244066 C16.8939189,23.7228962 20.0391047,19.9195472 21.8446791,13.9344623 C22.8967905,10.4470472 23.166723,7.19006604 23.2358953,5.77214151 C21.3436655,5.49458491 16.4421453,4.55527358 12.4938345,1.88473585 C8.54518581,4.55501887 3.64467905,5.4945 1.75236486,5.7720566 L1.75236486,5.7720566 Z" id="Shape"></path>
                            <path d="M12.0423986,17.6285377 C11.8420608,17.6285377 11.6471284,17.5568774 11.4934966,17.4247642 L8.43918919,14.7989717 C8.08471284,14.4942453 8.04307432,13.9583208 8.34619932,13.6018868 C8.64923986,13.2454528 9.18243243,13.2035094 9.53699324,13.5084057 L11.9123311,15.5504717 L16.6203547,9.34233962 C16.903125,8.96943396 17.4330236,8.89743396 17.8040541,9.18186792 C18.1750845,9.46613208 18.2464527,9.99891509 17.9636824,10.3718208 L12.7141047,17.2941792 C12.5733108,17.4798679 12.3627534,17.5990755 12.1317568,17.623783 C12.1019426,17.6269245 12.0721284,17.6285377 12.0423986,17.6285377 L12.0423986,17.6285377 Z" id="Shape"></path>
                        </g>
                    </g>
                </g>
            </g>
        </g>
    </g>
</svg>