<svg width="25" height="27" viewBox="0 0 25 27" xmlns="http://www.w3.org/2000/svg"><title>Capa_1</title><g fill="#616572" fill-rule="evenodd"><path d="M12.494 26.988a.84.84 0 0 1-.258-.04C9.42 26.04 7.022 24.3 5.11 21.777c-1.506-1.988-2.712-4.46-3.583-7.35C.056 9.551.039 5.21.039 5.027c0-.438.33-.804.763-.846.066-.006 6.625-.683 11.196-4.02a.841.841 0 0 1 .992 0c4.57 3.337 11.13 4.014 11.196 4.02a.848.848 0 0 1 .763.845c0 .183-.017 4.525-1.488 9.4-.872 2.89-2.077 5.363-3.583 7.35-1.913 2.524-4.31 4.263-7.126 5.17a.842.842 0 0 1-.258.04zM1.752 5.772c.07 1.425.343 4.707 1.403 8.201 1.808 5.963 4.95 9.753 9.339 11.271 4.4-1.521 7.545-5.324 9.35-11.31 1.053-3.487 1.323-6.744 1.392-8.162-1.892-.277-6.794-1.217-10.742-3.887-3.949 2.67-8.85 3.61-10.742 3.887z"/><path d="M12.042 17.629a.842.842 0 0 1-.549-.204L8.44 14.799a.852.852 0 0 1-.093-1.197.841.841 0 0 1 1.191-.094l2.375 2.042 4.708-6.208a.841.841 0 0 1 1.184-.16.852.852 0 0 1 .16 1.19l-5.25 6.922a.843.843 0 0 1-.672.335z"/></g></svg>