<svg width="50" height="46" viewBox="0 0 50 46" xmlns="http://www.w3.org/2000/svg"><title>Page 1</title><g fill="none" fill-rule="evenodd"><g fill="#8F8C8D"><path d="M20.551 43.721h-6.804c-5.923-27.786 5.32-35.446 5.452-35.55.488-.304.643-.958.326-1.441a1.048 1.048 0 0 0-1.477-.323c-.525.323-12.89 8.503-6.21 38.595.105.486.537.826 1.045.826h7.668c.584 0 1.065-.464 1.065-1.052 0-.58-.481-1.055-1.065-1.055"/><path d="M29.168 43.721h-4.83c-9.001-20.157-2.455-30.245-2.388-30.34a1.048 1.048 0 0 0-.287-1.462 1.063 1.063 0 0 0-1.475.284c-.307.438-7.467 11.256 2.49 33.008.172.381.557.617.97.617h5.52c.594 0 1.063-.464 1.063-1.052 0-.58-.469-1.055-1.063-1.055"/></g><g fill="#8F8C8D"><path d="M38.186 43.721h-5.501C24.587 31.926 24.91 19.78 24.91 19.645a1.061 1.061 0 0 0-1.025-1.09c-.72-.069-1.083.434-1.102 1.015-.02.53-.383 13.267 8.473 25.804.2.284.527.444.873.444h6.056c.596 0 1.074-.464 1.074-1.052a1.075 1.075 0 0 0-1.074-1.045"/><path d="M44.158 5.95c.479.029.95.068 1.418.095l-.432.806a1.73 1.73 0 0 1-.986-.901M48.01 43.72h-5.96c-1.305-1.584-6.355-7.742-8.588-11.596-.748-1.292-2.041-4.195-3.057-6.55l4.733 3.4c.26.18.587.235.893.16.307-.076.565-.285.7-.569l3.41-7.118c.175-.36.06-.758-.171-1.072-.221-.313-.68-.476-1.073-.418-2.051.285-3.96-1.482-3.96-3.578 0-1.983 1.64-3.606 3.654-3.606 1.253 0 2.404.637 3.074 1.708.211.323.567.494.95.494a1.08 1.08 0 0 0 .9-.569l4.706-8.826a1.033 1.033 0 0 0-.01-1.006 1.078 1.078 0 0 0-.86-.542c-14.387-.911-19.544-1.176-21.51-1.1l-.94-2.277C24.73.238 24.327.019 23.86 0 23.675.01 5.895 1.234 1.066 22.956-.2 28.642-.276 39.366.51 44.793c.076.522.528.904 1.055.904h9.018c.596 0 1.074-.477 1.074-1.055a1.06 1.06 0 0 0-1.074-1.054H2.504c-.682-5.875-.395-15.515.64-20.175C7.122 5.542 19.957 2.638 23.235 2.182l.9 2.203c.126.294.374.523.67.617.195.047.386.047.568.008 1.055-.102 9.336.371 16.599.816.21 1.283 1.008 2.364 2.166 2.896l-1.78 3.34a5.758 5.758 0 0 0-3.767-1.404c-3.193 0-5.781 2.57-5.781 5.722 0 2.801 2.031 5.126 4.706 5.62l-2.167 4.516-6.774-4.86a1.092 1.092 0 0 0-1.286.03 1.07 1.07 0 0 0-.326 1.234c.134.32 3.231 7.808 4.64 10.248 2.664 4.594 8.865 11.967 9.125 12.28.21.239.508.38.824.38h6.458c.587 0 1.065-.474 1.065-1.052.01-.58-.468-1.055-1.065-1.055"/></g><path d="M38.58 7.05c0-.578-.48-1.042-1.064-1.042h-9.287a1.043 1.043 0 0 0-.97 1.49l1.613 3.464c.132.294.402.503.709.578a.79.79 0 0 0 .257.04c.23 0 .462-.079.653-.22l1.754-1.338c.46-.36.545-1.016.192-1.47a1.07 1.07 0 0 0-1.497-.202l-.69.523-.363-.758h7.629c.584 0 1.065-.474 1.065-1.065" fill="#8F8D8E"/></g></svg>