<svg width="49" height="54" viewBox="0 0 49 54" xmlns="http://www.w3.org/2000/svg" xmlns:xlink="http://www.w3.org/1999/xlink"><title>Page 1</title><defs><path id="a" d="M0 53.698h48.85V.256H0v53.442z"/></defs><g transform="translate(0 .008)" fill="none" fill-rule="evenodd"><mask id="b" fill="#fff"><use xlink:href="#a"/></mask><path d="M38.384 15.78H11.857c-6.812 0-9.606-2.861-10.695-4.676 2.603 1.123 5.118 1.691 7.524 1.691 1.851 0 3.638-.332 5.351-.998C20.04 9.465 23.42 3.632 24.38 1.751c.448 1.212 1.681 3.945 4.364 6.317 5.607 4.957 13.198 4.44 18.814 3.014-2.852 4.193-9.12 4.694-9.173 4.698zm-.817 9.801H33.43V16.31h4.138v9.272zm3.925.53v3.04H7.805v-3.04H41.492zm-3.774 3.67v9.185h-3.855l-.058.185c-.043.138-1.096 3.36-4.524 3.53V29.68h8.457a.268.268 0 0 0-.02.102zM20.246 53.17h8.509v-23.49h-8.509v23.49zm-4.99-14.018l-.058-.185h-3.855V29.68h8.377v12.997c-3.38-.204-4.42-3.389-4.464-3.526zM32.902 16.31v9.272H15.803V16.31h17.099zm-21.394-.007c.117.002.23.007.35.007h3.418v9.272h-3.768v-9.279zm37.177-6.836a.263.263 0 0 0-.343.147 7.73 7.73 0 0 1-.391.819c-7.877 2.124-14.39 1.178-18.84-2.744-3.387-2.983-4.422-6.67-4.432-6.707l-.198-.725-.298.69c-.033.076-3.378 7.657-10.34 10.36-3.92 1.521-8.25 1.232-12.872-.858a.254.254 0 0 0-.162-.013 4.675 4.675 0 0 1-.29-.784.263.263 0 1 0-.512.122c.015.063 1.557 6.16 10.974 6.519v9.29H7.278v4.098h3.538v9.286h-3.44a.264.264 0 0 0 0 .529h7.445c.298.752 1.62 3.532 4.899 3.712v10.49h9.561V43.212c3.322-.15 4.659-2.96 4.958-3.716h7.445a.264.264 0 1 0 0-.529h-3.44v-9.184a.264.264 0 0 0-.02-.102h3.795V25.58h-3.925V16.31h.308c.076-.006 7.096-.561 9.918-5.45a.264.264 0 0 0 .1-.186c.15-.275.289-.56.41-.862a.265.265 0 0 0-.145-.345z" stroke="#8F8C8D" fill="#594A41" mask="url(#b)"/></g></svg>