<svg version="1" xmlns="http://www.w3.org/2000/svg" width="533.333" height="533.333" viewBox="0 0 400.000000 400.000000"><path d="M173.2 1.6C121.7 8.9 76.5 34.5 43.9 74.8 21.1 103 5.2 140.7 1.3 175.8c-1.7 15.1-.7 50.8 1.7 59 .5 1.8.9 3.3.8 3.5-.1 1.1 1.9 9.9 3.9 17.2C22 306 58.1 350.9 105.1 376.3c13.3 7.2 36.3 16 47.5 18.1 1.1.2 3.7.9 5.9 1.4 2.2.6 6.3 1.4 9 1.8 2.8.3 5.9.8 7 1.1 4.9 1.2 42.5 1 51.9-.3 76-10.2 139.7-63.1 163.6-135.6 3.5-10.6 7.7-28.9 8.7-38.3 1.5-13.3.7-54.5-1.2-57.4-.1-.3-.6-2.4-.9-4.6-1.2-7.2-5.8-23.8-9.3-32.9-19.6-51.7-58.6-92.2-109.6-114-9.1-3.9-23.1-8.5-30.3-10.1-5.4-1.1-17.3-3.5-20.4-4-7.2-1.3-44.4-1.2-53.8.1z"/></svg>